<?xml version="1.0" encoding="UTF-8" standalone="no"?>
<!DOCTYPE svg  PUBLIC '-//W3C//DTD SVG 1.1//EN'  'http://www.w3.org/Graphics/SVG/1.1/DTD/svg11.dtd'>
<svg xmlns="http://www.w3.org/2000/svg">
 <metadata>Created by FontForge 20120731 at Mon Apr 18 16:55:32 2016
 By emile,,,
Digitized data copyright (c) 2010 Google Corporation.
Copyright (c) 2012 Red Hat, Inc.</metadata>
 <defs>
  <font id="LiberationSerif" horiz-adv-x="0">
   <font-face underline-position="-173" font-weight="400" descent="-410" panose-1="2 2 6 3 5 4 5 2 3 4" units-per-em="2048" unicode-range="U+0020-FFFC" bbox="-1114 -621 2618 2010" x-height="940" underline-thickness="100" font-family="Liberation Serif" ascent="1638" cap-height="1341"/>
   <missing-glyph horiz-adv-x="1593"/>
   <glyph glyph-name=".notdef" horiz-adv-x="1593"/>
   <glyph glyph-name="space" horiz-adv-x="512" unicode=" "/>
   <glyph glyph-name="exclam" horiz-adv-x="682" unicode="!" d="M461 92c0 -32.667 -11.5 -61 -34.5 -85s-51.833 -36 -86.5 -36s-63.5 12 -86.5 36s-34.5 52.333 -34.5 85c0 34 11.667 62.667 35 86s52 35 86 35s62.667 -11.667 86 -35s35 -52 35 -86zM231 1341h218l-62 -952h-94z"/>
   <glyph glyph-name="quotedbl" horiz-adv-x="836" unicode='&quot;' d="M512 1341h197l-62 -481h-74zM127 1341h197l-62 -481h-74z"/>
   <glyph glyph-name="numbersign" horiz-adv-x="1024" unicode="#" d="M987 524v-102h-260l-78 -422h-104l78 422h-310l-77 -422h-105l78 422h-172v102h192l58 307h-250v103h268l76 407h104l-75 -407h309l76 407h104l-76 -407h164v-103h-182l-57 -307h239zM334 524h309l57 307h-309z"/>
   <glyph glyph-name="dollar" horiz-adv-x="1024" unicode="$" d="M481 -20c-71.333 1.33301 -145.501 9.33301 -222.501 24s-133.833 30.334 -170.5 47.001v320h66l34 -191c20.667 -27.333 59.834 -53.166 117.501 -77.499s116.167 -38.166 175.5 -41.499v566c-79.333 27.333 -135 48.833 -167 64.5s-60.667 33.167 -86 52.5 s-47.166 42 -65.499 68s-32.333 55.833 -42 89.5s-14.5 71.167 -14.5 112.5c0 96 34.167 174.333 102.5 235s159.166 95.667 272.499 105v129h82v-127c102 -4 204.333 -18.333 307 -43v-279h-65l-29 164c-20 18.667 -50.167 35 -90.5 49 c-40.335 14 -81.168 22.333 -122.5 25v-477l95 -34c110 -40.667 188 -90.834 234 -150.501s69 -134.167 69 -223.5c0 -116.667 -35.833 -210.834 -107.5 -282.501s-168.5 -111.834 -290.5 -120.501v-140h-82v136zM790.999 330c0 62.667 -16.166 114.333 -48.499 155 c-32.334 40.667 -92.167 77.667 -179.5 111v-530c73.333 11.333 129.666 39 168.999 83s59 104.333 59 181zM274 1067c0 -39.333 6.5 -72.833 19.5 -100.5s31.833 -51.667 56.5 -72s68.334 -43.5 131.001 -69.5v443c-66.667 -8.66699 -117.834 -30.667 -153.501 -66 s-53.5 -80.333 -53.5 -135z"/>
   <glyph glyph-name="percent" horiz-adv-x="1706" unicode="%" d="M440 -20h-110l948 1382h111zM721 995c0 -248 -110.001 -371.999 -330.001 -371.999c-107.333 0 -187.666 31.667 -240.999 95s-80 155.666 -80 276.999c0 244.667 109 367 327 367c106 0 186.5 -30.667 241.5 -92s82.5 -153 82.5 -275zM564.999 995.001 c0 101.333 -13.833 175.5 -41.5 222.5s-71.834 70.5 -132.5 70.5c-58 0 -100.167 -22.167 -126.5 -66.5s-39.5 -119.833 -39.5 -226.5c0 -109.333 13.333 -186.5 40 -231.5s68.667 -67.5 126 -67.5c60 0 104 23.833 132 71.5s42 123.5 42 227.5zM1636 346.001 c0 -248.667 -109.667 -372.999 -329 -372.999c-107.333 0 -187.833 31.667 -241.5 95s-80.5 156 -80.5 278c0 118.667 27 209.5 81 272.5s136.333 94.5 247 94.5c106 0 186.333 -30.667 241 -92c54.667 -61.334 82 -153.001 82 -275.001zM1481 346.002 c0 101.333 -13.833 175.5 -41.5 222.5c-27.6719 47 -71.8389 70.5 -132.5 70.5c-58 0 -100.167 -22.167 -126.5 -66.5c-26.333 -44.334 -39.5 -119.834 -39.5 -226.5c0 -109.333 13.333 -186.5 40 -231.5s68.667 -67.5 126 -67.5c60 0 104 23.833 132 71.5 s42 123.5 42 227.5z"/>
   <glyph glyph-name="ampersand" horiz-adv-x="1593" unicode="&amp;" d="M989 1083c0 -52 -11.166 -97.002 -33.499 -135.002s-53.833 -71.5 -94.5 -100.5s-108.667 -62.167 -204 -99.5l422 -384c64.667 132 99 253 103 363l-142 27v53h457v-53l-139 -27c-50.667 -176.667 -115.667 -323.667 -195 -441l228 -208l165 -25v-53h-344l-171 155 c-69.333 -62 -141.833 -106.667 -217.5 -134s-158.5 -41 -248.5 -41c-165.333 0 -289.5 32.167 -372.5 96.5s-124.5 157.5 -124.5 279.5c0 64.667 12 120.334 36 167.001s56.667 86.5 98 119.5s106.666 66.5 195.999 100.5c-100.667 97.333 -151 206.333 -151 327 c0 95.333 32 167.833 96 217.5s156.667 74.5 278 74.5c116 0 204.667 -23.667 266 -71s92 -116.666 92 -207.999zM602.001 65.998c144.667 0 268 50.999 370 152.999l-499 457c-70 -30 -120.667 -70.667 -152 -122s-47 -113.666 -47 -186.999 c0 -96.667 28.167 -171 84.5 -223s137.5 -78 243.5 -78zM434.001 1090c0 -108.667 51.334 -201.666 154.001 -278.999c64.667 24 111.167 47.5 139.5 70.5s49.666 51.167 63.999 84.5s21.5 74.666 21.5 123.999c0 128 -60.667 192 -182 192c-70 0 -120.333 -16 -151 -48 s-46 -80 -46 -144z"/>
   <glyph glyph-name="quotesingle" horiz-adv-x="369" unicode="&apos;" d="M86 1341h197l-62 -481h-74z"/>
   <glyph glyph-name="parenleft" horiz-adv-x="682" unicode="(" d="M283 494c0 -173.333 11.668 -311.501 35.001 -414.501s60 -189.833 110 -260.5s112.667 -127.667 188 -171v-84c-132 70 -235.167 146.5 -309.5 229.5s-129 180.667 -164 293s-52.5 248.166 -52.5 407.499c0 158.667 17.333 293.834 52 405.5 c34.667 111.667 89 208.834 163 291.501s177.667 159.334 311 230.001v-84c-81.334 -46.667 -146.001 -106.5 -194.001 -179.5s-83.167 -158.167 -105.5 -255.5s-33.5 -233.333 -33.5 -408z"/>
   <glyph glyph-name="parenright" horiz-adv-x="682" unicode=")" d="M66 -436v84c75.333 43.333 138 100.5 188 171.5s86.667 158 110 261s35 240.833 35 413.5c0 174.667 -11.167 310.667 -33.5 408s-57.5 182.5 -105.5 255.5s-112.667 132.833 -194 179.5v84c133.333 -71.333 237 -148.166 311 -230.499s128.333 -179.333 163 -291 s52 -246.834 52 -405.501s-17.333 -294.167 -52 -406.5s-89 -209.833 -163 -292.5s-177.667 -159.667 -311 -231z"/>
   <glyph glyph-name="asterisk" horiz-adv-x="1024" unicode="*" d="M100 1065l64 143l315 -194l-43 327h156l-47 -327l317 190l64 -141l-332 -98l332 -97l-64 -141l-317 188l47 -325h-156l43 328l-315 -195l-64 143l328 99z"/>
   <glyph glyph-name="plus" horiz-adv-x="1155" unicode="+" d="M629 629v-426h-103v426h-424v102h424v426h103v-426h426v-102h-426z"/>
   <glyph glyph-name="comma" horiz-adv-x="512" unicode="," d="M383 49c0 -91.333 -26.5 -167.833 -79.5 -229.5s-128.167 -106.5 -225.5 -134.5v77c117.333 37.333 176 93.333 176 168c0 13.333 -5 25.333 -15 36s-27.333 22.334 -52 35.001c-45.333 23.333 -68 56.333 -68 99c0 36 11.333 63.5 34 82.5s51.667 28.5 87 28.5 c42.667 0 77.167 -15.333 103.5 -46s39.5 -69.334 39.5 -116.001z"/>
   <glyph glyph-name="hyphen" horiz-adv-x="682" unicode="-" d="M76 406v153h532v-153h-532z"/>
   <glyph glyph-name="period" horiz-adv-x="512" unicode="." d="M377 92c0 -32.667 -11.5 -61 -34.5 -85s-51.833 -36 -86.5 -36s-63.5 12 -86.5 36s-34.5 52.333 -34.5 85c0 34 11.667 62.667 35 86s52 35 86 35s62.667 -11.667 86 -35s35 -52 35 -86z"/>
   <glyph glyph-name="slash" horiz-adv-x="569" unicode="/" d="M100 -20h-100l471 1370h98z"/>
   <glyph glyph-name="zero" horiz-adv-x="1024" unicode="0" d="M946 676c0 -464 -146.666 -696.001 -439.999 -696.001c-141.333 0 -248 59.333 -320 178s-108 291.334 -108 518.001c0 222 36 391.833 108 509.5s181.333 176.5 328 176.5c141.333 0 248.666 -58.167 321.999 -174.5s110 -286.833 110 -511.5zM762.001 675.999 c0 214.667 -20.333 369.332 -61 463.999s-105.667 142 -195 142c-86.667 0 -149 -44.667 -187 -134s-57 -246.666 -57 -471.999c0 -226.667 19.333 -386.167 58 -478.5s100.667 -138.5 186 -138.5c88 0 152.667 48.5 194 145.5s62 254.167 62 471.5z"/>
   <glyph glyph-name="one" horiz-adv-x="1024" unicode="1" d="M627 80l274 -27v-53h-721v53l275 27v1094l-271 -97v53l391 222h52v-1272z"/>
   <glyph glyph-name="two" horiz-adv-x="1024" unicode="2" d="M911 0l-821.001 -0.000976562v147l186 169c119.333 104.667 207 189.334 263 254.001s96.167 131.334 120.5 200c24.333 68.668 36.5 147.335 36.5 236.001c0 86.667 -19.667 152.667 -59 198c-39.334 45.333 -103.667 68 -193 68 c-35.333 0 -71.666 -4.83301 -108.999 -14.5s-70.333 -22.5 -99 -38.5l-35 -164h-66v258c121.333 28.667 224.333 43 309 43c146.667 0 256.834 -30.5 330.5 -91.5c73.667 -61 110.5 -147.167 110.5 -258.5c0 -74.667 -14.5 -145.167 -43.5 -211.5 s-73.5 -132.333 -133.5 -198s-159.333 -157.5 -298 -275.5c-59.333 -50.667 -122.333 -106.334 -189 -167.001h690v-154z"/>
   <glyph glyph-name="three" horiz-adv-x="1024" unicode="3" d="M944 365c0 -120.667 -41.332 -214.998 -123.999 -282.998s-199.667 -102 -351 -102c-126.667 0 -246.667 14.333 -360 43l-11 282h66l45 -188c26 -14.667 62.833 -27.334 110.5 -38.001s92.167 -16 133.5 -16c104.667 0 182 24 232 72s75 128 75 240 c0 88 -23 154.833 -69 200.499c-46 45.6689 -117.333 70.8359 -214 75.5l-143 8v82l143 9c75.333 4 131 27.333 167 70s54 107.334 54 194c0 90 -19.5 155.5 -58.5 196.5s-101.167 61.5 -186.5 61.5c-35.333 0 -72.333 -4.83301 -111 -14.5s-72.667 -22.5 -102 -38.5 l-35 -164h-66v258c66 17.333 123 28.833 171 34.5s95.667 8.5 143 8.5c286.667 0 430 -110 430 -330c0 -92.667 -25.5 -166.5 -76.5 -221.5s-123.167 -89.167 -216.5 -102.5c121.333 -14 210.666 -48.833 267.999 -104.5s86 -133.167 86 -232.5z"/>
   <glyph glyph-name="four" horiz-adv-x="1024" unicode="4" d="M810 295v-295h-172v295h-598v133l655 920h115v-910h182v-143h-182zM638 1113h-5l-480 -675h485v675z"/>
   <glyph glyph-name="five" horiz-adv-x="1024" unicode="5" d="M485 784c154.667 0 269.835 -31.667 345.501 -95c75.667 -63.333 113.5 -160 113.5 -290c0 -134.667 -41 -238.167 -123 -310.5s-199.333 -108.5 -352 -108.5c-126.667 0 -239.667 14.333 -339 43l-11 282h66l45 -188c29.333 -16 64.5 -29 105.5 -39 s80.167 -15 117.5 -15c105.333 0 182.833 24.833 232.5 74.5s74.5 133.5 74.5 251.5c0 82.667 -10.667 145.167 -32 187.5s-55.333 73.5 -102 93.5s-109.334 30 -188.001 30c-60.667 0 -120 -8 -178 -24h-96v665h680v-153h-590v-428c72 16 149 24 231 24z"/>
   <glyph glyph-name="six" horiz-adv-x="1024" unicode="6" d="M963 416c0 -139.333 -35.168 -246.835 -105.501 -322.502s-171.833 -113.5 -304.5 -113.5c-150.667 0 -265.834 58.667 -345.501 176s-119.5 286 -119.5 506c0 144 21 268.333 63 373s100.833 184.334 176.5 239.001s163.167 82 262.5 82 c97.333 0 194.333 -11.667 291 -35v-231h-66l-35 137c-22 12 -51.667 22.5 -89 31.5s-71 13.5 -101 13.5c-97.333 0 -173.166 -47.167 -227.499 -141.5s-84.166 -232.166 -89.499 -413.499c108.667 57.333 217.667 86 327 86c118 0 208 -33.167 270 -99.5 c62 -66.334 93 -162.167 93 -287.5zM548.999 58.998c80.667 0 139 26.167 175 78.5s54 138.833 54 259.5c0 109.333 -17.167 188.333 -51.5 237s-88.833 73 -163.5 73c-91.333 0 -188.333 -16.667 -291 -50c0 -203.333 23 -353.833 69 -451.5s115.333 -146.5 208 -146.5z "/>
   <glyph glyph-name="seven" horiz-adv-x="1024" unicode="7" d="M201 1024h-66v317h830v-77l-598 -1264h-129l587 1188h-589z"/>
   <glyph glyph-name="eight" horiz-adv-x="1024" unicode="8" d="M905 1014c0 -73.333 -17.833 -135.501 -53.5 -186.501s-83.834 -89.833 -144.501 -116.5c76 -28 134.833 -71.833 176.5 -131.5s62.5 -132.167 62.5 -217.5c0 -126.667 -35.667 -222 -107 -286s-182.333 -96 -333 -96c-285.333 0 -428 127.333 -428 382 c0 88.667 21.333 162.167 64 220.5s100.334 101.166 173.001 128.499c-58 26.668 -105.167 65.335 -141.5 116c-36.333 50.667 -54.5 113 -54.5 187c0 110.667 33.833 196.334 101.5 257.001s165.5 91 293.5 91c124 0 220.167 -30.167 288.5 -90.5 s102.5 -146.166 102.5 -257.499zM766 361.999c0 106.667 -20.833 184.002 -62.5 232.002s-107.5 72 -197.5 72c-88 0 -151.333 -22.833 -190 -68.5s-58 -124.167 -58 -235.5c0 -112.667 19.667 -191.334 59 -236.001s102.333 -67 189 -67 c88.667 0 154.167 23.167 196.5 69.5s63.5 124.166 63.5 233.499zM725 1014c0 92 -18 159.667 -54 203s-90.333 65 -163 65c-70.667 0 -123.167 -21 -157.5 -63s-51.5 -110.333 -51.5 -205c0 -92.667 16.667 -159.167 50 -199.5s86.333 -60.5 159 -60.5 c74.667 0 129.5 20.5 164.5 61.5s52.5 107.167 52.5 198.5z"/>
   <glyph glyph-name="nine" horiz-adv-x="1024" unicode="9" d="M66 932c0 134.667 37.6689 239 113.002 313s181.666 111 318.999 111c152.667 0 264.5 -55 335.5 -165s106.5 -282.333 106.5 -517c0 -224.667 -45.667 -396.5 -137 -515.5c-91.334 -119 -219.667 -178.5 -385 -178.5c-108.667 0 -208.334 11.333 -299.001 34v232h65 l35 -144c21.333 -10 50 -19 86 -27s72.333 -12 109 -12c106.667 0 188.667 46.833 246 140.5s89 231.5 95 413.5c-101.333 -56.667 -204.333 -85 -309 -85c-118 0 -210.833 35.167 -278.5 105.5s-101.5 168.5 -101.5 294.5zM500.002 1276 c-166.667 0 -250 -116.001 -250 -348.001c0 -102 20 -177.333 60 -226s102 -73 186 -73c86 0 172.667 17.667 260 53c0 204.667 -20.167 354.834 -60.5 450.501s-105.5 143.5 -195.5 143.5z"/>
   <glyph glyph-name="colon" horiz-adv-x="569" unicode=":" d="M403 92c0 -32.667 -11.5 -61 -34.5 -85s-51.5 -36 -85.5 -36c-34.667 0 -63.5 12 -86.5 36s-34.5 52.333 -34.5 85c0 34 11.667 62.667 35 86s52 35 86 35c33.334 0 61.667 -11.5 85 -34.5s35 -51.833 35 -86.5zM403 840c0 -34 -11.668 -62.667 -35.001 -86 s-51.666 -35 -84.999 -35c-34 0 -62.667 11.667 -86 35s-35 52 -35 86c0 32.667 11.5 61 34.5 85s51.833 36 86.5 36c34 0 62.5 -12 85.5 -36s34.5 -52.333 34.5 -85z"/>
   <glyph glyph-name="semicolon" horiz-adv-x="569" unicode=";" d="M403 840c0 -34 -11.668 -62.667 -35.001 -86s-51.666 -35 -84.999 -35c-34 0 -62.667 11.667 -86 35s-35 52 -35 86c0 32.667 11.5 61 34.5 85s51.833 36 86.5 36c34 0 62.5 -12 85.5 -36s34.5 -52.333 34.5 -85zM411.999 49 c0 -91.333 -26.501 -167.834 -79.501 -229.501s-128.5 -106.5 -226.5 -134.5v77c118 37.333 177 93.333 177 168c0 14 -5.33301 26.333 -16 37s-28 22 -52 34c-45.333 22.667 -68 55.667 -68 99c0 36 11.5 63.5 34.5 82.5s51.833 28.5 86.5 28.5 c42.667 0 77.334 -15.167 104.001 -45.5s40 -69.166 40 -116.499z"/>
   <glyph glyph-name="less" horiz-adv-x="1155" unicode="&lt;" d="M102 655v50l953 469v-103l-809 -391l809 -391v-103z"/>
   <glyph glyph-name="equal" horiz-adv-x="1155" unicode="=" d="M1055 526v-102h-953v102h953zM1055 936v-102h-953v102h953z"/>
   <glyph glyph-name="greater" horiz-adv-x="1155" unicode="&gt;" d="M104 186v103l809 391l-809 391v103l953 -469v-50z"/>
   <glyph glyph-name="question" horiz-adv-x="909" unicode="?" d="M440 350h-79.998l-26 334l143 29c57.333 11.333 99 40.333 125 87s39 114.667 39 204c0 98 -17.667 167.167 -53 207.5s-97.666 60.5 -186.999 60.5c-74.667 0 -139.334 -16.333 -194.001 -49l-35 -164h-66v254c105.333 28.667 203.666 43 294.999 43 c282.667 0 424 -113.333 424 -340c0 -108.667 -26.833 -196 -80.5 -262s-131.834 -109.667 -234.501 -131l-57 -13zM530.002 92c0 -32.667 -11.499 -61 -34.499 -85s-51.5 -36 -85.5 -36c-34.667 0 -63.5 12 -86.5 36s-34.5 52.333 -34.5 85c0 34 11.667 62.667 35 86 s52 35 86 35c33.334 0 61.667 -11.5 84.999 -34.5c23.333 -23 35 -51.833 35 -86.5z"/>
   <glyph glyph-name="at" horiz-adv-x="1886" unicode="@" d="M1458 -184c-94 -73.333 -188.834 -125.832 -284.501 -157.499s-198.834 -47.5 -309.501 -47.5c-150 0 -282.167 31.5 -396.5 94.5s-202.666 151.833 -264.999 266.5s-93.5 244.667 -93.5 390c0 189.333 41.833 360.666 125.5 513.999s199.334 273 347.001 359 s311.5 129 491.5 129c224 0 397.5 -53.667 520.5 -161s184.5 -257.666 184.5 -450.999c0 -126.667 -32.333 -245.834 -97 -357.501s-152 -201.167 -262 -268.5s-224.667 -101 -344 -101c-43.333 0 -65 17 -65 51c0 33.333 2.66699 75 8 125 c-58 -58 -115 -101.833 -171 -131.5s-106.333 -44.5 -151 -44.5c-48 0 -85.167 18.167 -111.5 54.5s-39.5 84.833 -39.5 145.5c0 79.333 10.167 156.833 30.5 232.5s49 142.834 86 201.5c37 58.667 83.333 108.5 139 149.5s110.167 69 163.5 84s123.333 22.5 210 22.5h36 c25.333 0 54 -2 86 -6l-114 -530c-5.33301 -23.333 -10.5 -54 -15.5 -92s-7.5 -65.333 -7.5 -82c0 -24.667 6.16699 -41.167 18.5 -49.5s30.833 -12.5 55.5 -12.5c77.333 0 148 27.167 212 81.5s114.667 129.833 152 226.5s56 196.334 56 299c0 168 -52 298.667 -156 392 s-247.333 140 -430 140c-155.334 0 -295.167 -37.833 -419.5 -113.5c-124.334 -75.667 -222.334 -185 -294 -328c-71.667 -143 -107.5 -301.5 -107.5 -475.5c0 -130 25.833 -245.667 77.5 -347s126.5 -180.5 224.5 -237.5s213.667 -85.5 347 -85.5 c98.667 0 189.5 12.833 272.5 38.5s168.833 70.167 257.5 133.5zM1139 807.001l-49 3.99902c-86.667 0 -159.167 -14.833 -217.5 -44.5s-105 -88.5 -140 -176.5s-52.5 -181.667 -52.5 -281s26.667 -149 80 -149c37.333 0 80.5 10.333 129.5 31s93.833 48.334 134.5 83.001z "/>
   <glyph glyph-name="A" horiz-adv-x="1479" unicode="A" d="M461 53v-53h-441v53l152 27l457 1272h190l475 -1272l170 -27v-53h-567v53l180 27l-133 387h-528l-135 -387zM676 1208l-230 -651h467z"/>
   <glyph glyph-name="B" horiz-adv-x="1366" unicode="B" d="M958 1016c0 82 -25.667 141.667 -77 179c-51.334 37.333 -134.667 56 -250 56h-207v-507h219c108 0 187.5 21.333 238.5 64s76.5 112 76.5 208zM1059 382c0 94 -31.333 162.834 -94 206.5c-62.667 43.667 -163 65.5 -301 65.5h-240v-564c92 -4 190 -6 294 -6 c114 0 199.333 24.167 256 72.5s85 123.5 85 225.5zM59 0.000976562l-0.000976562 53.001l172 27v1182l-172 26v53h613c170 0 294.333 -25.167 373 -75.5s118 -130.166 118 -239.499c0 -78.667 -24.167 -145.667 -72.5 -201s-116.166 -92.333 -203.499 -111 c120.667 -12.667 214 -47.834 280 -105.501s99 -131.834 99 -222.501c0 -128.667 -44.5 -226.167 -133.5 -292.5s-218.833 -99.5 -389.5 -99.5l-428 6h-256z"/>
   <glyph glyph-name="C" horiz-adv-x="1366" unicode="C" d="M774 -20c-217.333 0 -386.663 59.168 -507.996 177.501s-182 284.166 -182 497.499c0 230.667 58.333 405.167 175 523.5s289.667 177.5 519 177.5c139.333 0 289 -17 449 -51l6 -293h-66l-30 174c-46.6689 28.667 -100.836 50.834 -162.501 66.501 c-61.667 15.667 -124.5 23.5 -188.5 23.5c-171.333 0 -296.333 -50.333 -375 -151s-118 -256.667 -118 -468c0 -194.667 41.167 -343.334 123.5 -446.001s202.166 -154 359.499 -154c76 0 147.667 9.16699 215 27.5c67.334 18.333 120.667 42.833 159.999 73.5l37 200h65 l-6 -315c-146.667 -42 -304.334 -63 -473.001 -63z"/>
   <glyph glyph-name="D" horiz-adv-x="1479" unicode="D" d="M1188 680c0 187.333 -50.5 329.332 -151.5 425.999s-245.167 145 -432.5 145h-180v-1157c80 -5.33301 175 -8 285 -8c164 0 284.833 48.333 362.5 145s116.5 246.334 116.5 449.001zM668 1341c247.333 0 430.667 -55.168 550 -165.501s179 -276.166 179 -497.499 c0 -224 -57.5 -393.667 -172.5 -509s-286.833 -173 -515.5 -173l-478 4h-172v53l172 27v1182l-172 26v53h609z"/>
   <glyph glyph-name="E" horiz-adv-x="1251" unicode="E" d="M59 53l172 27v1182l-172 26v53h1006v-321h-66l-32 217c-74.667 9.33301 -182.667 14 -324 14h-219v-524h362l31 160h64v-412h-64l-31 162h-362v-547h264c172 0 284.667 5.33301 338 16l57 248h66l-19 -354h-1071v53z"/>
   <glyph glyph-name="F" horiz-adv-x="1139" unicode="F" d="M424 602v-522l223 -27v-53h-575v53l159 27v1182l-172 26v53h1006v-321h-66l-32 217c-74.667 9.33301 -182.667 14 -324 14h-219v-559h395l31 160h61v-412h-61l-31 162h-395z"/>
   <glyph glyph-name="G" horiz-adv-x="1479" unicode="G" d="M1284 70c-77.333 -25.333 -157.667 -46.666 -241 -63.999s-173 -26 -269 -26c-217.333 0 -386.666 58.667 -507.999 176s-182 283.666 -182 498.999c0 234.667 58.833 410.167 176.5 526.5s290.167 174.5 517.5 174.5c162.667 0 319.667 -20 471 -60v-288h-67l-27 166 c-46 32.667 -101.167 57.834 -165.5 75.501c-64.334 17.667 -132.167 26.5 -203.5 26.5c-170.667 0 -295.5 -50.833 -374.5 -152.5s-118.5 -257.167 -118.5 -466.5c0 -196.667 40.667 -345.834 122 -447.501s201.666 -152.5 360.999 -152.5c56 0 114.667 6.66699 176 20 s108 29.333 140 48v381l-172 26v54h495v-54l-131 -26v-436z"/>
   <glyph glyph-name="H" horiz-adv-x="1479" unicode="H" d="M59 0v53l172 27v1182l-172 26v53h537v-53l-172 -26v-527h631v527l-172 26v53h536v-53l-172 -26v-1182l172 -27v-53h-536v53l172 27v565h-631v-565l172 -27v-53h-537z"/>
   <glyph glyph-name="I" horiz-adv-x="682" unicode="I" d="M438 80l172 -27v-53h-536v53l172 27v1182l-172 26v53h536v-53l-172 -26v-1182z"/>
   <glyph glyph-name="J" horiz-adv-x="797" unicode="J" d="M410 1262l-172 26v53h516v-53l-152 -26v-830c0 -89.333 -13.667 -167.5 -41 -234.5c-27.334 -67 -68.834 -120 -124.5 -159c-55.667 -39 -117.834 -58.5 -186.5 -58.5c-85.333 0 -154.333 10 -207 30v244h66l30 -139c12.667 -15.333 30.667 -27.333 54 -36s49 -13 77 -13 c93.333 0 140 63.333 140 190v1006z"/>
   <glyph glyph-name="K" horiz-adv-x="1479" unicode="K" d="M1353 1341v-53l-155 -26l-458 -448l573 -734l145 -27v-53h-328l-525 678l-181 -145v-453l192 -27v-53h-557v53l172 27v1182l-172 26v53h537v-53l-172 -26v-632l642 632l-133 26v53h420z"/>
   <glyph glyph-name="L" horiz-adv-x="1251" unicode="L" d="M631 1288l-207 -26v-1176h264c142 0 246.333 6.66699 313 20l62 279h65l-18 -385h-1051v53l172 27v1182l-172 26v53h572v-53z"/>
   <glyph glyph-name="M" horiz-adv-x="1821" unicode="M" d="M862 0h-35l-491 1153v-1073l180 -27v-53h-457v53l172 27v1182l-172 26v53h406l436 -1020l476 1020h384v-53l-172 -26v-1182l172 -27v-53h-544v53l180 27v1073z"/>
   <glyph glyph-name="N" horiz-adv-x="1479" unicode="N" d="M1155 1262l-180 26v53h457v-53l-172 -26v-1262h-97l-827 1206v-1126l180 -27v-53h-457v53l172 27v1182l-172 26v53h406l690 -993v914z"/>
   <glyph glyph-name="O" horiz-adv-x="1479" unicode="O" d="M293 672c0 -215.333 36 -371.333 108 -468s184.667 -145 338 -145c152.667 0 265.334 48.333 338 145c72.667 96.667 109 252.667 109 468c0 214 -36.167 368.167 -108.5 462.5c-72.334 94.333 -185.167 141.5 -338.5 141.5c-154 0 -266.833 -47.167 -338.5 -141.5 s-107.5 -248.5 -107.5 -462.5zM84 672c0 456 218.333 684.001 655 684.001c216 0 379.333 -57.833 490 -173.5s166 -285.834 166 -510.501c0 -228 -56 -400.333 -168 -517s-274.667 -175 -488 -175c-212.667 0 -375 58.167 -487 174.5s-168 288.833 -168 517.5z"/>
   <glyph glyph-name="P" horiz-adv-x="1139" unicode="P" d="M858 944c0 110 -25.667 188.667 -77 236c-51.334 47.333 -137.667 71 -259 71h-98v-635h104c112.667 0 195.834 25.667 249.5 77c53.667 51.333 80.5 135 80.5 251zM424 526v-446.001l213 -27v-53h-565v53l159 27v1182l-172 26v53h506c328 0 492 -131.667 492 -395 c0 -137.333 -41.5 -241.666 -124.5 -312.999s-202.167 -107 -357.5 -107h-151z"/>
   <glyph glyph-name="Q" horiz-adv-x="1479" unicode="Q" d="M293 670c0 -215.333 36 -370.999 108 -466.999s184.667 -144 338 -144c152.667 0 265.334 47.667 338 143c72.667 95.333 109 251.333 109 468c0 215.333 -36.5 370.166 -109.5 464.499s-185.5 141.5 -337.5 141.5c-153.333 0 -266 -47.5 -338 -142.5 s-108 -249.5 -108 -463.5zM84 670.001c0 457.333 218.33 685.998 654.997 685.998c214.667 0 377.667 -57.833 489 -173.5s167 -286.5 167 -512.5c0 -327.333 -118.333 -539.666 -355 -636.999l50 -62c58.667 -73.333 108.667 -125.666 150 -156.999s82 -47 122 -47l82 4 v-66c-15.333 -6.66699 -44.166 -14.5 -86.499 -23.5s-79.166 -13.5 -110.499 -13.5c-47.333 0 -89.333 7.83301 -126 23.5s-73.667 40.667 -111 75c-37.334 34.333 -99.667 106.833 -186.999 217.5c-24 -2.66699 -52 -4 -84 -4c-214 0 -376.667 58.5 -488 175.5 s-167 288.5 -167 514.5z"/>
   <glyph glyph-name="R" horiz-adv-x="1366" unicode="R" d="M424 588v-508l203 -27v-53h-555v53l159 27v1182l-172 26v53h579c168 0 292 -28.333 372 -85s120 -147.667 120 -273c0 -89.333 -24.333 -166.5 -73 -231.5s-116 -110.167 -202 -135.5l363 -536l145 -27v-53h-321l-377 588h-241zM931 969 c0 102 -24.8311 174.501 -74.498 217.501s-136.834 64.5 -261.501 64.5h-171v-573h177c119.333 0 204.166 22.167 254.499 66.5s75.5 119.166 75.5 224.499z"/>
   <glyph glyph-name="S" horiz-adv-x="1139" unicode="S" d="M139 361l65.0029 0.000976562l35 -181c24.667 -31.333 67.167 -59 127.5 -83s119.833 -36 178.5 -36c93.333 0 166.166 23.833 218.499 71.5s78.5 113.5 78.5 197.5c0 48 -10.167 87.667 -30.5 119s-47 57.833 -80 79.5s-70.5 40 -112.5 55s-85.167 30.167 -129.5 45.5 s-87.5 32.333 -129.5 51c-42 18.6689 -79.5 42.3359 -112.5 71c-33 28.667 -59.667 64.167 -80 106.5s-30.5 94.5 -30.5 156.5c0 106.667 40 190.334 120 251.001s191 91 333 91c108 0 225.333 -14.333 352 -43v-279h-65l-35 164c-68 49.333 -152 74 -252 74 c-89.333 0 -159.166 -18.167 -209.499 -54.5s-75.5 -86.5 -75.5 -150.5c0 -43.333 10.167 -79.333 30.5 -108s47 -53.167 80 -73.5s70.667 -37.833 113 -52.5s85.666 -29.834 129.999 -45.501s87.666 -33.334 129.999 -53.001s80 -44.667 113 -75s59.667 -67.333 80 -111 s30.5 -97.5 30.5 -161.5c0 -129.333 -39.667 -229.5 -119 -300.5c-79.334 -71 -193.667 -106.5 -343 -106.5c-72 0 -144.333 6.33301 -217 19s-137.334 30 -194.001 52v310z"/>
   <glyph glyph-name="T" horiz-adv-x="1251" unicode="T" d="M315 0v52.999l213 27v1175h-51c-168.667 0 -284 -6.66699 -346 -20l-27 -209h-67v315h1180v-315h-68l-27 209c-20 4.66699 -63.667 8.83398 -131 12.501s-141 5.5 -221 5.5h-49v-1173l213 -27v-53h-619z"/>
   <glyph glyph-name="U" horiz-adv-x="1479" unicode="U" d="M1159 1262l-180 26.001v53h457v-53l-172 -26v-801c0 -160.667 -44.167 -281 -132.5 -361s-216.5 -120 -384.5 -120c-178 0 -311.167 40.167 -399.5 120.5s-132.5 194.166 -132.5 341.499v820l-172 26v53h536v-53l-172 -26v-805c0 -243.333 118.333 -365 355 -365 c128 0 226.167 30.333 294.5 91s102.5 150.667 102.5 270v809z"/>
   <glyph glyph-name="V" horiz-adv-x="1479" unicode="V" d="M1456 1341v-53l-147 -26l-539 -1293h-51l-545 1293l-151 26v53h542v-53l-180 -26l406 -987l405 987l-176 26v53h436z"/>
   <glyph glyph-name="W" horiz-adv-x="1933" unicode="W" d="M1374 -31h-53l-348 924l-357 -924h-53l-444 1293l-117 26v53h512v-53l-197 -26l319 -945l361 930h45l348 -930l304 945l-209 26v53h444v-53l-117 -26z"/>
   <glyph glyph-name="X" horiz-adv-x="1479" unicode="X" d="M317 80l166 -27v-53h-438v53l148 27l456 606l-389 576l-151 26v53h553v-53l-170 -26l278 -414l311 414l-166 26v53h439v-53l-148 -26l-377 -502l461 -680l152 -27v-53h-553v53l170 27l-352 520z"/>
   <glyph glyph-name="Y" horiz-adv-x="1479" unicode="Y" d="M838 528v-448l213 -27v-53h-619v53l213 27v442l-471 740l-151 26v53h567v-53l-180 -26l385 -619l366 619l-170 26v53h436v-53l-147 -26z"/>
   <glyph glyph-name="Z" horiz-adv-x="1251" unicode="Z" d="M98 94l751.999 1161h-250c-164.667 0 -278 -6.66699 -340 -20l-31 -211h-69v317h913v-86l-757 -1171h290c77.333 0 155.833 3.66699 235.5 11c79.668 7.33398 135.835 14.667 168.501 22l59 256h70l-27 -373h-1014v94z"/>
   <glyph glyph-name="bracketleft" horiz-adv-x="682" unicode="[" d="M152 -274v1695h456v-47l-297 -41v-1519l297 -41v-47h-456z"/>
   <glyph glyph-name="backslash" horiz-adv-x="569" unicode="\" d="M0 1350h98l471 -1370h-100z"/>
   <glyph glyph-name="bracketright" horiz-adv-x="682" unicode="]" d="M74 -274v47l297 41v1519l-297 41v47h456v-1695h-456z"/>
   <glyph glyph-name="asciicircum" horiz-adv-x="961" unicode="^" d="M457 1341h49l428 -952h-103l-350 809l-350 -809h-102z"/>
   <glyph glyph-name="underscore" horiz-adv-x="1024" unicode="_" d="M-16 -264v102h1056v-102h-1056z"/>
   <glyph glyph-name="grave" horiz-adv-x="682" unicode="`" d="M473 1119l-354 268v37h213l196 -272v-33h-55z"/>
   <glyph glyph-name="a" horiz-adv-x="909" unicode="a" d="M465 961c102.667 0 178.169 -21 226.502 -63s72.5 -106.333 72.5 -193v-635l117 -25v-45h-258l-19 94c-76 -76 -173 -114 -291 -114c-160.667 0 -241 93.333 -241 280c0 62.667 12.167 114.5 36.5 155.5s63.166 72.333 116.499 94s130.666 33.5 231.999 35.5l141 4v147 c0 64.668 -11.833 112.335 -35.5 143c-23.667 30.667 -60.167 46 -109.5 46c-66.667 0 -127.667 -15.667 -183 -47l-34 -117h-56v205c108 23.333 203 35 285 35zM598.002 479l-131 -4.00195c-89.333 -3.33301 -149.833 -20.666 -181.5 -51.999s-47.5 -83.666 -47.5 -156.999 c0 -117.333 47.667 -176 143 -176c45.333 0 84.5 5.16699 117.5 15.5s66.167 23.5 99.5 39.5v334z"/>
   <glyph glyph-name="b" horiz-adv-x="1024" unicode="b" d="M766 496c0 122.667 -21.333 214 -64 274s-108.667 90 -198 90c-39.333 0 -78.333 -3.5 -117 -10.5s-66.667 -14.5 -84 -22.5v-745c56 -10.667 123 -16 201 -16c92 0 158.667 36 200 108s62 179.333 62 322zM137 1352l-137 24v45h303v-336c0 -36 -2 -102 -6 -198 c66.667 52 150.667 78 252 78c128 0 226.167 -38.833 294.5 -116.5s102.5 -195.167 102.5 -352.5c0 -168.667 -37.5 -296.834 -112.5 -384.501s-183.5 -131.5 -325.5 -131.5c-57.333 0 -120.5 6.33301 -189.5 19s-129.5 29.334 -181.5 50.001v1303z"/>
   <glyph glyph-name="c" horiz-adv-x="909" unicode="c" d="M846 57c-32.667 -24 -77.668 -42.834 -135.001 -56.501s-116 -20.5 -176 -20.5c-304.667 0 -457 165.667 -457 497c0 156.667 38.833 277.167 116.5 361.5s188.834 126.5 333.501 126.5c90 0 188.333 -10.333 295 -31v-262h-55l-43 166 c-55.334 31.333 -121.667 47 -199 47c-178.667 0 -268 -136 -268 -408c0 -141.333 27.167 -242.166 81.5 -302.499s138.5 -90.5 252.5 -90.5c97.333 0 182 11 254 33v-60z"/>
   <glyph glyph-name="d" horiz-adv-x="1024" unicode="d" d="M723 70c-75.333 -60 -163.333 -90 -264 -90c-256.667 0 -385 160.333 -385 481c0 164.667 36.333 289.834 109 375.5c72.667 85.667 179.667 128.5 321 128.5c72 0 145 -7.66699 219 -23c-4 22 -6 77.333 -6 166v244l-158 24v45h324v-1351l116 -25v-45h-264zM254 461 c0 -126.667 21.333 -221.167 64 -283.5s108 -93.5 196 -93.5c75.333 0 143 13 203 39v743c-59.333 11.333 -127 17 -203 17c-173.333 0 -260 -140.667 -260 -422z"/>
   <glyph glyph-name="e" horiz-adv-x="909" unicode="e" d="M260 473v-18c0 -92 10.167 -163.5 30.5 -214.5c20.334 -51 51.667 -89.833 94 -116.5s97.833 -40 166.5 -40c36 0 78.667 3 128 9s90 12.667 122 20v-56c-32 -20.667 -75.5 -38.667 -130.5 -54s-111.167 -23 -168.5 -23c-146 0 -252.833 39.333 -320.5 118 s-101.5 205 -101.5 379c0 164 34.333 286.333 103 367s166.667 121 294 121c240.667 0 361 -136.667 361 -410v-82h-578zM477 885c-69.333 0 -122.5 -28 -159.5 -84s-55.5 -138.667 -55.5 -248h402c0 119.333 -15.333 204.5 -46 255.5s-77.667 76.5 -141 76.5z"/>
   <glyph glyph-name="f" horiz-adv-x="682" unicode="f" d="M225 856l-162 -0.000976562v49l162 39v66c0 138.667 27.5 245.334 82.5 320.001s132.167 112 231.5 112c51.333 0 99 -6.33301 143 -19v-205h-49l-45 123c-22.667 14 -50 21 -82 21c-42 0 -71.667 -18.667 -89 -56s-26 -107.333 -26 -210v-156h250v-84h-250v-778l203 -33 v-45h-508v45l139 33v778z"/>
   <glyph glyph-name="g" horiz-adv-x="1024" unicode="g" d="M870 643c0 -108 -32.335 -189.667 -97.002 -245s-157.667 -83 -279 -83c-54.667 0 -105.334 5 -152 15l-63 -131c2 -11.333 15 -22 39 -32s54 -15 90 -15h278c101.333 0 176.5 -22 225.5 -66s73.5 -104.667 73.5 -182c0 -70 -19.5 -131 -58.5 -183 s-96.167 -92.167 -171.5 -120.5s-166.666 -42.5 -273.999 -42.5c-128 0 -225.5 19.667 -292.5 59s-100.5 95.333 -100.5 168c0 35.333 12 70.166 36 104.499s68 74.5 132 120.5c-38 12.667 -70 34.334 -96 65.001s-39 63.667 -39 99l158 178 c-105.333 49.333 -158 146.333 -158 291c0 102.667 32.5 182 97.5 238s159.5 84 283.5 84c24.668 0 56.335 -2.5 95.001 -7.5c38.668 -5 68.335 -10.833 89 -17.5l221 111l35 -43l-139 -144c44.667 -50 67 -123.667 67 -221zM828.998 -127c0 38 -11.665 67.667 -34.998 89 c-23.335 21.333 -58.668 32 -106 32h-364c-28 -24 -50.833 -54.5 -68.5 -91.5s-26.5 -71.5 -26.5 -103.5c0 -57.333 20.667 -98.5 62 -123.5s104.666 -37.5 189.999 -37.5c111.333 0 197.166 20.667 257.499 62s90.5 99 90.5 173zM496 391 c72.667 0 124.167 20.832 154.5 62.499s45.5 104.834 45.5 189.501c0 88.667 -15.667 151.834 -47 189.5c-31.335 37.667 -81.668 56.5 -151 56.5c-70 0 -121.333 -19 -154 -57s-49 -101 -49 -189s16 -152 48 -192s83 -60 153 -60z"/>
   <glyph glyph-name="h" horiz-adv-x="1024" unicode="h" d="M326 1014c0 -69.333 -2.33203 -119.333 -6.99902 -150c48 27.333 102.5 51 163.5 71s112.5 30 154.5 30c81.333 0 142.666 -23.667 183.999 -71s62 -116 62 -206v-618l114 -25v-45h-405v45l125 25v606c0 114.667 -55.333 172 -166 172 c-62.667 0 -137.667 -9.66699 -225 -29v-749l127 -25v-45h-412v45l119 25v1282l-140 24v45h306v-407z"/>
   <glyph glyph-name="i" horiz-adv-x="569" unicode="i" d="M379 1247c0 -29.333 -10.667 -54.667 -32 -76s-47 -32 -77 -32c-29.333 0 -54.666 10.667 -75.999 32c-21.333 21.3428 -32 46.6758 -32 76c0 30 10.667 55.667 32 77s46.666 32 75.999 32c30 0 55.667 -10.667 77 -32s32 -47 32 -77zM369 69.999l161 -25v-45h-487v45 l160 25v800l-133 25v45h299v-870z"/>
   <glyph glyph-name="j" horiz-adv-x="569" unicode="j" d="M393 1247c0 -29.333 -10.668 -54.667 -32.001 -76s-46.666 -32 -75.999 -32c-30 0 -55.667 10.667 -77 32c-21.333 21.3428 -32 46.6758 -32 76c0 30 10.667 55.667 32 77s47 32 77 32c29.334 0 54.667 -10.667 76 -32s32 -47 32 -77zM382.999 -39.001 c0 -130 -25.1689 -228.667 -75.502 -296s-124.166 -101 -221.499 -101c-41.333 0 -89.666 6 -144.999 18v199h47l27 -109c22 -18.667 49.667 -28 83 -28c39.333 0 69 21 89 63s30 109.667 30 203v960l-141 25v45h307v-979z"/>
   <glyph glyph-name="k" horiz-adv-x="1024" unicode="k" d="M344 453l385 415l-98 27v45h332v-45l-117 -23l-268 -274l344 -530l102 -23v-45h-385v45l86 25l-258 405l-123 -135v-270l100 -25v-45h-385v45l119 25v1282l-139 24v45h305v-968z"/>
   <glyph glyph-name="l" horiz-adv-x="569" unicode="l" d="M367 70l161 -25v-45h-487v45l160 25v1282l-160 24v45h326v-1351z"/>
   <glyph glyph-name="m" horiz-adv-x="1593" unicode="m" d="M326 864c50 28.667 103 52.666 159 71.999s105.333 29 148 29c46 0 88.5 -8.66699 127.5 -26s68.167 -45 87.5 -83c51.333 28.667 111.5 54 180.5 76s126.167 33 171.5 33c160 0 240 -92.333 240 -277v-618l121 -25v-45h-427v45l140 25v600 c0 114.667 -53.333 172 -160 172c-17.333 0 -37.5 -1.33301 -60.5 -4s-46 -5.66699 -69 -9c-23 -3.3457 -45 -7.17871 -66 -11.499c-21 -4.33301 -38.5 -7.83301 -52.5 -10.5c11.333 -36 17 -75.667 17 -119v-618l141 -25v-45h-446v45l139 25v600 c0 55.333 -14.167 97.833 -42.5 127.5s-70.833 44.5 -127.5 44.5c-58.667 0 -131.667 -9.66699 -219 -29v-743l141 -25v-45h-426v45l119 25v800l-119 25v45h275z"/>
   <glyph glyph-name="n" horiz-adv-x="1024" unicode="n" d="M324 864c51.333 29.333 106.001 53.5 164.001 72.5s106.333 28.5 145 28.5c81.333 0 142.666 -23.667 183.999 -71s62 -116 62 -206v-618l114 -25v-45h-405v45l125 25v600c0 55.333 -13.5 98.833 -40.5 130.5s-68.833 47.5 -125.5 47.5c-60 0 -133.667 -9.66699 -221 -29 v-749l127 -25v-45h-406v45l113 25v800l-113 25v45h268z"/>
   <glyph glyph-name="o" horiz-adv-x="1024" unicode="o" d="M946 475c0 -330 -146.667 -495.001 -440 -495.001c-141.333 0 -248 42.333 -320 127s-108 207.334 -108 368.001c0 158.667 36 280 108 364s181.333 126 328 126c142.667 0 250.334 -41.167 323 -123.5c72.667 -82.333 109 -204.5 109 -366.5zM766 474.999 c0 144 -21 248.333 -63 313s-107.667 97 -197 97c-87.333 0 -150.5 -31 -189.5 -93s-58.5 -167.667 -58.5 -317c0 -151.333 19.833 -258.5 59.5 -321.5s102.5 -94.5 188.5 -94.5c88 0 153.333 32.667 196 98s64 171.333 64 318z"/>
   <glyph glyph-name="p" horiz-adv-x="1024" unicode="p" d="M152 870l-106.999 24.999v45h264l2 -55c28 24 65.5 43.333 112.5 58s94.833 22 143.499 22c120 0 212.833 -41.667 278.5 -125s98.5 -203 98.5 -359c0 -159.333 -35.833 -282.666 -107.5 -369.999s-175.167 -131 -310.5 -131c-75.333 0 -147 7.33301 -215 22 c4 -48 6 -85.667 6 -113v-254l164 -24v-47h-448v47l119 24v1235zM764.001 480.999c0 128 -20.832 223.167 -62.499 285.5s-104.834 93.5 -189.501 93.5c-78 0 -143 -11 -195 -33v-751c59.333 -11.333 124.333 -17 195 -17c168 0 252 140.667 252 422z"/>
   <glyph glyph-name="q" horiz-adv-x="1024" unicode="q" d="M813 985l70.001 -0.000976562v-1350l104 -24v-47h-399v47l129 24v261c0 64.667 3.33301 120.334 10 167.001c-71.334 -55.333 -160.667 -83 -268 -83c-256.667 0 -385 162.333 -385 487c0 160.667 36.167 283.834 108.5 369.5c72.333 85.667 178.166 128.5 317.499 128.5 c74.667 0 149 -7.66699 223 -23zM254.001 466.999c0 -127.333 21.1689 -223.001 63.502 -287.001s107.833 -96 196.5 -96c39.333 0 78.166 3.33301 116.499 10s67.166 14.334 86.499 23.001v749c-59.333 11.333 -127 17 -203 17c-173.333 0 -260 -138.667 -260 -416z"/>
   <glyph glyph-name="r" horiz-adv-x="682" unicode="r" d="M664 965v-254h-43l-58 110c-33.334 0 -72.834 -4.5 -118.5 -13.5c-45.667 -9 -85.167 -20.833 -118.5 -35.5v-702l161 -25v-45h-446v45l119 25v800l-119 25v45h274l9 -117c40 33.333 94.167 65.333 162.5 96s122.5 46 162.5 46h15z"/>
   <glyph glyph-name="s" horiz-adv-x="797" unicode="s" d="M723 264c0 -93.333 -29.498 -164.002 -88.498 -212.002s-146.167 -72 -261.5 -72c-46.667 0 -98.167 4.83301 -154.5 14.5s-100.5 20.5 -132.5 32.5v231h45l49 -131c50 -45.333 115 -68 195 -68c129.333 0 194 55.333 194 166c0 81.333 -51 139.333 -153 174l-89 29 c-67.333 22 -116.333 44.333 -147 67s-54.334 50.5 -71.001 83.5s-25 72.833 -25 119.5c0 82.667 28.167 147.834 84.5 195.5c56.333 47.667 132.5 71.5 228.5 71.5c68.667 0 154.667 -10.333 258 -31v-205h-47l-42 109c-35.334 31.333 -91.001 47 -167.001 47 c-54 0 -95.167 -13.333 -123.5 -40s-42.5 -62.667 -42.5 -108c0 -38 12.833 -70 38.5 -96s64.5 -47.667 116.5 -65c98 -33.334 162 -57.667 192 -72.999c30 -15.333 55.5 -34.166 76.5 -56.499s37.333 -47.833 49 -76.5s17.5 -64 17.5 -106z"/>
   <glyph glyph-name="t" horiz-adv-x="569" unicode="t" d="M334 -20c-64 0 -111.833 19 -143.5 57s-47.5 91.333 -47.5 160v659h-123v45l125 39l101 213h63v-213h215v-84h-215v-641c0 -43.333 9.83301 -76 29.5 -98s45.5 -33 77.5 -33c38.667 0 85.667 5.33301 141 16v-65c-23.333 -16 -57 -29.167 -101 -39.5 s-84.667 -15.5 -122 -15.5z"/>
   <glyph glyph-name="u" horiz-adv-x="1024" unicode="u" d="M313 268c0 -114.667 53.333 -172 160 -172c82.667 0 160 10.333 232 31v743l-142 25v45h307v-870l119 -25v-45h-274l-8 76c-47.333 -26 -102 -48.5 -164 -67.5s-114 -28.5 -156 -28.5c-160 0 -240 92 -240 276v614l-120 25v45h286v-672z"/>
   <glyph glyph-name="v" horiz-adv-x="1024" unicode="v" d="M557 -20h-74l-387 890l-96 25v45h438v-45l-149 -27l274 -649l262 651l-149 25v45h348v-45l-90 -21z"/>
   <glyph glyph-name="w" horiz-adv-x="1479" unicode="w" d="M1051 -20h-78l-232 620l-229 -620h-74l-325 890l-111 25v45h447v-45l-156 -27l223 -635l227 613h84l226 -617l213 641l-154 25v45h358v-45l-104 -21z"/>
   <glyph glyph-name="x" horiz-adv-x="1024" unicode="x" d="M999 45v-45h-426v45l125 23l-217 333l-254 -335l129 -21v-45h-338v45l109 16l309 408l-272 401l-111 25v45h426v-45l-125 -27l181 -270l208 272l-129 25v45h338v-45l-108 -21l-264 -342l309 -466z"/>
   <glyph glyph-name="y" horiz-adv-x="1024" unicode="y" d="M199 -442c-52 0 -103.334 6.00098 -154.001 18.001v203h47l33 -96c20.667 -15.333 49.334 -23 86.001 -23c34.667 0 66.667 10 96 30c29.334 20 56.167 49.667 80.5 89s54.833 109.666 91.5 210.999l-358 880l-96 25v45h436v-45l-148 -27l254 -657l246 659l-147 25v45 h350v-45l-98 -21l-367 -933c-43.333 -110 -81 -189 -113 -237s-67.333 -84.333 -106 -109s-83 -37 -133 -37z"/>
   <glyph glyph-name="z" horiz-adv-x="909" unicode="z" d="M55 0v45l516 815h-221c-37.333 0 -73.333 -3.16699 -108 -9.5s-58.667 -14.833 -72 -25.5l-31 -135h-47v250h694v-49l-516 -811h275c38 0 78 4.5 120 13.5s71.667 20.167 89 33.5l51 197h47l-25 -324h-772z"/>
   <glyph glyph-name="braceleft" horiz-adv-x="983" unicode="{" d="M662 -274c-84 0 -148.498 25.668 -193.498 77.001s-67.5 123.666 -67.5 216.999v295c0 78 -17.5 136.5 -52.5 175.5s-89.167 59.833 -162.5 62.5v45c143.333 2.66699 215 81.334 215 236.001v294c0 94 21.667 166.333 65 217s108.666 76 195.999 76h135v-47h-62 c-60.667 0 -103.834 -18.167 -129.501 -54.5s-38.5 -89.833 -38.5 -160.5v-330c0 -63.333 -17.333 -117.833 -52 -163.5s-81.334 -74.834 -140 -87.501v-3c59.334 -14 106.167 -43.5 140.5 -88.5s51.5 -99.833 51.5 -164.5v-334c0 -70.667 12.833 -124.167 38.5 -160.5 c25.668 -36.333 68.835 -54.5 129.5 -54.5h62v-47h-135z"/>
   <glyph glyph-name="bar" horiz-adv-x="410" unicode="|" d="M154 -442v1863h102v-1863h-102z"/>
   <glyph glyph-name="braceright" horiz-adv-x="983" unicode="}" d="M186 -274v47.0029h62c60.667 0 103.834 18.167 129.501 54.5s38.5 89.833 38.5 160.5v334c0 64.667 17 119.5 51 164.5s81 74.5 141 88.5v3c-58.667 12.667 -105.334 42 -140.001 88s-52 100.333 -52 163v330c0 70.667 -12.833 124.167 -38.5 160.5 s-68.834 54.5 -129.5 54.5h-62v47h136c86.667 0 151.667 -25.333 195 -76s65 -123 65 -217v-294c0 -154.667 71.667 -233.334 215 -236.001v-45c-72 -2.66699 -125.833 -23.334 -161.5 -62.001s-53.5 -97.334 -53.5 -176v-295c0 -92.667 -22.5 -164.834 -67.5 -216.501 s-109.167 -77.5 -192.5 -77.5h-136z"/>
   <glyph glyph-name="asciitilde" horiz-adv-x="1108" unicode="~" d="M780 502c-70.667 0 -152.337 40.333 -245.004 121c-49.333 42 -90.166 72.5 -122.499 91.5s-61.166 28.5 -86.499 28.5c-51.333 0 -90 -18.167 -116 -54.5s-43.333 -98.5 -52 -186.5h-101c12 124.667 40.167 213.167 84.5 265.5s105.833 78.5 184.5 78.5 c37.333 0 75.833 -9.66699 115.5 -29s84.5 -50 134.5 -92c57.333 -48 99.833 -80.167 127.5 -96.5s53.167 -24.5 76.5 -24.5c46 0 82 17.5 108 52.5s45.333 98.167 58 189.5h103c-11.333 -86.667 -27.666 -153 -48.999 -199c-21.335 -46 -49.668 -81.667 -84.999 -107 c-35.333 -25.335 -80.333 -38.002 -135 -38z"/>
   <glyph glyph-name="uni00A0" horiz-adv-x="512" unicode=" "/>
   <glyph glyph-name="exclamdown" horiz-adv-x="682" unicode="¡" d="M219 840c0 32.667 11.5 61 34.5 85s51.833 36 86.5 36s63.5 -12 86.5 -36s34.5 -52.333 34.5 -85c0 -34 -11.667 -62.667 -35 -86s-52 -35 -86 -35s-62.667 11.667 -86 35s-35 52 -35 86zM449 -410h-218l62 953h94z"/>
   <glyph glyph-name="cent" horiz-adv-x="1024" unicode="¢" d="M536 186c-138 8.66699 -240.667 54.334 -308 137.001s-101 203 -101 361c0 147.333 35.167 263.166 105.5 347.499c70.333 84.3379 171.5 130.171 303.5 137.5v172h82v-170c90 -4 174.667 -14 254 -30v-262h-55l-43 165c-44 24 -96 39.333 -156 46v-799h23 c97.333 0 182 11 254 33v-60c-23.335 -18.667 -58.668 -35.167 -106 -49.5c-47.333 -14.333 -104.333 -23.833 -171 -28.5v-186h-82v186zM307 684c0 -118.667 18.333 -208.168 55 -268.501s94.667 -98.5 174 -114.5v789c-152.667 -19.333 -229 -154.666 -229 -405.999z"/>
   <glyph glyph-name="sterling" horiz-adv-x="1024" unicode="£" d="M961 154l0.000976562 -154.001h-838v117l72 64c95.333 82.667 143 165.667 143 249c0 31.333 -5.5 63.333 -16.5 96s-23.833 67 -38.5 103h-162v82h127c-44.667 104 -67 202.333 -67 295c0 112 34.833 198.333 104.5 259s173.834 91 312.501 91 c37.333 0 75.666 -2.5 114.999 -7.5s98.666 -16.833 177.999 -35.5v-258h-65l-35 164c-62 35.333 -126.333 53 -193 53c-152.667 0 -229 -88.667 -229 -266c0 -91.334 9.66699 -189.667 29 -295h278v-82h-262c10.667 -72.667 16 -129.334 16 -170.001 c0 -59.333 -12 -112.666 -36 -159.999s-65 -95.666 -123 -144.999h690z"/>
   <glyph glyph-name="currency" horiz-adv-x="1024" unicode="¤" d="M123 676c0 89.333 26.667 168.333 80 237l-107 107l74 74l104 -109c72 54.667 151.333 82 238 82s166 -27.333 238 -82l108 109l72 -72l-109 -109c54.667 -73.333 82 -152.333 82 -237c0 -86.667 -27.333 -166 -82 -238l109 -106l-72 -72l-108 107 c-68.667 -53.333 -148 -80 -238 -80c-88.667 0 -168 26.667 -238 80l-106 -107l-72 72l107 106c-53.333 70 -80 149.333 -80 238zM219 676c0 -51.334 13.167 -99.667 39.5 -145c26.334 -45.333 62.167 -81.333 107.5 -108s94 -40 146 -40c80 0 149.167 28.667 207.5 86 s87.5 126.333 87.5 207s-29 150 -87 208s-127.333 87 -208 87c-51.333 0 -99.5 -13 -144.5 -39s-81 -62 -108 -108s-40.5 -95.333 -40.5 -148z"/>
   <glyph glyph-name="yen" horiz-adv-x="1024" unicode="¥" d="M885 393v-82h-279v-231l172 -27v-53h-536v53l172 27v231h-279v82h279v129l-15 35h-264v82h230l-263 623l-100 26v53h453v-53l-131 -26l239 -619l246 619l-123 26v53h336v-53l-104 -26l-265 -623h232v-82h-267l-12 -29v-135h279z"/>
   <glyph glyph-name="brokenbar" horiz-adv-x="410" unicode="¦" d="M154 801v620h102v-620h-102zM154 -442v622h102v-622h-102z"/>
   <glyph glyph-name="section" horiz-adv-x="1024" unicode="§" d="M842 29c0 -92 -30.998 -162.501 -92.998 -211.501s-151.333 -73.5 -268 -73.5c-52.667 0 -109.167 5.5 -169.5 16.5s-102.833 21.167 -127.5 30.5v232h45l39 -132c20 -18.667 50.833 -34.5 92.5 -47.5s82.5 -19.5 122.5 -19.5c65.333 0 115.833 14.167 151.5 42.5 s53.5 69.5 53.5 123.5c0 33.333 -7.5 62.666 -22.5 87.999s-34.833 48 -59.5 68s-52.834 38.667 -84.501 56s-63.834 34.833 -96.5 52.5c-32.667 17.667 -64.834 36.334 -96.5 56.001c-31.667 19.667 -59.834 42.334 -84.5 68.001c-24.667 25.667 -44.5 55 -59.5 88 s-22.5 71.5 -22.5 115.5c0 64 22 119.167 66 165.5s101 76.5 171 90.5c-72 36.667 -124.333 78.167 -157 124.5s-49 99.5 -49 159.5c0 82.667 28.167 147.834 84.5 195.501s132.5 71.5 228.5 71.5c76.667 0 162.667 -8.33301 258 -25v-211h-47l-33 109 c-16 14 -39.5 25.333 -70.5 34s-66.167 13 -105.5 13c-54.667 0 -96 -13.333 -124 -40s-42 -62.667 -42 -108c0 -32 8 -59.667 24 -83s37.833 -44.333 65.5 -63s86.167 -48.667 175.5 -90c72.667 -33.335 125.667 -63.668 159 -91c33.333 -27.333 59.333 -58.333 78 -93 s28 -74 28 -118c0 -70.667 -22.667 -130.834 -68 -180.501c-45.334 -49.667 -108.667 -83.167 -190 -100.5c61.333 -35.333 106.666 -67.5 135.999 -96.5s52 -61.167 68 -96.5s24 -75.333 24 -120zM719.002 579.999c0 28.667 -6.99902 54.002 -20.999 76.002 s-34.333 42.667 -61 62s-70.334 42.666 -131.001 69.999c-56.667 -2.66699 -103.334 -20 -140 -52c-36.667 -32 -55 -71.333 -55 -118c0 -30.667 6 -56.834 18 -78.501s29 -41.5 51 -59.5s69.333 -47 142 -87c61.333 7.33398 109.5 27.667 144.5 61 c35 33.334 52.5 75.334 52.5 126z"/>
   <glyph glyph-name="dieresis" horiz-adv-x="682" unicode="¨" d="M618 1194c0 -28 -9.33301 -51.833 -28 -71.5s-42 -29.5 -70 -29.5s-51.667 10.333 -71 31s-29 44 -29 70c0 28 9.66699 51.667 29 71s43 29 71 29s51.333 -9.66699 70 -29s28 -43 28 -71zM262 1194c0 -28 -9.33301 -51.833 -28 -71.5s-42 -29.5 -70 -29.5 c-27.333 0 -51 10 -71 30s-30 43.667 -30 71c0 28 10.333 51.667 31 71s44 29 70 29c28 0 51.333 -9.66699 70 -29s28 -43 28 -71z"/>
   <glyph glyph-name="copyright" horiz-adv-x="1556" unicode="©" d="M88 670c0 126 31.166 242.5 93.499 349.5s146.333 190.833 252 251.5s220.5 91 344.5 91c124.667 0 240.334 -30.667 347 -92c106.667 -61.333 190.834 -145.166 252.501 -251.499s92.5 -222.5 92.5 -348.5c0 -123.334 -30.167 -237.834 -90.5 -343.5 c-60.333 -105.667 -144 -189.834 -251 -252.501s-223.833 -94 -350.5 -94c-124 0 -239.333 30.667 -346 92s-190.667 145.333 -252 252s-92 222 -92 346zM157.999 670c0 -111.333 27.832 -215.168 83.499 -311.501s131.334 -172 227.001 -227s198.834 -82.5 309.5 -82.5 c111.333 0 215 27.5 311 82.5s172 130.5 228 226.5s84 200 84 312s-28.333 216.333 -85 313s-132.667 172.334 -228 227.001c-95.334 54.667 -198.667 82 -310 82s-215 -27.833 -311 -83.5s-171.5 -131.667 -226.5 -228s-82.5 -199.833 -82.5 -310.5zM794.998 257.998 c-130 0 -231.832 35.501 -305.499 106.501s-110.5 170.833 -110.5 299.499c0 139.333 35.167 244.333 105.5 315s174.5 106 312.5 106c76.667 0 166 -10 268 -30l4 -187h-49l-19 105c-54.667 34 -121.334 51 -200.001 51c-98 0 -168.333 -28.333 -211 -85 s-64 -147.667 -64 -273c0 -232.667 89.667 -349 269 -349c94 0 165.667 20 215 60l22 119h49l-4 -199c-82.667 -26 -176.667 -39 -282 -39z"/>
   <glyph glyph-name="ordfeminine" horiz-adv-x="565" unicode="ª" d="M281 1362c73.333 0 126.832 -14.832 160.499 -44.499s50.5 -72.167 50.5 -127.5v-352l69 -15v-37h-174l-12 62c-21.333 -21.333 -49.666 -39 -84.999 -53s-70.666 -21 -105.999 -21c-48.667 0 -85.667 14.167 -111 42.5s-38 70.166 -38 125.499 c0 54.667 19.167 96.5 57.5 125.5s103.166 44.5 194.499 46.5l84 2v80c0 74 -32.333 111 -97 111c-41.333 0 -78 -9.66699 -110 -29l-21 -59h-43v122c54.667 14 115 21 181 21zM370.999 1063c-80.667 -2 -128.833 -4.66699 -144.5 -8s-28.667 -9 -39 -17 c-10.334 -8 -18.167 -19.167 -23.5 -33.5s-8 -33.833 -8 -58.5c0 -36 7 -61 21 -75s35.667 -21 65 -21c38.667 0 81.667 13 129 39v174z"/>
   <glyph glyph-name="guillemotleft" horiz-adv-x="1024" unicode="«" d="M117 496l334 356h81l-227 -389l227 -389h-81l-334 356v66zM526 496l335 356h81l-228 -389l228 -389h-81l-335 356v66z"/>
   <glyph glyph-name="logicalnot" horiz-adv-x="1155" unicode="¬" d="M1055 731v-528h-103v426h-850v102h953z"/>
   <glyph glyph-name="uni00AD" horiz-adv-x="682" unicode="­" d="M76 406v153h532v-153h-532z"/>
   <glyph glyph-name="registered" horiz-adv-x="1556" unicode="®" d="M88 670c0 126 31.166 242.5 93.499 349.5s146.333 190.833 252 251.5s220.5 91 344.5 91c124.667 0 240.334 -30.667 347 -92c106.667 -61.333 190.834 -145.166 252.501 -251.499s92.5 -222.5 92.5 -348.5c0 -123.334 -30.167 -237.834 -90.5 -343.5 c-60.333 -105.667 -144 -189.834 -251 -252.501s-223.833 -94 -350.5 -94c-124 0 -239.333 30.667 -346 92s-190.667 145.333 -252 252s-92 222 -92 346zM157.999 670c0 -111.333 27.832 -215.168 83.499 -311.501s131.334 -172 227.001 -227s198.834 -82.5 309.5 -82.5 c111.333 0 215 27.5 311 82.5s172 130.5 228 226.5s84 200 84 312s-28.333 216.333 -85 313s-132.667 172.334 -228 227.001c-95.334 54.667 -198.667 82 -310 82s-215 -27.833 -311 -83.5s-171.5 -131.667 -226.5 -228s-82.5 -199.833 -82.5 -310.5zM667.998 624.998v-289 l114 -17v-43h-346v43l96 17v688l-104 16v41h330c104 0 182.5 -19.167 235.5 -57.5s79.5 -92.833 79.5 -163.5c0 -51.335 -15 -95.668 -45 -133c-30 -37.333 -74.333 -65.333 -133 -84l213 -307l84 -17v-43h-205l-229 349h-90zM931.998 857.998 c0 59.333 -14.332 101.167 -42.999 125.5s-81.334 36.5 -158.001 36.5h-63v-332h67c70.667 0 121.167 12.333 151.5 37s45.5 69 45.5 133z"/>
   <glyph glyph-name="overscore" horiz-adv-x="1024" unicode="¯" d="M1042 1452h-1059v94h1059v-94z"/>
   <glyph glyph-name="degree" horiz-adv-x="819" unicode="°" d="M98 1051c0 55.333 13.668 107 41.001 155s65.166 86 113.499 114c48.334 28 100.167 42 155.5 42s107 -13.833 155 -41.5s86 -65.5 114 -113.5s42 -100 42 -156s-14.167 -108.167 -42.5 -156.5s-66.5 -86 -114.5 -113s-99.333 -40.5 -154 -40.5 c-86.667 0 -160 30 -220 90s-90 133.333 -90 220zM200.001 1051c0 -59.334 20.5 -109.168 61.5 -149.501s89.833 -60.5 146.5 -60.5c58.667 0 108.167 20.333 148.5 61c40.333 40.668 60.5 90.335 60.5 149.001c0 59.333 -20.167 109.333 -60.5 150 c-40.334 40.667 -89.834 61 -148.5 61c-56.667 0 -105.5 -20.167 -146.5 -60.5s-61.5 -90.5 -61.5 -150.5z"/>
   <glyph glyph-name="plusminus" horiz-adv-x="1124" unicode="±" d="M612 629v-426h-103v426h-424v102h424v426h103v-426h426v-102h-426zM1038 102v-102h-953v102h953z"/>
   <glyph glyph-name="twosuperior" horiz-adv-x="614" unicode="²" d="M567 535l-498.999 0.000976562v96l110 100c66.667 60.668 115.167 109.835 145.5 147.5c30.333 37.667 52 77 65 118s19.5 88.5 19.5 142.5c0 95.333 -44 143 -132 143c-40.667 0 -78.667 -11 -114 -33l-21 -98h-55v172c73.333 18 136.666 27 189.999 27 c89.333 0 157.5 -18.5 204.5 -55.5s70.5 -88.833 70.5 -155.5c0 -64.667 -15.167 -122.334 -45.5 -173.001s-85.833 -111 -166.5 -181l-159 -142h387v-108z"/>
   <glyph glyph-name="threesuperior" horiz-adv-x="614" unicode="³" d="M575 754c0 -70.667 -28.332 -127 -84.999 -169s-132 -63 -226 -63c-70 0 -141.667 9 -215 27l-6 186h55l27 -112c14.667 -8.66699 34 -16.334 58 -23.001s48.333 -10 73 -10c64 0 109.333 12.167 136 36.5s40 68.833 40 133.5c0 52 -12 90.5 -36 115.5 s-66 39.167 -126 42.5l-86 6v65l86 4c45.333 2 77.5 14.5 96.5 37.5s28.5 60.5 28.5 112.5c0 51.333 -9.83301 87.333 -29.5 108s-56.167 31 -109.5 31c-42.667 0 -80.334 -9.66699 -113.001 -29l-20 -102h-55v172c74 18 136.667 27 188 27 c88 0 157.167 -17.167 207.5 -51.5s75.5 -83.5 75.5 -147.5c0 -50 -16.333 -92.667 -49 -128c-32.667 -35.335 -79.334 -57.668 -140 -66.999c150 -16.667 225 -84 225 -202z"/>
   <glyph glyph-name="acute" horiz-adv-x="682" unicode="´" d="M156 1119v33l196 272h213v-37l-354 -268h-55z"/>
   <glyph glyph-name="mu1" horiz-adv-x="1180" unicode="µ" d="M816 121c-60.667 -55.333 -111.333 -92.666 -152 -111.999s-80 -29 -118 -29c-79.333 0 -139.333 26 -180 78c0 -192 -11.333 -356.667 -34 -494h-178v45c14 44.667 26.167 112.667 36.5 204s15.5 176.666 15.5 255.999v801l-140 25v45h306v-652 c0 -58 18.5 -104.5 55.5 -139.5s87.5 -52.5 151.5 -52.5c34 0 72.167 8 114.5 24s81.5 37 117.5 63v687l-142 25v45h307v-870l137 -25v-45h-278z"/>
   <glyph glyph-name="paragraph" horiz-adv-x="928" unicode="¶" d="M811 1266l-0.000976562 -1524h-94v1524h-170v-1524h-94l2 823c-139.333 0 -248.666 35.167 -327.999 105.5s-119 167.833 -119 292.5c0 122 37.333 215.5 112 280.5s182 97.5 322 97.5h463v-53z"/>
   <glyph glyph-name="middot" horiz-adv-x="682" unicode="·" d="M462 678c0 -34 -11.667 -62.667 -35 -86s-52 -35 -86 -35s-62.667 11.667 -86 35s-35 52 -35 86c0 32.667 11.5 61 34.5 85s51.833 36 86.5 36s63.5 -12 86.5 -36s34.5 -52.333 34.5 -85z"/>
   <glyph glyph-name="cedilla" horiz-adv-x="682" unicode="¸" d="M528 -234c0 -61.333 -23.167 -110.334 -69.5 -147.001s-105.5 -55 -177.5 -55c-50.667 0 -96.667 7.33301 -138 22v74c14.667 -4.66699 34.667 -8.5 60 -11.5s45.333 -4.5 60 -4.5c40 0 69 9.83301 87 29.5s27 44.5 27 74.5c0 32.667 -13.333 59.334 -40 80.001 s-64 33 -112 37l41 153h86l-18 -82c60.667 -6 108.167 -23.667 142.5 -53s51.5 -68.333 51.5 -117z"/>
   <glyph glyph-name="onesuperior" horiz-adv-x="614" unicode="¹" d="M375 598l166 -14v-49h-475v49l165 14v625l-161 -58v47l233 134h72v-748z"/>
   <glyph glyph-name="ordmasculine" horiz-adv-x="635" unicode="º" d="M598 1069c0 -96.667 -24.6699 -170.667 -74.0029 -222s-119.666 -77 -210.999 -77c-86 0 -153.5 25.833 -202.5 77.5s-73.5 125.5 -73.5 221.5s24.833 168.833 74.5 218.5s118.834 74.5 207.501 74.5s157.334 -26 206.001 -78s73 -123.667 73 -215zM468.997 1069 c0 86 -12.335 146.834 -37.002 182.501s-64.334 53.5 -119.001 53.5c-51.333 0 -88.666 -17 -111.999 -51s-35 -95.667 -35 -185c0 -90 11.833 -152.5 35.5 -187.5s60.834 -52.5 111.501 -52.5c54.667 0 94.334 18.167 119.001 54.5s37 98.166 37 185.499z"/>
   <glyph glyph-name="guillemotright" horiz-adv-x="1024" unicode="»" d="M907 430l-334 -356h-81l227 389l-227 389h81l334 -356v-66zM498 430l-335 -356h-81l228 389l-228 389h81l335 -356v-66z"/>
   <glyph glyph-name="onequarter" horiz-adv-x="1536" unicode="¼" d="M336 0h-102l964 1341h100zM375 598l166 -14v-49h-475v49l165 14v625l-161 -58v47l233 134h72v-748zM1293 160v-159h-137v159h-361v97l391 550h107v-544h101v-103h-101zM1156 652h-2l-277 -389h279v389z"/>
   <glyph glyph-name="onehalf" horiz-adv-x="1536" unicode="½" d="M336 0h-102l964 1341h100zM375 598l166 -14v-49h-475v49l165 14v625l-161 -58v47l233 134h72v-748zM1458 1h-498.999v96l110 100c66.667 60.667 115.167 109.834 145.5 147.501s52 77 65 118s19.5 88.5 19.5 142.5c0 95.333 -44 143 -132 143 c-40.667 0 -78.667 -11 -114 -33l-21 -98h-55v172c73.335 18 136.668 27 189.999 27c89.333 0 157.5 -18.5 204.5 -55.5s70.5 -88.833 70.5 -155.5c0 -64.667 -15.167 -122.334 -45.5 -173.001s-85.833 -111 -166.5 -181l-159 -142h387v-108z"/>
   <glyph glyph-name="threequarters" horiz-adv-x="1536" unicode="¾" d="M336 0h-102l964 1341h100zM606 754c0 -70.667 -28.332 -127 -84.999 -169s-132 -63 -226 -63c-70 0 -141.667 9 -215 27l-6 186h55l27 -112c14.667 -8.66699 34 -16.334 58 -23.001s48.333 -10 73 -10c64 0 109.333 12.167 136 36.5s40 68.833 40 133.5 c0 52 -12 90.5 -36 115.5s-66 39.167 -126 42.5l-86 6v65l86 4c45.333 2 77.5 14.5 96.5 37.5s28.5 60.5 28.5 112.5c0 51.333 -9.83301 87.333 -29.5 108s-56.167 31 -109.5 31c-42.667 0 -80.334 -9.66699 -113.001 -29l-20 -102h-55v172c74 18 136.667 27 188 27 c88 0 157.167 -17.167 207.5 -51.5s75.5 -83.5 75.5 -147.5c0 -50 -16.333 -92.667 -49 -128c-32.667 -35.335 -79.334 -57.668 -140 -66.999c150 -16.667 225 -84 225 -202zM1264 160v-159h-137v159h-361v97l391 550h107v-544h101v-103h-101zM1127 652h-2l-277 -389h279 v389z"/>
   <glyph glyph-name="questiondown" horiz-adv-x="909" unicode="¿" d="M469 582h79.999l26 -334l-143 -29c-57.333 -11.333 -99 -40.333 -125 -87s-39 -114.667 -39 -204c0 -98.667 18 -168 54 -208s98 -60 186 -60c74.667 0 139.334 16.333 194 49l35 164h66v-254c-98.667 -28.667 -197 -43 -295 -43c-282.667 0 -424 113.333 -424 340 c0 107.333 26.833 194.333 80.5 261s131.834 110.667 234.501 132l58 13zM378.999 840c0 32.667 11.5 61 34.5 85s51.833 36 86.5 36c33.333 0 61.833 -11.833 85.5 -35.5s35.5 -52.167 35.5 -85.5c0 -34.667 -12 -63.5 -36 -86.5s-52.333 -34.5 -85 -34.5 c-34 0 -62.667 11.667 -86 35s-35 52 -35 86z"/>
   <glyph glyph-name="Agrave" horiz-adv-x="1479" unicode="À" d="M461 53v-53h-441v53l152 27l457 1272h190l475 -1272l170 -27v-53h-567v53l180 27l-133 387h-528l-135 -387zM676 1208l-230 -651h467zM797 1453l-354 268v37h213l196 -272v-33h-55z"/>
   <glyph glyph-name="Aacute" horiz-adv-x="1479" unicode="Á" d="M461 53v-53h-441v53l152 27l457 1272h190l475 -1272l170 -27v-53h-567v53l180 27l-133 387h-528l-135 -387zM676 1208l-230 -651h467zM611 1453v33l196 272h213v-37l-354 -268h-55z"/>
   <glyph glyph-name="Acircumflex" horiz-adv-x="1479" unicode="Â" d="M461 53v-53h-441v53l152 27l457 1272h190l475 -1272l170 -27v-53h-567v53l180 27l-133 387h-528l-135 -387zM676 1208l-230 -651h467zM395 1453v33l218 273h213l217 -273v-33h-56l-268 183l-268 -183h-56z"/>
   <glyph glyph-name="Atilde" horiz-adv-x="1479" unicode="Ã" d="M461 53v-53h-441v53l152 27l457 1272h190l475 -1272l170 -27v-53h-567v53l180 27l-133 387h-528l-135 -387zM676 1208l-230 -651h467zM846 1452c-32 0 -61.498 7.16699 -88.498 21.5s-52.5 30.333 -76.5 48s-47.167 33.667 -69.5 48s-44.5 21.5 -66.5 21.5 c-21.333 0 -38.5 -4 -51.5 -12s-23.167 -19.5 -30.5 -34.5s-13.333 -39.167 -18 -72.5h-52c10 161.333 75 242 195 242c32 0 61.5 -7.16699 88.5 -21.5s52.667 -30.333 77 -48s47.666 -33.667 69.999 -48s44.166 -21.5 65.499 -21.5c28.667 0 51 8.33301 67 25 s27 47.667 33 93h52c-10 -160.667 -75 -241 -195 -241z"/>
   <glyph glyph-name="Adieresis" horiz-adv-x="1479" unicode="Ä" d="M461 53v-53h-441v53l152 27l457 1272h190l475 -1272l170 -27v-53h-567v53l180 27l-133 387h-528l-135 -387zM676 1208l-230 -651h467zM1003 1559c0 -28 -9.33301 -51.833 -28 -71.5s-42 -29.5 -70 -29.5s-51.667 10.333 -71 31s-29 44 -29 70c0 28 9.66699 51.667 29 71 s43 29 71 29s51.333 -9.66699 70 -29s28 -43 28 -71zM647 1559c0 -28 -9.33301 -51.833 -28 -71.5s-42 -29.5 -70 -29.5c-27.334 0 -51.001 10 -71 30c-20 20 -30 43.667 -30 71c0 28 10.333 51.667 31 71s44 29 70 29c28 0 51.333 -9.66699 70 -29s28 -43 28 -71z"/>
   <glyph glyph-name="Aring" horiz-adv-x="1479" unicode="Å" d="M461 53v-53h-441v53l152 27l457 1272h190l475 -1272l170 -27v-53h-567v53l180 27l-133 387h-528l-135 -387zM676 1208l-230 -651h467zM925 1476c0 -56 -19.833 -103.833 -59.5 -143.5s-87.5 -59.5 -143.5 -59.5s-103.833 19.833 -143.5 59.5s-59.5 87.5 -59.5 143.5 s19.833 103.833 59.5 143.5s87.5 59.5 143.5 59.5s103.833 -19.833 143.5 -59.5s59.5 -87.5 59.5 -143.5zM845 1476c0 34 -12 63 -36 87s-53 36 -87 36s-63 -12 -87 -36s-36 -53 -36 -87c0 -34.6719 12.333 -63.8389 37 -87.5c24.668 -23.667 53.335 -35.5 86 -35.5 c32 0 60.5 11.667 85.5 35c25 23.3389 37.5 52.6719 37.5 88z"/>
   <glyph glyph-name="AE" horiz-adv-x="1821" unicode="Æ" d="M731 53l152 27v387h-412l-207 -387l158 -27v-53h-402v53l136 27l647 1190l-164 18v53h995v-321h-65l-33 217c-74.667 9.33301 -182.667 14 -324 14h-137v-524h281l30 160h64v-412h-64l-30 162h-281v-547h182c172 0 284.667 5.33301 338 16l58 248h65l-18 -354h-969v53z M883 557v674l-363 -674h363z"/>
   <glyph glyph-name="Ccedilla" horiz-adv-x="1366" unicode="Ç" d="M774 -20c-217.333 0 -386.663 59.168 -507.996 177.501s-182 284.166 -182 497.499c0 230.667 58.333 405.167 175 523.5s289.667 177.5 519 177.5c139.333 0 289 -17 449 -51l6 -293h-66l-30 174c-46.6689 28.667 -100.836 50.834 -162.501 66.501 c-61.667 15.667 -124.5 23.5 -188.5 23.5c-171.333 0 -296.333 -50.333 -375 -151s-118 -256.667 -118 -468c0 -194.667 41.167 -343.334 123.5 -446.001s202.166 -154 359.499 -154c76 0 147.667 9.16699 215 27.5c67.334 18.333 120.667 42.833 159.999 73.5l37 200h65 l-6 -315c-146.667 -42 -304.334 -63 -473.001 -63zM957.003 -233.999c0 -61.333 -23.167 -110.334 -69.5 -147.001s-105.5 -55 -177.5 -55c-50.667 0 -96.667 7.33301 -138 22v74c14.667 -4.66699 34.667 -8.5 60 -11.5s45.333 -4.5 60 -4.5c40 0 69 9.83301 87 29.5 s27 44.5 27 74.5c0 32.667 -13.333 59.334 -40 80.001s-64 33 -112 37l41 153h86l-18 -82c60.667 -6 108.167 -23.667 142.5 -53s51.5 -68.333 51.5 -117z"/>
   <glyph glyph-name="Egrave" horiz-adv-x="1251" unicode="È" d="M59 53l172 27v1182l-172 26v53h1006v-321h-66l-32 217c-74.667 9.33301 -182.667 14 -324 14h-219v-524h362l31 160h64v-412h-64l-31 162h-362v-547h264c172 0 284.667 5.33301 338 16l57 248h66l-19 -354h-1071v53zM758 1453l-354 268v37h213l196 -272v-33h-55z"/>
   <glyph glyph-name="Eacute" horiz-adv-x="1251" unicode="É" d="M59 53l172 27v1182l-172 26v53h1006v-321h-66l-32 217c-74.667 9.33301 -182.667 14 -324 14h-219v-524h362l31 160h64v-412h-64l-31 162h-362v-547h264c172 0 284.667 5.33301 338 16l57 248h66l-19 -354h-1071v53zM470 1453v33l196 272h213v-37l-354 -268h-55z"/>
   <glyph glyph-name="Ecircumflex" horiz-adv-x="1251" unicode="Ê" d="M59 53l172 27v1182l-172 26v53h1006v-321h-66l-32 217c-74.667 9.33301 -182.667 14 -324 14h-219v-524h362l31 160h64v-412h-64l-31 162h-362v-547h264c172 0 284.667 5.33301 338 16l57 248h66l-19 -354h-1071v53zM303 1453v33l218 273h213l217 -273v-33h-56l-268 183 l-268 -183h-56z"/>
   <glyph glyph-name="Edieresis" horiz-adv-x="1251" unicode="Ë" d="M59 53l172 27v1182l-172 26v53h1006v-321h-66l-32 217c-74.667 9.33301 -182.667 14 -324 14h-219v-524h362l31 160h64v-412h-64l-31 162h-362v-547h264c172 0 284.667 5.33301 338 16l57 248h66l-19 -354h-1071v53zM913 1559c0 -28 -9.33301 -51.833 -28 -71.5 s-42 -29.5 -70 -29.5s-51.667 10.333 -71 31s-29 44 -29 70c0 28 9.66699 51.667 29 71s43 29 71 29s51.333 -9.66699 70 -29s28 -43 28 -71zM557 1559c0 -28 -9.33301 -51.833 -28 -71.5s-42 -29.5 -70 -29.5c-27.333 0 -51 10 -71 30s-30 43.667 -30 71 c0 28 10.333 51.667 31 71s44 29 70 29c28 0 51.333 -9.66699 70 -29s28 -43 28 -71z"/>
   <glyph glyph-name="Igrave" horiz-adv-x="682" unicode="Ì" d="M438 80l172 -27v-53h-536v53l172 27v1182l-172 26v53h536v-53l-172 -26v-1182zM408 1453l-354 268v37h213l196 -272v-33h-55z"/>
   <glyph glyph-name="Iacute" horiz-adv-x="682" unicode="Í" d="M438 80l172 -27v-53h-536v53l172 27v1182l-172 26v53h536v-53l-172 -26v-1182zM209 1453v33l196 272h213v-37l-354 -268h-55z"/>
   <glyph glyph-name="Icircumflex" horiz-adv-x="682" unicode="Î" d="M438 80l172 -27v-53h-536v53l172 27v1182l-172 26v53h536v-53l-172 -26v-1182zM18 1453v33l218 273h213l217 -273v-33h-56l-268 183l-268 -183h-56z"/>
   <glyph glyph-name="Idieresis" horiz-adv-x="682" unicode="Ï" d="M438 80l172 -27v-53h-536v53l172 27v1182l-172 26v53h536v-53l-172 -26v-1182zM618 1559c0 -28 -9.33301 -51.833 -28 -71.5s-42 -29.5 -70 -29.5s-51.667 10.333 -71 31s-29 44 -29 70c0 28 9.66699 51.667 29 71s43 29 71 29s51.333 -9.66699 70 -29s28 -43 28 -71z M262 1559c0 -28 -9.33301 -51.833 -28 -71.5s-42 -29.5 -70 -29.5c-27.333 0 -51 10 -71 30s-30 43.667 -30 71c0 28 10.333 51.667 31 71s44 29 70 29c28 0 51.333 -9.66699 70 -29s28 -43 28 -71z"/>
   <glyph glyph-name="Eth" horiz-adv-x="1479" unicode="Ð" d="M631 1341c252.667 0 443.5 -56.5 572.5 -169.5s193.5 -277.5 193.5 -493.5c0 -230 -55 -401.167 -165 -513.5s-276.333 -168.5 -499 -168.5l-502 4h-172v53l172 27v549h-178v82h178v551l-172 26v53h572zM801 711v-82h-377v-535c80 -5.33301 175 -8 285 -8 c164.667 0 285.667 46.833 363 140.5s116 241.5 116 443.5c0 192.667 -49.5 337.667 -148.5 435s-250.167 146 -453.5 146h-162v-540h377z"/>
   <glyph glyph-name="Ntilde" horiz-adv-x="1479" unicode="Ñ" d="M1155 1262l-180 26v53h457v-53l-172 -26v-1262h-97l-827 1206v-1126l180 -27v-53h-457v53l172 27v1182l-172 26v53h406l690 -993v914zM879 1452c-32 0 -61.498 7.16699 -88.498 21.5s-52.5 30.333 -76.5 48s-47.167 33.667 -69.5 48s-44.5 21.5 -66.5 21.5 c-21.333 0 -38.5 -4 -51.5 -12s-23.167 -19.5 -30.5 -34.5s-13.333 -39.167 -18 -72.5h-52c10 161.333 75 242 195 242c32 0 61.5 -7.16699 88.5 -21.5s52.667 -30.333 77 -48s47.666 -33.667 69.999 -48s44.166 -21.5 65.499 -21.5c28.667 0 51 8.33301 67 25 s27 47.667 33 93h52c-10 -160.667 -75 -241 -195 -241z"/>
   <glyph glyph-name="Ograve" horiz-adv-x="1479" unicode="Ò" d="M293 672c0 -215.333 36 -371.333 108 -468s184.667 -145 338 -145c152.667 0 265.334 48.333 338 145c72.667 96.667 109 252.667 109 468c0 214 -36.167 368.167 -108.5 462.5c-72.334 94.333 -185.167 141.5 -338.5 141.5c-154 0 -266.833 -47.167 -338.5 -141.5 s-107.5 -248.5 -107.5 -462.5zM84 672c0 456 218.333 684.001 655 684.001c216 0 379.333 -57.833 490 -173.5s166 -285.834 166 -510.501c0 -228 -56 -400.333 -168 -517s-274.667 -175 -488 -175c-212.667 0 -375 58.167 -487 174.5s-168 288.833 -168 517.5zM840 1453 l-354 268v37h213l196 -272v-33h-55z"/>
   <glyph glyph-name="Oacute" horiz-adv-x="1479" unicode="Ó" d="M293 672c0 -215.333 36 -371.333 108 -468s184.667 -145 338 -145c152.667 0 265.334 48.333 338 145c72.667 96.667 109 252.667 109 468c0 214 -36.167 368.167 -108.5 462.5c-72.334 94.333 -185.167 141.5 -338.5 141.5c-154 0 -266.833 -47.167 -338.5 -141.5 s-107.5 -248.5 -107.5 -462.5zM84 672c0 456 218.333 684.001 655 684.001c216 0 379.333 -57.833 490 -173.5s166 -285.834 166 -510.501c0 -228 -56 -400.333 -168 -517s-274.667 -175 -488 -175c-212.667 0 -375 58.167 -487 174.5s-168 288.833 -168 517.5zM627 1453v33 l196 272h213v-37l-354 -268h-55z"/>
   <glyph glyph-name="Ocircumflex" horiz-adv-x="1479" unicode="Ô" d="M293 672c0 -215.333 36 -371.333 108 -468s184.667 -145 338 -145c152.667 0 265.334 48.333 338 145c72.667 96.667 109 252.667 109 468c0 214 -36.167 368.167 -108.5 462.5c-72.334 94.333 -185.167 141.5 -338.5 141.5c-154 0 -266.833 -47.167 -338.5 -141.5 s-107.5 -248.5 -107.5 -462.5zM84 672c0 456 218.333 684.001 655 684.001c216 0 379.333 -57.833 490 -173.5s166 -285.834 166 -510.501c0 -228 -56 -400.333 -168 -517s-274.667 -175 -488 -175c-212.667 0 -375 58.167 -487 174.5s-168 288.833 -168 517.5zM417 1453v33 l218 273h213l217 -273v-33h-56l-268 183l-268 -183h-56z"/>
   <glyph glyph-name="Otilde" horiz-adv-x="1479" unicode="Õ" d="M293 672c0 -215.333 36 -371.333 108 -468s184.667 -145 338 -145c152.667 0 265.334 48.333 338 145c72.667 96.667 109 252.667 109 468c0 214 -36.167 368.167 -108.5 462.5c-72.334 94.333 -185.167 141.5 -338.5 141.5c-154 0 -266.833 -47.167 -338.5 -141.5 s-107.5 -248.5 -107.5 -462.5zM84 672c0 456 218.333 684.001 655 684.001c216 0 379.333 -57.833 490 -173.5s166 -285.834 166 -510.501c0 -228 -56 -400.333 -168 -517s-274.667 -175 -488 -175c-212.667 0 -375 58.167 -487 174.5s-168 288.833 -168 517.5zM867 1452 c-32 0 -61.498 7.16699 -88.498 21.5s-52.5 30.333 -76.5 48s-47.167 33.667 -69.5 48s-44.5 21.5 -66.5 21.5c-21.333 0 -38.5 -4 -51.5 -12s-23.167 -19.5 -30.5 -34.5s-13.333 -39.167 -18 -72.5h-52c10 161.333 75 242 195 242c32 0 61.5 -7.16699 88.5 -21.5 s52.667 -30.333 77 -48s47.666 -33.667 69.999 -48s44.166 -21.5 65.499 -21.5c28.667 0 51 8.33301 67 25s27 47.667 33 93h52c-10 -160.667 -75 -241 -195 -241z"/>
   <glyph glyph-name="Odieresis" horiz-adv-x="1479" unicode="Ö" d="M293 672c0 -215.333 36 -371.333 108 -468s184.667 -145 338 -145c152.667 0 265.334 48.333 338 145c72.667 96.667 109 252.667 109 468c0 214 -36.167 368.167 -108.5 462.5c-72.334 94.333 -185.167 141.5 -338.5 141.5c-154 0 -266.833 -47.167 -338.5 -141.5 s-107.5 -248.5 -107.5 -462.5zM84 672c0 456 218.333 684.001 655 684.001c216 0 379.333 -57.833 490 -173.5s166 -285.834 166 -510.501c0 -228 -56 -400.333 -168 -517s-274.667 -175 -488 -175c-212.667 0 -375 58.167 -487 174.5s-168 288.833 -168 517.5zM1013 1559 c0 -28 -9.33301 -51.833 -28 -71.5s-42 -29.5 -70 -29.5s-51.667 10.333 -71 31s-29 44 -29 70c0 28 9.66699 51.667 29 71s43 29 71 29s51.333 -9.66699 70 -29s28 -43 28 -71zM657 1559c0 -28 -9.33301 -51.833 -28 -71.5s-42 -29.5 -70 -29.5c-27.333 0 -51 10 -71 30 s-30 43.667 -30 71c0 28 10.333 51.667 31 71s44 29 70 29c28 0 51.333 -9.66699 70 -29s28 -43 28 -71z"/>
   <glyph glyph-name="multiply" horiz-adv-x="1155" unicode="×" d="M578 608l-345 -344l-71 72l344 346l-344 342l74 74l342 -344l346 344l71 -72l-344 -344l344 -346l-71 -72z"/>
   <glyph glyph-name="Oslash" horiz-adv-x="1479" unicode="Ø" d="M84 672c0 456 218.334 684 655.001 684c172.667 0 312 -37.667 418 -113l123 148h115l-170 -205c113.333 -118.667 170 -290 170 -514c0 -228 -56 -400.333 -168 -517s-274.667 -175 -488 -175c-172.667 0 -310.334 36.667 -413.001 110l-121 -145h-119l170 205 c-114.667 117.333 -172 291.333 -172 522zM293.001 672c0 -168.667 21.667 -301.333 65 -398l715 865c-72 91.333 -183.333 137 -334 137c-154 0 -266.833 -47.167 -338.5 -141.5s-107.5 -248.5 -107.5 -462.5zM1186 672.001c0 162.667 -21.334 291.667 -64.001 387 l-712 -866c70.667 -89.333 180.334 -134 329.001 -134c152.667 0 265.334 48.333 338 145c72.667 96.667 109 252.667 109 468z"/>
   <glyph glyph-name="Ugrave" horiz-adv-x="1479" unicode="Ù" d="M1159 1262l-180 26.001v53h457v-53l-172 -26v-801c0 -160.667 -44.167 -281 -132.5 -361s-216.5 -120 -384.5 -120c-178 0 -311.167 40.167 -399.5 120.5s-132.5 194.166 -132.5 341.499v820l-172 26v53h536v-53l-172 -26v-805c0 -243.333 118.333 -365 355 -365 c128 0 226.167 30.333 294.5 91s102.5 150.667 102.5 270v809zM844 1453l-354 268v37h213l196 -272v-33h-55z"/>
   <glyph glyph-name="Uacute" horiz-adv-x="1479" unicode="Ú" d="M1159 1262l-180 26.001v53h457v-53l-172 -26v-801c0 -160.667 -44.167 -281 -132.5 -361s-216.5 -120 -384.5 -120c-178 0 -311.167 40.167 -399.5 120.5s-132.5 194.166 -132.5 341.499v820l-172 26v53h536v-53l-172 -26v-805c0 -243.333 118.333 -365 355 -365 c128 0 226.167 30.333 294.5 91s102.5 150.667 102.5 270v809zM652 1453v33l196 272h213v-37l-354 -268h-55z"/>
   <glyph glyph-name="Ucircumflex" horiz-adv-x="1479" unicode="Û" d="M1159 1262l-180 26.001v53h457v-53l-172 -26v-801c0 -160.667 -44.167 -281 -132.5 -361s-216.5 -120 -384.5 -120c-178 0 -311.167 40.167 -399.5 120.5s-132.5 194.166 -132.5 341.499v820l-172 26v53h536v-53l-172 -26v-805c0 -243.333 118.333 -365 355 -365 c128 0 226.167 30.333 294.5 91s102.5 150.667 102.5 270v809zM444 1453v33l218 273h213l217 -273v-33h-56l-268 183l-268 -183h-56z"/>
   <glyph glyph-name="Udieresis" horiz-adv-x="1479" unicode="Ü" d="M1159 1262l-180 26.001v53h457v-53l-172 -26v-801c0 -160.667 -44.167 -281 -132.5 -361s-216.5 -120 -384.5 -120c-178 0 -311.167 40.167 -399.5 120.5s-132.5 194.166 -132.5 341.499v820l-172 26v53h536v-53l-172 -26v-805c0 -243.333 118.333 -365 355 -365 c128 0 226.167 30.333 294.5 91s102.5 150.667 102.5 270v809zM1017 1559c0 -28 -9.33301 -51.833 -28 -71.5s-42 -29.5 -70 -29.5s-51.667 10.333 -71 31s-29 44 -29 70c0 28 9.66699 51.667 29 71s43 29 71 29s51.333 -9.66699 70 -29s28 -43 28 -71zM661 1559 c0 -28 -9.33301 -51.833 -28 -71.5s-42 -29.5 -70 -29.5c-27.333 0 -51 10 -71 30s-30 43.667 -30 71c0 28 10.333 51.667 31 71s44 29 70 29c28 0 51.333 -9.66699 70 -29s28 -43 28 -71z"/>
   <glyph glyph-name="Yacute" horiz-adv-x="1479" unicode="Ý" d="M838 528v-448l213 -27v-53h-619v53l213 27v442l-471 740l-151 26v53h567v-53l-180 -26l385 -619l366 619l-170 26v53h436v-53l-147 -26zM641 1453v33l196 272h213v-37l-354 -268h-55z"/>
   <glyph glyph-name="Thorn" horiz-adv-x="1139" unicode="Þ" d="M858 686c0 113.333 -26.5 195 -79.5 245s-138.5 75 -256.5 75h-98v-660h104c110.667 0 193.334 27.167 248 81.5c54.667 54.333 82 140.5 82 258.5zM565 1083c328 0 492 -131.668 492 -395.001c0 -137.333 -41.5 -241.666 -124.5 -312.999s-202.167 -107 -357.5 -107 h-151v-188l172 -27v-53h-524v53l159 27v1182l-159 26v53h524v-53l-172 -26v-179h141z"/>
   <glyph glyph-name="germandbls" horiz-adv-x="1024" unicode="ß" d="M877 997c-30 -3.34863 -60.833 -7.18164 -92.5 -11.5c-31.667 -4.33301 -60.167 -12.5 -85.5 -24.5c-25.3359 -12 -46.1689 -29 -62.5 -51c-16.333 -22 -24.5 -52.333 -24.5 -91c0 -48.667 13.167 -91.5 39.5 -128.5s69.833 -76.833 130.5 -119.5 c57.333 -40.667 100 -86 128 -136s42 -109.667 42 -179c0 -91.333 -25.5 -160.166 -76.5 -206.499s-125.833 -69.5 -224.5 -69.5c-41.333 0 -84.833 4.33301 -130.5 13s-79.834 20 -102.5 34v192h45l33 -94c15.333 -18.667 36.166 -34.334 62.499 -47.001s56.5 -19 90.5 -19 c100 0 150 55.333 150 166c0 54 -13.5 101 -40.5 141s-69.5 79.667 -127.5 119c-55.334 38 -97.167 80.833 -125.499 128.5c-28.333 47.667 -42.5 104.5 -42.5 170.5c0 72 21 130.333 63 175s104.333 74 187 88c0 111.336 -14.333 191.669 -43 241 c-28.667 49.333 -78.667 74 -150 74c-129.333 0 -194 -84 -194 -252v-1110h-306v45l140 25v991c0 125.336 30.167 220.169 90.5 284.5c60.334 64.333 150.167 96.5 269.5 96.5c124.667 0 215.334 -35.333 272 -106c56.667 -70.667 85 -183.667 85 -339z"/>
   <glyph glyph-name="agrave" horiz-adv-x="909" unicode="à" d="M465 961c102.667 0 178.169 -21 226.502 -63s72.5 -106.333 72.5 -193v-635l117 -25v-45h-258l-19 94c-76 -76 -173 -114 -291 -114c-160.667 0 -241 93.333 -241 280c0 62.667 12.167 114.5 36.5 155.5s63.166 72.333 116.499 94s130.666 33.5 231.999 35.5l141 4v147 c0 64.668 -11.833 112.335 -35.5 143c-23.667 30.667 -60.167 46 -109.5 46c-66.667 0 -127.667 -15.667 -183 -47l-34 -117h-56v205c108 23.333 203 35 285 35zM598.002 479l-131 -4.00195c-89.333 -3.33301 -149.833 -20.666 -181.5 -51.999s-47.5 -83.666 -47.5 -156.999 c0 -117.333 47.667 -176 143 -176c45.333 0 84.5 5.16699 117.5 15.5s66.167 23.5 99.5 39.5v334zM544.002 1119l-354 268v37h213l196 -272v-33h-55z"/>
   <glyph glyph-name="aacute" horiz-adv-x="909" unicode="á" d="M465 961c102.667 0 178.169 -21 226.502 -63s72.5 -106.333 72.5 -193v-635l117 -25v-45h-258l-19 94c-76 -76 -173 -114 -291 -114c-160.667 0 -241 93.333 -241 280c0 62.667 12.167 114.5 36.5 155.5s63.166 72.333 116.499 94s130.666 33.5 231.999 35.5l141 4v147 c0 64.668 -11.833 112.335 -35.5 143c-23.667 30.667 -60.167 46 -109.5 46c-66.667 0 -127.667 -15.667 -183 -47l-34 -117h-56v205c108 23.333 203 35 285 35zM598.002 479l-131 -4.00195c-89.333 -3.33301 -149.833 -20.666 -181.5 -51.999s-47.5 -83.666 -47.5 -156.999 c0 -117.333 47.667 -176 143 -176c45.333 0 84.5 5.16699 117.5 15.5s66.167 23.5 99.5 39.5v334zM342.002 1119v33l196 272h213v-37l-354 -268h-55z"/>
   <glyph glyph-name="acircumflex" horiz-adv-x="909" unicode="â" d="M465 961c102.667 0 178.169 -21 226.502 -63s72.5 -106.333 72.5 -193v-635l117 -25v-45h-258l-19 94c-76 -76 -173 -114 -291 -114c-160.667 0 -241 93.333 -241 280c0 62.667 12.167 114.5 36.5 155.5s63.166 72.333 116.499 94s130.666 33.5 231.999 35.5l141 4v147 c0 64.668 -11.833 112.335 -35.5 143c-23.667 30.667 -60.167 46 -109.5 46c-66.667 0 -127.667 -15.667 -183 -47l-34 -117h-56v205c108 23.333 203 35 285 35zM598.002 479l-131 -4.00195c-89.333 -3.33301 -149.833 -20.666 -181.5 -51.999s-47.5 -83.666 -47.5 -156.999 c0 -117.333 47.667 -176 143 -176c45.333 0 84.5 5.16699 117.5 15.5s66.167 23.5 99.5 39.5v334zM143.002 1119v33l218 273h213l217 -273v-33h-56l-268 183l-268 -183h-56z"/>
   <glyph glyph-name="atilde" horiz-adv-x="909" unicode="ã" d="M465 961c102.667 0 178.169 -21 226.502 -63s72.5 -106.333 72.5 -193v-635l117 -25v-45h-258l-19 94c-76 -76 -173 -114 -291 -114c-160.667 0 -241 93.333 -241 280c0 62.667 12.167 114.5 36.5 155.5s63.166 72.333 116.499 94s130.666 33.5 231.999 35.5l141 4v147 c0 64.668 -11.833 112.335 -35.5 143c-23.667 30.667 -60.167 46 -109.5 46c-66.667 0 -127.667 -15.667 -183 -47l-34 -117h-56v205c108 23.333 203 35 285 35zM598.002 479l-131 -4.00195c-89.333 -3.33301 -149.833 -20.666 -181.5 -51.999s-47.5 -83.666 -47.5 -156.999 c0 -117.333 47.667 -176 143 -176c45.333 0 84.5 5.16699 117.5 15.5s66.167 23.5 99.5 39.5v334zM586.002 1118c-32 0 -61.498 7.16699 -88.498 21.5s-52.5 30.333 -76.5 48s-47.167 33.667 -69.5 48s-44.5 21.5 -66.5 21.5c-21.333 0 -38.5 -4 -51.5 -12 s-23.167 -19.5 -30.5 -34.5s-13.333 -39.167 -18 -72.5h-52c10 161.333 75 242 195 242c32 0 61.5 -7.16699 88.5 -21.5s52.667 -30.333 77 -48s47.666 -33.667 69.999 -48s44.166 -21.5 65.499 -21.5c28.667 0 51 8.33301 67 25s27 47.667 33 93h52 c-10 -160.667 -75 -241 -195 -241z"/>
   <glyph glyph-name="adieresis" horiz-adv-x="909" unicode="ä" d="M465 961c102.667 0 178.169 -21 226.502 -63s72.5 -106.333 72.5 -193v-635l117 -25v-45h-258l-19 94c-76 -76 -173 -114 -291 -114c-160.667 0 -241 93.333 -241 280c0 62.667 12.167 114.5 36.5 155.5s63.166 72.333 116.499 94s130.666 33.5 231.999 35.5l141 4v147 c0 64.668 -11.833 112.335 -35.5 143c-23.667 30.667 -60.167 46 -109.5 46c-66.667 0 -127.667 -15.667 -183 -47l-34 -117h-56v205c108 23.333 203 35 285 35zM598.002 479l-131 -4.00195c-89.333 -3.33301 -149.833 -20.666 -181.5 -51.999s-47.5 -83.666 -47.5 -156.999 c0 -117.333 47.667 -176 143 -176c45.333 0 84.5 5.16699 117.5 15.5s66.167 23.5 99.5 39.5v334zM733.002 1194c0 -28 -9.33301 -51.833 -28 -71.5s-42 -29.5 -70 -29.5s-51.667 10.333 -71 31s-29 44 -29 70c0 28 9.66699 51.667 29 71s43 29 71 29 s51.333 -9.66699 70 -29s28 -43 28 -71zM377.002 1194c0 -28 -9.33301 -51.833 -28 -71.5s-42 -29.5 -70 -29.5c-27.333 0 -51 10 -71 30s-30 43.667 -30 71c0 28 10.333 51.667 31 71s44 29 70 29c28 0 51.333 -9.66699 70 -29s28 -43 28 -71z"/>
   <glyph glyph-name="aring" horiz-adv-x="909" unicode="å" d="M465 961c102.667 0 178.169 -21 226.502 -63s72.5 -106.333 72.5 -193v-635l117 -25v-45h-258l-19 94c-76 -76 -173 -114 -291 -114c-160.667 0 -241 93.333 -241 280c0 62.667 12.167 114.5 36.5 155.5s63.166 72.333 116.499 94s130.666 33.5 231.999 35.5l141 4v147 c0 64.668 -11.833 112.335 -35.5 143c-23.667 30.667 -60.167 46 -109.5 46c-66.667 0 -127.667 -15.667 -183 -47l-34 -117h-56v205c108 23.333 203 35 285 35zM598.002 479l-131 -4.00195c-89.333 -3.33301 -149.833 -20.666 -181.5 -51.999s-47.5 -83.666 -47.5 -156.999 c0 -117.333 47.667 -176 143 -176c45.333 0 84.5 5.16699 117.5 15.5s66.167 23.5 99.5 39.5v334zM674.002 1280c0 -56 -19.833 -103.833 -59.5 -143.5s-87.5 -59.5 -143.5 -59.5s-103.833 19.833 -143.5 59.5s-59.5 87.5 -59.5 143.5s19.833 103.833 59.5 143.5 s87.5 59.5 143.5 59.5s103.833 -19.833 143.5 -59.5s59.5 -87.5 59.5 -143.5zM594.002 1280c0 34 -12.001 63.002 -36.001 87.002s-53 36 -87 36s-63 -12 -87 -36s-36 -53 -36 -87c0 -34.6719 12.333 -63.8389 37 -87.501c24.667 -23.667 53.334 -35.5 86.001 -35.5 c32 0 60.5 11.667 85.5 35c25 23.3379 37.5 52.6709 37.5 87.999z"/>
   <glyph glyph-name="ae" horiz-adv-x="1366" unicode="æ" d="M764 473l0.000976562 -89.998c1.33301 -82.667 10.5 -143.334 27.5 -182.001s43.333 -67.834 79 -87.501c35.668 -19.667 82.835 -29.5 141.501 -29.5c36 0 78.667 3 128 9s90 12.667 122 20v-56c-33.333 -21.333 -76 -39.5 -128 -54.5s-105.667 -22.5 -161 -22.5 c-153.333 0 -260.666 43 -321.999 129c-96.667 -86 -209.334 -129 -338.001 -129c-160.667 0 -241 93.333 -241 280c0 62.667 12.167 114.5 36.5 155.5s63.166 72.333 116.499 94s130.666 33.5 231.999 35.5l141 4v147c0 64.668 -11.833 112.335 -35.5 143 c-23.667 30.667 -60.167 46 -109.5 46c-66.667 0 -127.667 -15.667 -183 -47l-34 -117h-56v205c108 23.333 203 35 285 35c111.333 0 190.333 -24.667 237 -74c58.667 52 140 78 244 78c116.667 0 204.5 -34.667 263.5 -104s88.5 -171.333 88.5 -306v-82h-534z M381.001 90.002c76.667 0 158 22.665 244 67.998c-6 11.333 -12 33 -18 65s-9 64 -9 96v160l-131 -4c-89.333 -3.33301 -149.833 -20.666 -181.5 -51.999s-47.5 -83.666 -47.5 -156.999c0 -117.333 47.667 -176 143 -176zM946.001 885c-63.333 0 -109.5 -24.667 -138.5 -74 s-43.5 -135.333 -43.5 -258h360c0 114 -14.5 197.833 -43.5 251.5s-73.833 80.5 -134.5 80.5z"/>
   <glyph glyph-name="ccedilla" horiz-adv-x="909" unicode="ç" d="M846 57c-32.667 -24 -77.668 -42.834 -135.001 -56.501s-116 -20.5 -176 -20.5c-304.667 0 -457 165.667 -457 497c0 156.667 38.833 277.167 116.5 361.5s188.834 126.5 333.501 126.5c90 0 188.333 -10.333 295 -31v-262h-55l-43 166 c-55.334 31.333 -121.667 47 -199 47c-178.667 0 -268 -136 -268 -408c0 -141.333 27.167 -242.166 81.5 -302.499s138.5 -90.5 252.5 -90.5c97.333 0 182 11 254 33v-60zM705.999 -234.001c0 -61.333 -23.167 -110.334 -69.5 -147.001s-105.5 -55 -177.5 -55 c-50.667 0 -96.667 7.33301 -138 22v74c14.667 -4.66699 34.667 -8.5 60 -11.5s45.333 -4.5 60 -4.5c40 0 69 9.83301 87 29.5s27 44.5 27 74.5c0 32.667 -13.333 59.334 -40 80.001s-64 33 -112 37l41 153h86l-18 -82c60.667 -6 108.167 -23.667 142.5 -53 s51.5 -68.333 51.5 -117z"/>
   <glyph glyph-name="egrave" horiz-adv-x="909" unicode="è" d="M260 473v-18c0 -92 10.167 -163.5 30.5 -214.5c20.334 -51 51.667 -89.833 94 -116.5s97.833 -40 166.5 -40c36 0 78.667 3 128 9s90 12.667 122 20v-56c-32 -20.667 -75.5 -38.667 -130.5 -54s-111.167 -23 -168.5 -23c-146 0 -252.833 39.333 -320.5 118 s-101.5 205 -101.5 379c0 164 34.333 286.333 103 367s166.667 121 294 121c240.667 0 361 -136.667 361 -410v-82h-578zM477 885c-69.333 0 -122.5 -28 -159.5 -84s-55.5 -138.667 -55.5 -248h402c0 119.333 -15.333 204.5 -46 255.5s-77.667 76.5 -141 76.5zM594 1119 l-354 268v37h213l196 -272v-33h-55z"/>
   <glyph glyph-name="eacute" horiz-adv-x="909" unicode="é" d="M260 473v-18c0 -92 10.167 -163.5 30.5 -214.5c20.334 -51 51.667 -89.833 94 -116.5s97.833 -40 166.5 -40c36 0 78.667 3 128 9s90 12.667 122 20v-56c-32 -20.667 -75.5 -38.667 -130.5 -54s-111.167 -23 -168.5 -23c-146 0 -252.833 39.333 -320.5 118 s-101.5 205 -101.5 379c0 164 34.333 286.333 103 367s166.667 121 294 121c240.667 0 361 -136.667 361 -410v-82h-578zM477 885c-69.333 0 -122.5 -28 -159.5 -84s-55.5 -138.667 -55.5 -248h402c0 119.333 -15.333 204.5 -46 255.5s-77.667 76.5 -141 76.5zM382 1119v33 l196 272h213v-37l-354 -268h-55z"/>
   <glyph glyph-name="ecircumflex" horiz-adv-x="909" unicode="ê" d="M260 473v-18c0 -92 10.167 -163.5 30.5 -214.5c20.334 -51 51.667 -89.833 94 -116.5s97.833 -40 166.5 -40c36 0 78.667 3 128 9s90 12.667 122 20v-56c-32 -20.667 -75.5 -38.667 -130.5 -54s-111.167 -23 -168.5 -23c-146 0 -252.833 39.333 -320.5 118 s-101.5 205 -101.5 379c0 164 34.333 286.333 103 367s166.667 121 294 121c240.667 0 361 -136.667 361 -410v-82h-578zM477 885c-69.333 0 -122.5 -28 -159.5 -84s-55.5 -138.667 -55.5 -248h402c0 119.333 -15.333 204.5 -46 255.5s-77.667 76.5 -141 76.5zM151 1119v33 l218 273h213l217 -273v-33h-56l-268 183l-268 -183h-56z"/>
   <glyph glyph-name="edieresis" horiz-adv-x="909" unicode="ë" d="M260 473v-18c0 -92 10.167 -163.5 30.5 -214.5c20.334 -51 51.667 -89.833 94 -116.5s97.833 -40 166.5 -40c36 0 78.667 3 128 9s90 12.667 122 20v-56c-32 -20.667 -75.5 -38.667 -130.5 -54s-111.167 -23 -168.5 -23c-146 0 -252.833 39.333 -320.5 118 s-101.5 205 -101.5 379c0 164 34.333 286.333 103 367s166.667 121 294 121c240.667 0 361 -136.667 361 -410v-82h-578zM477 885c-69.333 0 -122.5 -28 -159.5 -84s-55.5 -138.667 -55.5 -248h402c0 119.333 -15.333 204.5 -46 255.5s-77.667 76.5 -141 76.5zM743 1194 c0 -28 -9.33301 -51.833 -28 -71.5s-42 -29.5 -70 -29.5s-51.667 10.333 -71 31s-29 44 -29 70c0 28 9.66699 51.667 29 71s43 29 71 29s51.333 -9.66699 70 -29s28 -43 28 -71zM387 1194c0 -28 -9.33301 -51.833 -28 -71.5s-42 -29.5 -70 -29.5c-27.333 0 -51 10 -71 30 s-30 43.667 -30 71c0 28 10.333 51.667 31 71s44 29 70 29c28 0 51.333 -9.66699 70 -29s28 -43 28 -71z"/>
   <glyph glyph-name="igrave" horiz-adv-x="569" unicode="ì" d="M369 70l161 -25v-45h-487v45l160 25v800l-133 25v45h299v-870zM376 1119l-354 268v37h213l196 -272v-33h-55z"/>
   <glyph glyph-name="iacute" horiz-adv-x="569" unicode="í" d="M369 70l161 -25v-45h-487v45l160 25v800l-133 25v45h299v-870zM138 1119v33l196 272h213v-37l-354 -268h-55z"/>
   <glyph glyph-name="icircumflex" horiz-adv-x="569" unicode="î" d="M369 70l161 -25v-45h-487v45l160 25v800l-133 25v45h299v-870zM-40 1119v33l218 273h213l217 -273v-33h-56l-268 183l-268 -183h-56z"/>
   <glyph glyph-name="idieresis" horiz-adv-x="569" unicode="ï" d="M369 70l161 -25v-45h-487v45l160 25v800l-133 25v45h299v-870zM549 1194c0 -28 -9.33301 -51.833 -28 -71.5s-42 -29.5 -70 -29.5s-51.667 10.333 -71 31s-29 44 -29 70c0 28 9.66699 51.667 29 71s43 29 71 29s51.333 -9.66699 70 -29s28 -43 28 -71zM193 1194 c0 -28 -9.33301 -51.833 -28 -71.5s-42 -29.5 -70 -29.5c-27.333 0 -51 10 -71 30s-30 43.667 -30 71c0 28 10.333 51.667 31 71s44 29 70 29c28 0 51.333 -9.66699 70 -29s28 -43 28 -71z"/>
   <glyph glyph-name="eth" horiz-adv-x="1024" unicode="ð" d="M229 1102l227.998 130.998c-68.667 49.333 -141.667 86 -219 110v78c120.667 -29.333 225.667 -73.666 315 -132.999l266 156v-94l-194 -115c100.667 -81.333 178.334 -185.166 233.001 -311.499c54.668 -126.333 83.335 -274.5 86.001 -444.5l2 -35 c0 -309.333 -146.667 -464 -440 -464c-141.333 0 -248 39.667 -320 119s-108 194.333 -108 345c0 148.667 36 262.334 108 341c72 78.667 181.333 118 328 118c72.667 0 138.334 -11.667 197 -35c-32 118.667 -94.333 222 -187 310l-295 -172v96zM765.998 443.998 c0 133.333 -21 229.833 -63 289.5s-107.667 89.5 -197 89.5c-86.667 0 -149.667 -28.333 -189 -85s-59 -154.667 -59 -294c0 -140.667 19.833 -240 59.5 -298s102.5 -87 188.5 -87c88 0 153.333 30.333 196 91s64 158.667 64 294z"/>
   <glyph glyph-name="ntilde" horiz-adv-x="1024" unicode="ñ" d="M324 864c51.333 29.333 106.001 53.5 164.001 72.5s106.333 28.5 145 28.5c81.333 0 142.666 -23.667 183.999 -71s62 -116 62 -206v-618l114 -25v-45h-405v45l125 25v600c0 55.333 -13.5 98.833 -40.5 130.5s-68.833 47.5 -125.5 47.5c-60 0 -133.667 -9.66699 -221 -29 v-749l127 -25v-45h-406v45l113 25v800l-113 25v45h268zM645.001 1118c-32 0 -61.498 7.16699 -88.498 21.5s-52.5 30.333 -76.5 48s-47.167 33.667 -69.5 48s-44.5 21.5 -66.5 21.5c-21.333 0 -38.5 -4 -51.5 -12s-23.167 -19.5 -30.5 -34.5s-13.333 -39.167 -18 -72.5h-52 c10 161.333 75 242 195 242c32 0 61.5 -7.16699 88.5 -21.5s52.667 -30.333 77 -48s47.666 -33.667 69.999 -48s44.166 -21.5 65.499 -21.5c28.667 0 51 8.33301 67 25s27 47.667 33 93h52c-10 -160.667 -75 -241 -195 -241z"/>
   <glyph glyph-name="ograve" horiz-adv-x="1024" unicode="ò" d="M946 475c0 -330 -146.667 -495.001 -440 -495.001c-141.333 0 -248 42.333 -320 127s-108 207.334 -108 368.001c0 158.667 36 280 108 364s181.333 126 328 126c142.667 0 250.334 -41.167 323 -123.5c72.667 -82.333 109 -204.5 109 -366.5zM766 474.999 c0 144 -21 248.333 -63 313s-107.667 97 -197 97c-87.333 0 -150.5 -31 -189.5 -93s-58.5 -167.667 -58.5 -317c0 -151.333 19.833 -258.5 59.5 -321.5s102.5 -94.5 188.5 -94.5c88 0 153.333 32.667 196 98s64 171.333 64 318zM603 1119l-354 268v37h213l196 -272v-33h-55z "/>
   <glyph glyph-name="oacute" horiz-adv-x="1024" unicode="ó" d="M946 475c0 -330 -146.667 -495.001 -440 -495.001c-141.333 0 -248 42.333 -320 127s-108 207.334 -108 368.001c0 158.667 36 280 108 364s181.333 126 328 126c142.667 0 250.334 -41.167 323 -123.5c72.667 -82.333 109 -204.5 109 -366.5zM766 474.999 c0 144 -21 248.333 -63 313s-107.667 97 -197 97c-87.333 0 -150.5 -31 -189.5 -93s-58.5 -167.667 -58.5 -317c0 -151.333 19.833 -258.5 59.5 -321.5s102.5 -94.5 188.5 -94.5c88 0 153.333 32.667 196 98s64 171.333 64 318zM404 1119v33l196 272h213v-37l-354 -268h-55z "/>
   <glyph glyph-name="ocircumflex" horiz-adv-x="1024" unicode="ô" d="M946 475c0 -330 -146.667 -495.001 -440 -495.001c-141.333 0 -248 42.333 -320 127s-108 207.334 -108 368.001c0 158.667 36 280 108 364s181.333 126 328 126c142.667 0 250.334 -41.167 323 -123.5c72.667 -82.333 109 -204.5 109 -366.5zM766 474.999 c0 144 -21 248.333 -63 313s-107.667 97 -197 97c-87.333 0 -150.5 -31 -189.5 -93s-58.5 -167.667 -58.5 -317c0 -151.333 19.833 -258.5 59.5 -321.5s102.5 -94.5 188.5 -94.5c88 0 153.333 32.667 196 98s64 171.333 64 318zM187 1119v33l218 273h213l217 -273v-33h-56 l-268 183l-268 -183h-56z"/>
   <glyph glyph-name="otilde" horiz-adv-x="1024" unicode="õ" d="M946 475c0 -330 -146.667 -495.001 -440 -495.001c-141.333 0 -248 42.333 -320 127s-108 207.334 -108 368.001c0 158.667 36 280 108 364s181.333 126 328 126c142.667 0 250.334 -41.167 323 -123.5c72.667 -82.333 109 -204.5 109 -366.5zM766 474.999 c0 144 -21 248.333 -63 313s-107.667 97 -197 97c-87.333 0 -150.5 -31 -189.5 -93s-58.5 -167.667 -58.5 -317c0 -151.333 19.833 -258.5 59.5 -321.5s102.5 -94.5 188.5 -94.5c88 0 153.333 32.667 196 98s64 171.333 64 318zM633 1118 c-32 0 -61.498 7.16699 -88.498 21.5s-52.5 30.333 -76.5 48s-47.167 33.667 -69.5 48s-44.5 21.5 -66.5 21.5c-21.333 0 -38.5 -4 -51.5 -12s-23.167 -19.5 -30.5 -34.5s-13.333 -39.167 -18 -72.5h-52c10 161.333 75 242 195 242c32 0 61.5 -7.16699 88.5 -21.5 s52.667 -30.333 77 -48s47.666 -33.667 69.999 -48s44.166 -21.5 65.499 -21.5c28.667 0 51 8.33301 67 25s27 47.667 33 93h52c-10 -160.667 -75 -241 -195 -241z"/>
   <glyph glyph-name="odieresis" horiz-adv-x="1024" unicode="ö" d="M946 475c0 -330 -146.667 -495.001 -440 -495.001c-141.333 0 -248 42.333 -320 127s-108 207.334 -108 368.001c0 158.667 36 280 108 364s181.333 126 328 126c142.667 0 250.334 -41.167 323 -123.5c72.667 -82.333 109 -204.5 109 -366.5zM766 474.999 c0 144 -21 248.333 -63 313s-107.667 97 -197 97c-87.333 0 -150.5 -31 -189.5 -93s-58.5 -167.667 -58.5 -317c0 -151.333 19.833 -258.5 59.5 -321.5s102.5 -94.5 188.5 -94.5c88 0 153.333 32.667 196 98s64 171.333 64 318zM786 1194c0 -28 -9.33301 -51.833 -28 -71.5 s-42 -29.5 -70 -29.5s-51.667 10.333 -71 31s-29 44 -29 70c0 28 9.66699 51.667 29 71s43 29 71 29s51.333 -9.66699 70 -29s28 -43 28 -71zM430 1194c0 -28 -9.33301 -51.833 -28 -71.5s-42 -29.5 -70 -29.5c-27.333 0 -51 10 -71 30s-30 43.667 -30 71 c0 28 10.333 51.667 31 71s44 29 70 29c28 0 51.333 -9.66699 70 -29s28 -43 28 -71z"/>
   <glyph glyph-name="divide" horiz-adv-x="1124" unicode="÷" d="M657 1063c0 -26.667 -9.33203 -49.335 -27.999 -68.002s-41.334 -28 -68.001 -28c-27.333 0 -50.333 9.33301 -69 28s-28 41.334 -28 68.001s9.33301 49.334 28 68.001s41.667 28 69 28c26.6689 0 49.3359 -9.33301 68 -28c18.667 -18.6709 28 -41.3379 28 -68z M657.001 296.999c0 -26.667 -9.33203 -49.335 -27.999 -68.002s-41.334 -28 -68.001 -28c-27.333 0 -50.333 9.33301 -69 28s-28 41.334 -28 68.001s9.33301 49.334 28 68.001s41.667 28 69 28c26.6689 0 49.3359 -9.33301 68 -28c18.667 -18.667 28 -41.334 28 -68z M1038 730.998v-102h-953v102h953z"/>
   <glyph glyph-name="oslash" horiz-adv-x="1024" unicode="ø" d="M952 1022l-122.998 -174c78 -84.667 117 -209 117 -373c0 -330 -146.667 -495 -440 -495c-96.667 0 -177.334 19.667 -242.001 59l-86 -123h-108l127 178c-79.333 83.333 -119 210.333 -119 381c0 158.667 36 280 108 364s181.333 126 328 126 c99.333 0 182.666 -21.333 249.999 -64l84 121h104zM258.002 475c0 -107.333 9.66699 -191.333 29 -252l405 578c-41.333 56 -103.333 84 -186 84c-87.333 0 -150.5 -31 -189.5 -93s-58.5 -167.667 -58.5 -317zM766.002 475c0 98 -10.333 178 -31 240l-405 -580 c40 -50.667 98.667 -76 176 -76c88 0 153.333 32.667 196 98s64 171.333 64 318z"/>
   <glyph glyph-name="ugrave" horiz-adv-x="1024" unicode="ù" d="M313 268c0 -114.667 53.333 -172 160 -172c82.667 0 160 10.333 232 31v743l-142 25v45h307v-870l119 -25v-45h-274l-8 76c-47.333 -26 -102 -48.5 -164 -67.5s-114 -28.5 -156 -28.5c-160 0 -240 92 -240 276v614l-120 25v45h286v-672zM559 1119l-354 268v37h213 l196 -272v-33h-55z"/>
   <glyph glyph-name="uacute" horiz-adv-x="1024" unicode="ú" d="M313 268c0 -114.667 53.333 -172 160 -172c82.667 0 160 10.333 232 31v743l-142 25v45h307v-870l119 -25v-45h-274l-8 76c-47.333 -26 -102 -48.5 -164 -67.5s-114 -28.5 -156 -28.5c-160 0 -240 92 -240 276v614l-120 25v45h286v-672zM420 1119v33l196 272h213v-37 l-354 -268h-55z"/>
   <glyph glyph-name="ucircumflex" horiz-adv-x="1024" unicode="û" d="M313 268c0 -114.667 53.333 -172 160 -172c82.667 0 160 10.333 232 31v743l-142 25v45h307v-870l119 -25v-45h-274l-8 76c-47.333 -26 -102 -48.5 -164 -67.5s-114 -28.5 -156 -28.5c-160 0 -240 92 -240 276v614l-120 25v45h286v-672zM185 1119v33l218 273h213 l217 -273v-33h-56l-268 183l-268 -183h-56z"/>
   <glyph glyph-name="udieresis" horiz-adv-x="1024" unicode="ü" d="M313 268c0 -114.667 53.333 -172 160 -172c82.667 0 160 10.333 232 31v743l-142 25v45h307v-870l119 -25v-45h-274l-8 76c-47.333 -26 -102 -48.5 -164 -67.5s-114 -28.5 -156 -28.5c-160 0 -240 92 -240 276v614l-120 25v45h286v-672zM790 1194 c0 -28 -9.33301 -51.833 -28 -71.5s-42 -29.5 -70 -29.5s-51.667 10.333 -71 31s-29 44 -29 70c0 28 9.66699 51.667 29 71s43 29 71 29s51.333 -9.66699 70 -29s28 -43 28 -71zM434 1194c0 -28 -9.33301 -51.833 -28 -71.5s-42 -29.5 -70 -29.5c-27.333 0 -51 10 -71 30 s-30 43.667 -30 71c0 28 10.333 51.667 31 71s44 29 70 29c28 0 51.333 -9.66699 70 -29s28 -43 28 -71z"/>
   <glyph glyph-name="yacute" horiz-adv-x="1024" unicode="ý" d="M199 -442c-52 0 -103.334 6.00098 -154.001 18.001v203h47l33 -96c20.667 -15.333 49.334 -23 86.001 -23c34.667 0 66.667 10 96 30c29.334 20 56.167 49.667 80.5 89s54.833 109.666 91.5 210.999l-358 880l-96 25v45h436v-45l-148 -27l254 -657l246 659l-147 25v45 h350v-45l-98 -21l-367 -933c-43.333 -110 -81 -189 -113 -237s-67.333 -84.333 -106 -109s-83 -37 -133 -37zM403.999 1119v33l196 272h213v-37l-354 -268h-55z"/>
   <glyph glyph-name="thorn" horiz-adv-x="1024" unicode="þ" d="M758 481c0 130 -20.167 225.667 -60.5 287c-40.334 61.333 -102.167 92 -185.5 92c-78 0 -143 -11 -195 -33v-751c59.333 -11.333 124.333 -17 195 -17c82.667 0 144.334 34.5 185 103.5c40.667 69 61 175.167 61 318.5zM152 1352l-137.999 23.999v45h303v-336 c0 -37.333 -2 -104 -6 -200c28 24 65.5 43.333 112.5 58s94.833 22 143.499 22c120 0 212.833 -41.667 278.5 -125s98.5 -203 98.5 -359c0 -159.333 -35.833 -282.666 -107.5 -369.999s-175.167 -131 -310.5 -131c-75.333 0 -147 7.33301 -215 22c4 -48 6 -85.667 6 -113 v-254l164 -24v-47h-448v47l119 24v1717z"/>
   <glyph glyph-name="ydieresis" horiz-adv-x="1024" unicode="ÿ" d="M199 -442c-52 0 -103.334 6.00098 -154.001 18.001v203h47l33 -96c20.667 -15.333 49.334 -23 86.001 -23c34.667 0 66.667 10 96 30c29.334 20 56.167 49.667 80.5 89s54.833 109.666 91.5 210.999l-358 880l-96 25v45h436v-45l-148 -27l254 -657l246 659l-147 25v45 h350v-45l-98 -21l-367 -933c-43.333 -110 -81 -189 -113 -237s-67.333 -84.333 -106 -109s-83 -37 -133 -37zM812.999 1194c0 -28 -9.33301 -51.833 -28 -71.5s-42 -29.5 -70 -29.5s-51.667 10.333 -71 31s-29 44 -29 70c0 28 9.66699 51.667 29 71s43 29 71 29 s51.333 -9.66699 70 -29s28 -43 28 -71zM456.999 1194c0 -28 -9.33301 -51.833 -28 -71.5s-42 -29.5 -70 -29.5c-27.333 0 -51 10 -71 30s-30 43.667 -30 71c0 28 10.333 51.667 31 71s44 29 70 29c28 0 51.333 -9.66699 70 -29s28 -43 28 -71z"/>
   <glyph glyph-name="Amacron" horiz-adv-x="1479" unicode="Ā" d="M461 53v-53h-441v53l152 27l457 1272h190l475 -1272l170 -27v-53h-567v53l180 27l-133 387h-528l-135 -387zM676 1208l-230 -651h467zM425 1475v109h628v-109h-628z"/>
   <glyph glyph-name="amacron" horiz-adv-x="909" unicode="ā" d="M465 961c102.667 0 178.169 -21 226.502 -63s72.5 -106.333 72.5 -193v-635l117 -25v-45h-258l-19 94c-76 -76 -173 -114 -291 -114c-160.667 0 -241 93.333 -241 280c0 62.667 12.167 114.5 36.5 155.5s63.166 72.333 116.499 94s130.666 33.5 231.999 35.5l141 4v147 c0 64.668 -11.833 112.335 -35.5 143c-23.667 30.667 -60.167 46 -109.5 46c-66.667 0 -127.667 -15.667 -183 -47l-34 -117h-56v205c108 23.333 203 35 285 35zM598.002 479l-131 -4.00195c-89.333 -3.33301 -149.833 -20.666 -181.5 -51.999s-47.5 -83.666 -47.5 -156.999 c0 -117.333 47.667 -176 143 -176c45.333 0 84.5 5.16699 117.5 15.5s66.167 23.5 99.5 39.5v334zM151.002 1141v109h628v-109h-628z"/>
   <glyph glyph-name="Abreve" horiz-adv-x="1479" unicode="Ă" d="M461 53v-53h-441v53l152 27l457 1272h190l475 -1272l170 -27v-53h-567v53l180 27l-133 387h-528l-135 -387zM676 1208l-230 -651h467zM719 1453c-89.333 0 -159 25.5 -209 76.5s-76 118.833 -78 203.5h74c10.668 -44.667 34.835 -79 72.501 -103 c37.667 -24 84.5 -36 140.5 -36s102.667 12 140 36s61.666 58.333 72.999 103h74c-3.33301 -87.333 -30 -155.833 -80 -205.5s-119 -74.5 -207 -74.5z"/>
   <glyph glyph-name="abreve" horiz-adv-x="909" unicode="ă" d="M465 961c102.667 0 178.169 -21 226.502 -63s72.5 -106.333 72.5 -193v-635l117 -25v-45h-258l-19 94c-76 -76 -173 -114 -291 -114c-160.667 0 -241 93.333 -241 280c0 62.667 12.167 114.5 36.5 155.5s63.166 72.333 116.499 94s130.666 33.5 231.999 35.5l141 4v147 c0 64.668 -11.833 112.335 -35.5 143c-23.667 30.667 -60.167 46 -109.5 46c-66.667 0 -127.667 -15.667 -183 -47l-34 -117h-56v205c108 23.333 203 35 285 35zM598.002 479l-131 -4.00195c-89.333 -3.33301 -149.833 -20.666 -181.5 -51.999s-47.5 -83.666 -47.5 -156.999 c0 -117.333 47.667 -176 143 -176c45.333 0 84.5 5.16699 117.5 15.5s66.167 23.5 99.5 39.5v334zM454.002 1119c-89.333 0 -159 25.5 -209 76.5s-76 118.833 -78 203.5h74c10.667 -44.667 34.834 -79 72.501 -103s84.5 -36 140.5 -36s102.667 12 140 36 s61.666 58.333 72.999 103h74c-3.33301 -87.333 -30 -155.833 -80 -205.5s-119 -74.5 -207 -74.5z"/>
   <glyph glyph-name="Aogonek" horiz-adv-x="1479" unicode="Ą" d="M461 53v-53h-441v53l152 27l457 1272h190l475 -1272l170 -27v-53h-567v53l180 27l-133 387h-528l-135 -387zM676 1208l-230 -651h467zM1197 -403c-74 0 -131.003 19.166 -171.003 57.499s-60 91.5 -60 159.5c0 35.333 7.83301 70.5 23.5 105.5s37.834 67.167 66.501 96.5 h109c-15.333 -22 -28.166 -50.333 -38.499 -85s-15.5 -65.667 -15.5 -93c0 -49.333 11.833 -87.166 35.5 -113.499s57.834 -39.5 102.501 -39.5c40 0 78.667 7.33301 116 22v-64c-45.333 -30.667 -101.333 -46 -168 -46z"/>
   <glyph glyph-name="aogonek" horiz-adv-x="909" unicode="ą" d="M465 961c102.667 0 178.169 -21 226.502 -63s72.5 -106.333 72.5 -193v-635l117 -25v-45h-258l-19 94c-76 -76 -173 -114 -291 -114c-160.667 0 -241 93.333 -241 280c0 62.667 12.167 114.5 36.5 155.5s63.166 72.333 116.499 94s130.666 33.5 231.999 35.5l141 4v147 c0 64.668 -11.833 112.335 -35.5 143c-23.667 30.667 -60.167 46 -109.5 46c-66.667 0 -127.667 -15.667 -183 -47l-34 -117h-56v205c108 23.333 203 35 285 35zM598.002 479l-131 -4.00195c-89.333 -3.33301 -149.833 -20.666 -181.5 -51.999s-47.5 -83.666 -47.5 -156.999 c0 -117.333 47.667 -176 143 -176c45.333 0 84.5 5.16699 117.5 15.5s66.167 23.5 99.5 39.5v334zM762.002 -403.002c-74 0 -131 19.166 -171 57.499s-60 91.5 -60 159.5c0 35.333 7.83301 70.5 23.5 105.5c15.6689 35 37.8359 67.167 66.5 96.5h109 c-15.3389 -22 -28.1719 -50.333 -38.5 -85c-10.333 -34.667 -15.5 -65.667 -15.5 -93c0 -49.333 11.833 -87.166 35.5 -113.499c23.668 -26.333 57.835 -39.5 102.5 -39.5c40 0 78.667 7.33301 116 22v-64c-45.333 -30.667 -101.333 -46 -168 -46z"/>
   <glyph glyph-name="Cacute" horiz-adv-x="1366" unicode="Ć" d="M774 -20c-217.333 0 -386.663 59.168 -507.996 177.501s-182 284.166 -182 497.499c0 230.667 58.333 405.167 175 523.5s289.667 177.5 519 177.5c139.333 0 289 -17 449 -51l6 -293h-66l-30 174c-46.6689 28.667 -100.836 50.834 -162.501 66.501 c-61.667 15.667 -124.5 23.5 -188.5 23.5c-171.333 0 -296.333 -50.333 -375 -151s-118 -256.667 -118 -468c0 -194.667 41.167 -343.334 123.5 -446.001s202.166 -154 359.499 -154c76 0 147.667 9.16699 215 27.5c67.334 18.333 120.667 42.833 159.999 73.5l37 200h65 l-6 -315c-146.667 -42 -304.334 -63 -473.001 -63zM613.003 1453v33l196 272h213v-37l-354 -268h-55z"/>
   <glyph glyph-name="cacute" horiz-adv-x="909" unicode="ć" d="M846 57c-32.667 -24 -77.668 -42.834 -135.001 -56.501s-116 -20.5 -176 -20.5c-304.667 0 -457 165.667 -457 497c0 156.667 38.833 277.167 116.5 361.5s188.834 126.5 333.501 126.5c90 0 188.333 -10.333 295 -31v-262h-55l-43 166 c-55.334 31.333 -121.667 47 -199 47c-178.667 0 -268 -136 -268 -408c0 -141.333 27.167 -242.166 81.5 -302.499s138.5 -90.5 252.5 -90.5c97.333 0 182 11 254 33v-60zM365.999 1119v33l196 272h213v-37l-354 -268h-55z"/>
   <glyph glyph-name="Ccircumflex" horiz-adv-x="1366" unicode="Ĉ" d="M774 -20c-217.333 0 -386.663 59.168 -507.996 177.501s-182 284.166 -182 497.499c0 230.667 58.333 405.167 175 523.5s289.667 177.5 519 177.5c139.333 0 289 -17 449 -51l6 -293h-66l-30 174c-46.6689 28.667 -100.836 50.834 -162.501 66.501 c-61.667 15.667 -124.5 23.5 -188.5 23.5c-171.333 0 -296.333 -50.333 -375 -151s-118 -256.667 -118 -468c0 -194.667 41.167 -343.334 123.5 -446.001s202.166 -154 359.499 -154c76 0 147.667 9.16699 215 27.5c67.334 18.333 120.667 42.833 159.999 73.5l37 200h65 l-6 -315c-146.667 -42 -304.334 -63 -473.001 -63zM452.003 1453v33l218 273h213l217 -273v-33h-56l-268 183l-268 -183h-56z"/>
   <glyph glyph-name="ccircumflex" horiz-adv-x="909" unicode="ĉ" d="M846 57c-32.667 -24 -77.668 -42.834 -135.001 -56.501s-116 -20.5 -176 -20.5c-304.667 0 -457 165.667 -457 497c0 156.667 38.833 277.167 116.5 361.5s188.834 126.5 333.501 126.5c90 0 188.333 -10.333 295 -31v-262h-55l-43 166 c-55.334 31.333 -121.667 47 -199 47c-178.667 0 -268 -136 -268 -408c0 -141.333 27.167 -242.166 81.5 -302.499s138.5 -90.5 252.5 -90.5c97.333 0 182 11 254 33v-60zM187.999 1119v33l218 273h213l217 -273v-33h-56l-268 183l-268 -183h-56z"/>
   <glyph glyph-name="Cdotaccent" horiz-adv-x="1366" unicode="Ċ" d="M774 -20c-217.333 0 -386.663 59.168 -507.996 177.501s-182 284.166 -182 497.499c0 230.667 58.333 405.167 175 523.5s289.667 177.5 519 177.5c139.333 0 289 -17 449 -51l6 -293h-66l-30 174c-46.6689 28.667 -100.836 50.834 -162.501 66.501 c-61.667 15.667 -124.5 23.5 -188.5 23.5c-171.333 0 -296.333 -50.333 -375 -151s-118 -256.667 -118 -468c0 -194.667 41.167 -343.334 123.5 -446.001s202.166 -154 359.499 -154c76 0 147.667 9.16699 215 27.5c67.334 18.333 120.667 42.833 159.999 73.5l37 200h65 l-6 -315c-146.667 -42 -304.334 -63 -473.001 -63zM877.003 1581c0 -29.333 -10.667 -54.666 -32 -75.999s-47 -32 -77 -32c-29.3359 0 -54.6689 10.667 -75.999 32c-21.333 21.333 -32 46.666 -32 75.999c0 30 10.667 55.667 32 77s46.666 32 75.999 32 c30 0 55.667 -10.667 77 -32s32 -47 32 -77z"/>
   <glyph glyph-name="cdotaccent" horiz-adv-x="909" unicode="ċ" d="M846 57c-32.667 -24 -77.668 -42.834 -135.001 -56.501s-116 -20.5 -176 -20.5c-304.667 0 -457 165.667 -457 497c0 156.667 38.833 277.167 116.5 361.5s188.834 126.5 333.501 126.5c90 0 188.333 -10.333 295 -31v-262h-55l-43 166 c-55.334 31.333 -121.667 47 -199 47c-178.667 0 -268 -136 -268 -408c0 -141.333 27.167 -242.166 81.5 -302.499s138.5 -90.5 252.5 -90.5c97.333 0 182 11 254 33v-60zM638.999 1247c0 -29.333 -10.667 -54.667 -32 -76s-47 -32 -77 -32 c-29.333 0 -54.666 10.667 -75.999 32c-21.333 21.3428 -32 46.6758 -32 76c0 30 10.667 55.667 32 77c21.334 21.333 46.667 32 75.999 32c30 0 55.667 -10.667 77 -32s32 -47 32 -77z"/>
   <glyph glyph-name="Ccaron" horiz-adv-x="1366" unicode="Č" d="M774 -20c-217.333 0 -386.663 59.168 -507.996 177.501s-182 284.166 -182 497.499c0 230.667 58.333 405.167 175 523.5s289.667 177.5 519 177.5c139.333 0 289 -17 449 -51l6 -293h-66l-30 174c-46.6689 28.667 -100.836 50.834 -162.501 66.501 c-61.667 15.667 -124.5 23.5 -188.5 23.5c-171.333 0 -296.333 -50.333 -375 -151s-118 -256.667 -118 -468c0 -194.667 41.167 -343.334 123.5 -446.001s202.166 -154 359.499 -154c76 0 147.667 9.16699 215 27.5c67.334 18.333 120.667 42.833 159.999 73.5l37 200h65 l-6 -315c-146.667 -42 -304.334 -63 -473.001 -63zM505.003 1759l268 -183l268 183h56v-33l-217 -273h-213l-218 273v33h56z"/>
   <glyph glyph-name="ccaron" horiz-adv-x="909" unicode="č" d="M846 57c-32.667 -24 -77.668 -42.834 -135.001 -56.501s-116 -20.5 -176 -20.5c-304.667 0 -457 165.667 -457 497c0 156.667 38.833 277.167 116.5 361.5s188.834 126.5 333.501 126.5c90 0 188.333 -10.333 295 -31v-262h-55l-43 166 c-55.334 31.333 -121.667 47 -199 47c-178.667 0 -268 -136 -268 -408c0 -141.333 27.167 -242.166 81.5 -302.499s138.5 -90.5 252.5 -90.5c97.333 0 182 11 254 33v-60zM249.999 1425l268 -183l268 183h56v-33l-217 -273h-213l-218 273v33h56z"/>
   <glyph glyph-name="Dcaron" horiz-adv-x="1479" unicode="Ď" d="M1188 680c0 187.333 -50.5 329.332 -151.5 425.999s-245.167 145 -432.5 145h-180v-1157c80 -5.33301 175 -8 285 -8c164 0 284.833 48.333 362.5 145s116.5 246.334 116.5 449.001zM668 1341c247.333 0 430.667 -55.168 550 -165.501s179 -276.166 179 -497.499 c0 -224 -57.5 -393.667 -172.5 -509s-286.833 -173 -515.5 -173l-478 4h-172v53l172 27v1182l-172 26v53h609zM461.001 1759l268 -183l268 183h56v-33l-217 -273h-213l-218 273v33h56z"/>
   <glyph glyph-name="dcaron" horiz-adv-x="1324" unicode="ď" d="M723 70c-75.333 -60 -163.333 -90 -264 -90c-256.667 0 -385 160.333 -385 481c0 164.667 36.333 289.834 109 375.5c72.667 85.667 179.667 128.5 321 128.5c72 0 145 -7.66699 219 -23c-4 22 -6 77.333 -6 166v244l-158 24v45h324v-1351l116 -25v-45h-264zM254 461 c0 -126.667 21.333 -221.167 64 -283.5s108 -93.5 196 -93.5c75.333 0 143 13 203 39v743c-59.333 11.333 -127 17 -203 17c-173.333 0 -260 -140.667 -260 -422zM1288 1279c0 -72.6689 -23.835 -131.834 -71.502 -177.498 c-47.6689 -45.667 -125.836 -80.834 -234.5 -105.501v63c44.667 10 80.334 22 107.001 36s46.334 29 59.001 45s19 37 19 63c0 11.3516 -4.83301 21.1846 -14.5 29.499c-9.68359 8.35254 -20.3506 17.1855 -32 26.5c-11.6709 9.33301 -22.3379 20.5 -32 33.5 c-9.66699 13 -14.5 29.833 -14.5 50.5c0 25.333 9.16699 44.833 27.5 58.5s41.833 20.5 70.5 20.5c33.333 0 61 -13 83 -39s33 -60.667 33 -104z"/>
   <glyph glyph-name="Dcroat" horiz-adv-x="1479" unicode="Đ" d="M631 1341c252.667 0 443.5 -56.5 572.5 -169.5s193.5 -277.5 193.5 -493.5c0 -230 -55 -401.167 -165 -513.5s-276.333 -168.5 -499 -168.5l-502 4h-172v53l172 27v549h-178v82h178v551l-172 26v53h572zM801 711v-82h-377v-535c80 -5.33301 175 -8 285 -8 c164.667 0 285.667 46.833 363 140.5s116 241.5 116 443.5c0 192.667 -49.5 337.667 -148.5 435s-250.167 146 -453.5 146h-162v-540h377z"/>
   <glyph glyph-name="dcroat" horiz-adv-x="1024" unicode="đ" d="M723 70c-75.333 -60 -163.333 -90 -264 -90c-256.667 0 -385 160.333 -385 481c0 164.667 36.333 289.834 109 375.5c72.667 85.667 179.667 128.5 321 128.5c72 0 145 -7.66699 219 -23c-4 22 -6 70.667 -6 146v24h-275v84h275v156l-158 24v45h324v-225h137v-84h-137 v-1042l116 -25v-45h-264zM254 461c0 -126.667 21.333 -221.167 64 -283.5s108 -93.5 196 -93.5c75.333 0 143 13 203 39v743c-59.333 11.333 -127 17 -203 17c-173.333 0 -260 -140.667 -260 -422z"/>
   <glyph glyph-name="Emacron" horiz-adv-x="1251" unicode="Ē" d="M59 53l172 27v1182l-172 26v53h1006v-321h-66l-32 217c-74.667 9.33301 -182.667 14 -324 14h-219v-524h362l31 160h64v-412h-64l-31 162h-362v-547h264c172 0 284.667 5.33301 338 16l57 248h66l-19 -354h-1071v53zM311 1475v109h628v-109h-628z"/>
   <glyph glyph-name="emacron" horiz-adv-x="909" unicode="ē" d="M260 473v-18c0 -92 10.167 -163.5 30.5 -214.5c20.334 -51 51.667 -89.833 94 -116.5s97.833 -40 166.5 -40c36 0 78.667 3 128 9s90 12.667 122 20v-56c-32 -20.667 -75.5 -38.667 -130.5 -54s-111.167 -23 -168.5 -23c-146 0 -252.833 39.333 -320.5 118 s-101.5 205 -101.5 379c0 164 34.333 286.333 103 367s166.667 121 294 121c240.667 0 361 -136.667 361 -410v-82h-578zM477 885c-69.333 0 -122.5 -28 -159.5 -84s-55.5 -138.667 -55.5 -248h402c0 119.333 -15.333 204.5 -46 255.5s-77.667 76.5 -141 76.5zM163 1141v109 h628v-109h-628z"/>
   <glyph glyph-name="Ebreve" horiz-adv-x="1251" unicode="Ĕ" d="M59 53l172 27v1182l-172 26v53h1006v-321h-66l-32 217c-74.667 9.33301 -182.667 14 -324 14h-219v-524h362l31 160h64v-412h-64l-31 162h-362v-547h264c172 0 284.667 5.33301 338 16l57 248h66l-19 -354h-1071v53zM625 1453c-89.334 0 -159 25.5 -209 76.5 s-76 118.833 -78 203.5h74c10.667 -44.667 34.834 -79 72.501 -103s84.5 -36 140.5 -36s102.667 12 140 36s61.666 58.333 72.999 103h74c-3.33301 -87.333 -30 -155.833 -80 -205.5s-119 -74.5 -207 -74.5z"/>
   <glyph glyph-name="ebreve" horiz-adv-x="909" unicode="ĕ" d="M260 473v-18c0 -92 10.167 -163.5 30.5 -214.5c20.334 -51 51.667 -89.833 94 -116.5s97.833 -40 166.5 -40c36 0 78.667 3 128 9s90 12.667 122 20v-56c-32 -20.667 -75.5 -38.667 -130.5 -54s-111.167 -23 -168.5 -23c-146 0 -252.833 39.333 -320.5 118 s-101.5 205 -101.5 379c0 164 34.333 286.333 103 367s166.667 121 294 121c240.667 0 361 -136.667 361 -410v-82h-578zM477 885c-69.333 0 -122.5 -28 -159.5 -84s-55.5 -138.667 -55.5 -248h402c0 119.333 -15.333 204.5 -46 255.5s-77.667 76.5 -141 76.5zM468 1119 c-89.333 0 -159 25.5 -209 76.5s-76 118.833 -78 203.5h74c10.667 -44.667 34.834 -79 72.501 -103s84.5 -36 140.5 -36s102.667 12 140 36s61.666 58.333 72.999 103h74c-3.33301 -87.333 -30 -155.833 -80 -205.5s-119 -74.5 -207 -74.5z"/>
   <glyph glyph-name="Edotaccent" horiz-adv-x="1251" unicode="Ė" d="M59 53l172 27v1182l-172 26v53h1006v-321h-66l-32 217c-74.667 9.33301 -182.667 14 -324 14h-219v-524h362l31 160h64v-412h-64l-31 162h-362v-547h264c172 0 284.667 5.33301 338 16l57 248h66l-19 -354h-1071v53zM744 1581c0 -29.333 -10.667 -54.666 -32 -75.999 s-47 -32 -77 -32c-29.334 0 -54.667 10.667 -75.999 32c-21.333 21.333 -32 46.666 -32 75.999c0 30 10.667 55.667 32 77s46.666 32 75.999 32c30 0 55.667 -10.667 77 -32s32 -47 32 -77z"/>
   <glyph glyph-name="edotaccent" horiz-adv-x="909" unicode="ė" d="M260 473v-18c0 -92 10.167 -163.5 30.5 -214.5c20.334 -51 51.667 -89.833 94 -116.5s97.833 -40 166.5 -40c36 0 78.667 3 128 9s90 12.667 122 20v-56c-32 -20.667 -75.5 -38.667 -130.5 -54s-111.167 -23 -168.5 -23c-146 0 -252.833 39.333 -320.5 118 s-101.5 205 -101.5 379c0 164 34.333 286.333 103 367s166.667 121 294 121c240.667 0 361 -136.667 361 -410v-82h-578zM477 885c-69.333 0 -122.5 -28 -159.5 -84s-55.5 -138.667 -55.5 -248h402c0 119.333 -15.333 204.5 -46 255.5s-77.667 76.5 -141 76.5zM582 1247 c0 -29.333 -10.668 -54.667 -32.001 -76s-47 -32 -77 -32c-29.333 0 -54.666 10.667 -75.999 32c-21.333 21.3428 -32 46.6758 -32 76c0 30 10.667 55.667 32 77c21.334 21.333 46.667 32 76 32c30 0 55.667 -10.667 77 -32s32 -47 32 -77z"/>
   <glyph glyph-name="Eogonek" horiz-adv-x="1251" unicode="Ę" d="M59 53l172 27v1182l-172 26v53h1006v-321h-66l-32 217c-74.667 9.33301 -182.667 14 -324 14h-219v-524h362l31 160h64v-412h-64l-31 162h-362v-547h264c172 0 284.667 5.33301 338 16l57 248h66l-19 -354h-1071v53zM957 -403c-74 0 -131.001 19.166 -171.001 57.499 s-60 91.5 -60 159.5c0 35.333 7.83301 70.5 23.5 105.5c15.6699 35 37.8369 67.167 66.501 96.5h109c-15.3369 -22 -28.1699 -50.333 -38.5 -85c-10.333 -34.667 -15.5 -65.667 -15.5 -93c0 -49.333 11.833 -87.166 35.5 -113.499c23.668 -26.333 57.835 -39.5 102.5 -39.5 c40 0 78.667 7.33301 116 22v-64c-45.333 -30.667 -101.333 -46 -168 -46z"/>
   <glyph glyph-name="eogonek" horiz-adv-x="909" unicode="ę" d="M260 473v-18c0 -92 10.167 -163.5 30.5 -214.5c20.334 -51 51.667 -89.833 94 -116.5s97.833 -40 166.5 -40c36 0 78.667 3 128 9s90 12.667 122 20v-56c-32 -20.667 -75.5 -38.667 -130.5 -54s-111.167 -23 -168.5 -23c-146 0 -252.833 39.333 -320.5 118 s-101.5 205 -101.5 379c0 164 34.333 286.333 103 367s166.667 121 294 121c240.667 0 361 -136.667 361 -410v-82h-578zM477 885c-69.333 0 -122.5 -28 -159.5 -84s-55.5 -138.667 -55.5 -248h402c0 119.333 -15.333 204.5 -46 255.5s-77.667 76.5 -141 76.5zM650 -403 c-74 0 -131.001 19.166 -171.001 57.499s-60 91.5 -60 159.5c0 35.333 7.83301 70.5 23.5 105.5s37.834 67.167 66.501 96.5h109c-15.3379 -22 -28.1709 -50.333 -38.5 -85c-10.333 -34.667 -15.5 -65.667 -15.5 -93c0 -49.333 11.833 -87.166 35.5 -113.499 s57.834 -39.5 102.5 -39.5c40 0 78.667 7.33301 116 22v-64c-45.333 -30.667 -101.333 -46 -168 -46z"/>
   <glyph glyph-name="Ecaron" horiz-adv-x="1251" unicode="Ě" d="M59 53l172 27v1182l-172 26v53h1006v-321h-66l-32 217c-74.667 9.33301 -182.667 14 -324 14h-219v-524h362l31 160h64v-412h-64l-31 162h-362v-547h264c172 0 284.667 5.33301 338 16l57 248h66l-19 -354h-1071v53zM367 1759l268 -183l268 183h56v-33l-217 -273h-213 l-218 273v33h56z"/>
   <glyph glyph-name="ecaron" horiz-adv-x="909" unicode="ě" d="M260 473v-18c0 -92 10.167 -163.5 30.5 -214.5c20.334 -51 51.667 -89.833 94 -116.5s97.833 -40 166.5 -40c36 0 78.667 3 128 9s90 12.667 122 20v-56c-32 -20.667 -75.5 -38.667 -130.5 -54s-111.167 -23 -168.5 -23c-146 0 -252.833 39.333 -320.5 118 s-101.5 205 -101.5 379c0 164 34.333 286.333 103 367s166.667 121 294 121c240.667 0 361 -136.667 361 -410v-82h-578zM477 885c-69.333 0 -122.5 -28 -159.5 -84s-55.5 -138.667 -55.5 -248h402c0 119.333 -15.333 204.5 -46 255.5s-77.667 76.5 -141 76.5zM211 1425 l268 -183l268 183h56v-33l-217 -273h-213l-218 273v33h56z"/>
   <glyph glyph-name="Gcircumflex" horiz-adv-x="1479" unicode="Ĝ" d="M1284 70c-77.333 -25.333 -157.667 -46.666 -241 -63.999s-173 -26 -269 -26c-217.333 0 -386.666 58.667 -507.999 176s-182 283.666 -182 498.999c0 234.667 58.833 410.167 176.5 526.5s290.167 174.5 517.5 174.5c162.667 0 319.667 -20 471 -60v-288h-67l-27 166 c-46 32.667 -101.167 57.834 -165.5 75.501c-64.334 17.667 -132.167 26.5 -203.5 26.5c-170.667 0 -295.5 -50.833 -374.5 -152.5s-118.5 -257.167 -118.5 -466.5c0 -196.667 40.667 -345.834 122 -447.501s201.666 -152.5 360.999 -152.5c56 0 114.667 6.66699 176 20 s108 29.333 140 48v381l-172 26v54h495v-54l-131 -26v-436zM450.999 1453v33l218 273h213l217 -273v-33h-56l-268 183l-268 -183h-56z"/>
   <glyph glyph-name="gcircumflex" horiz-adv-x="1024" unicode="ĝ" d="M870 643c0 -108 -32.335 -189.667 -97.002 -245s-157.667 -83 -279 -83c-54.667 0 -105.334 5 -152 15l-63 -131c2 -11.333 15 -22 39 -32s54 -15 90 -15h278c101.333 0 176.5 -22 225.5 -66s73.5 -104.667 73.5 -182c0 -70 -19.5 -131 -58.5 -183 s-96.167 -92.167 -171.5 -120.5s-166.666 -42.5 -273.999 -42.5c-128 0 -225.5 19.667 -292.5 59s-100.5 95.333 -100.5 168c0 35.333 12 70.166 36 104.499s68 74.5 132 120.5c-38 12.667 -70 34.334 -96 65.001s-39 63.667 -39 99l158 178 c-105.333 49.333 -158 146.333 -158 291c0 102.667 32.5 182 97.5 238s159.5 84 283.5 84c24.668 0 56.335 -2.5 95.001 -7.5c38.668 -5 68.335 -10.833 89 -17.5l221 111l35 -43l-139 -144c44.667 -50 67 -123.667 67 -221zM828.998 -127c0 38 -11.665 67.667 -34.998 89 c-23.335 21.333 -58.668 32 -106 32h-364c-28 -24 -50.833 -54.5 -68.5 -91.5s-26.5 -71.5 -26.5 -103.5c0 -57.333 20.667 -98.5 62 -123.5s104.666 -37.5 189.999 -37.5c111.333 0 197.166 20.667 257.499 62s90.5 99 90.5 173zM496 391 c72.667 0 124.167 20.832 154.5 62.499s45.5 104.834 45.5 189.501c0 88.667 -15.667 151.834 -47 189.5c-31.335 37.667 -81.668 56.5 -151 56.5c-70 0 -121.333 -19 -154 -57s-49 -101 -49 -189s16 -152 48 -192s83 -60 153 -60zM188 1119v33l218 273h213l217 -273v-33 h-56l-268 183l-268 -183h-56z"/>
   <glyph glyph-name="Gbreve" horiz-adv-x="1479" unicode="Ğ" d="M1284 70c-77.333 -25.333 -157.667 -46.666 -241 -63.999s-173 -26 -269 -26c-217.333 0 -386.666 58.667 -507.999 176s-182 283.666 -182 498.999c0 234.667 58.833 410.167 176.5 526.5s290.167 174.5 517.5 174.5c162.667 0 319.667 -20 471 -60v-288h-67l-27 166 c-46 32.667 -101.167 57.834 -165.5 75.501c-64.334 17.667 -132.167 26.5 -203.5 26.5c-170.667 0 -295.5 -50.833 -374.5 -152.5s-118.5 -257.167 -118.5 -466.5c0 -196.667 40.667 -345.834 122 -447.501s201.666 -152.5 360.999 -152.5c56 0 114.667 6.66699 176 20 s108 29.333 140 48v381l-172 26v54h495v-54l-131 -26v-436zM768.999 1453c-89.333 0 -158.999 25.5 -208.999 76.5s-76 118.833 -78 203.5h74c10.667 -44.667 34.834 -79 72.5 -103c37.667 -24 84.5 -36 140.5 -36s102.667 12 140 36s61.666 58.333 72.999 103h74 c-3.33301 -87.333 -30 -155.833 -80 -205.5s-119 -74.5 -207 -74.5z"/>
   <glyph glyph-name="gbreve" horiz-adv-x="1024" unicode="ğ" d="M870 643c0 -108 -32.335 -189.667 -97.002 -245s-157.667 -83 -279 -83c-54.667 0 -105.334 5 -152 15l-63 -131c2 -11.333 15 -22 39 -32s54 -15 90 -15h278c101.333 0 176.5 -22 225.5 -66s73.5 -104.667 73.5 -182c0 -70 -19.5 -131 -58.5 -183 s-96.167 -92.167 -171.5 -120.5s-166.666 -42.5 -273.999 -42.5c-128 0 -225.5 19.667 -292.5 59s-100.5 95.333 -100.5 168c0 35.333 12 70.166 36 104.499s68 74.5 132 120.5c-38 12.667 -70 34.334 -96 65.001s-39 63.667 -39 99l158 178 c-105.333 49.333 -158 146.333 -158 291c0 102.667 32.5 182 97.5 238s159.5 84 283.5 84c24.668 0 56.335 -2.5 95.001 -7.5c38.668 -5 68.335 -10.833 89 -17.5l221 111l35 -43l-139 -144c44.667 -50 67 -123.667 67 -221zM828.998 -127c0 38 -11.665 67.667 -34.998 89 c-23.335 21.333 -58.668 32 -106 32h-364c-28 -24 -50.833 -54.5 -68.5 -91.5s-26.5 -71.5 -26.5 -103.5c0 -57.333 20.667 -98.5 62 -123.5s104.666 -37.5 189.999 -37.5c111.333 0 197.166 20.667 257.499 62s90.5 99 90.5 173zM496 391 c72.667 0 124.167 20.832 154.5 62.499s45.5 104.834 45.5 189.501c0 88.667 -15.667 151.834 -47 189.5c-31.335 37.667 -81.668 56.5 -151 56.5c-70 0 -121.333 -19 -154 -57s-49 -101 -49 -189s16 -152 48 -192s83 -60 153 -60zM484 1119c-89.333 0 -159 25.5 -209 76.5 s-76 118.833 -78 203.5h74c10.667 -44.667 34.834 -79 72.501 -103s84.5 -36 140.5 -36s102.667 12 140 36s61.666 58.333 72.999 103h74c-3.33301 -87.333 -30 -155.833 -80 -205.5s-119 -74.5 -207 -74.5z"/>
   <glyph glyph-name="Gdotaccent" horiz-adv-x="1479" unicode="Ġ" d="M1284 70c-77.333 -25.333 -157.667 -46.666 -241 -63.999s-173 -26 -269 -26c-217.333 0 -386.666 58.667 -507.999 176s-182 283.666 -182 498.999c0 234.667 58.833 410.167 176.5 526.5s290.167 174.5 517.5 174.5c162.667 0 319.667 -20 471 -60v-288h-67l-27 166 c-46 32.667 -101.167 57.834 -165.5 75.501c-64.334 17.667 -132.167 26.5 -203.5 26.5c-170.667 0 -295.5 -50.833 -374.5 -152.5s-118.5 -257.167 -118.5 -466.5c0 -196.667 40.667 -345.834 122 -447.501s201.666 -152.5 360.999 -152.5c56 0 114.667 6.66699 176 20 s108 29.333 140 48v381l-172 26v54h495v-54l-131 -26v-436zM883.999 1581c0 -29.333 -10.666 -54.666 -31.999 -75.999s-47 -32 -77 -32c-29.334 0 -54.667 10.667 -76 32s-32 46.666 -32 75.999c0 30 10.667 55.667 32 77s46.666 32 75.999 32c30 0 55.667 -10.667 77 -32 s32 -47 32 -77z"/>
   <glyph glyph-name="gdotaccent" horiz-adv-x="1024" unicode="ġ" d="M870 643c0 -108 -32.335 -189.667 -97.002 -245s-157.667 -83 -279 -83c-54.667 0 -105.334 5 -152 15l-63 -131c2 -11.333 15 -22 39 -32s54 -15 90 -15h278c101.333 0 176.5 -22 225.5 -66s73.5 -104.667 73.5 -182c0 -70 -19.5 -131 -58.5 -183 s-96.167 -92.167 -171.5 -120.5s-166.666 -42.5 -273.999 -42.5c-128 0 -225.5 19.667 -292.5 59s-100.5 95.333 -100.5 168c0 35.333 12 70.166 36 104.499s68 74.5 132 120.5c-38 12.667 -70 34.334 -96 65.001s-39 63.667 -39 99l158 178 c-105.333 49.333 -158 146.333 -158 291c0 102.667 32.5 182 97.5 238s159.5 84 283.5 84c24.668 0 56.335 -2.5 95.001 -7.5c38.668 -5 68.335 -10.833 89 -17.5l221 111l35 -43l-139 -144c44.667 -50 67 -123.667 67 -221zM828.998 -127c0 38 -11.665 67.667 -34.998 89 c-23.335 21.333 -58.668 32 -106 32h-364c-28 -24 -50.833 -54.5 -68.5 -91.5s-26.5 -71.5 -26.5 -103.5c0 -57.333 20.667 -98.5 62 -123.5s104.666 -37.5 189.999 -37.5c111.333 0 197.166 20.667 257.499 62s90.5 99 90.5 173zM496 391 c72.667 0 124.167 20.832 154.5 62.499s45.5 104.834 45.5 189.501c0 88.667 -15.667 151.834 -47 189.5c-31.335 37.667 -81.668 56.5 -151 56.5c-70 0 -121.333 -19 -154 -57s-49 -101 -49 -189s16 -152 48 -192s83 -60 153 -60zM603 1247 c0 -29.333 -10.668 -54.667 -32.001 -76s-47 -32 -77 -32c-29.333 0 -54.666 10.667 -75.999 32c-21.333 21.3428 -32 46.6758 -32 76c0 30 10.667 55.667 32 77c21.334 21.333 46.667 32 76 32c30 0 55.667 -10.667 77 -32s32 -47 32 -77z"/>
   <glyph glyph-name="Gcommaaccent" horiz-adv-x="1479" unicode="Ģ" d="M1284 70c-77.333 -25.333 -157.667 -46.666 -241 -63.999s-173 -26 -269 -26c-217.333 0 -386.666 58.667 -507.999 176s-182 283.666 -182 498.999c0 234.667 58.833 410.167 176.5 526.5s290.167 174.5 517.5 174.5c162.667 0 319.667 -20 471 -60v-288h-67l-27 166 c-46 32.667 -101.167 57.834 -165.5 75.501c-64.334 17.667 -132.167 26.5 -203.5 26.5c-170.667 0 -295.5 -50.833 -374.5 -152.5s-118.5 -257.167 -118.5 -466.5c0 -196.667 40.667 -345.834 122 -447.501s201.666 -152.5 360.999 -152.5c56 0 114.667 6.66699 176 20 s108 29.333 140 48v381l-172 26v54h495v-54l-131 -26v-436zM870.999 -204c0 -58.667 -16.667 -105.832 -50 -141.499c-33.333 -35.666 -91.333 -65.833 -174 -90.5v63c80 24 120 53.667 120 89c0 15.333 -5.66699 26.666 -17 34c-11.333 7.33301 -24 14.5 -38 21.5 s-26.667 16 -38 27s-17 27.833 -17 50.5c0 25.333 9.16699 45.333 27.5 60s41.833 22 70.5 22c34 0 61.833 -12.833 83.5 -38.5s32.5 -57.834 32.5 -96.501z"/>
   <glyph glyph-name="gcommaaccent" horiz-adv-x="1024" unicode="ģ" d="M870 643c0 -108 -32.335 -189.667 -97.002 -245s-157.667 -83 -279 -83c-54.667 0 -105.334 5 -152 15l-63 -131c2 -11.333 15 -22 39 -32s54 -15 90 -15h278c101.333 0 176.5 -22 225.5 -66s73.5 -104.667 73.5 -182c0 -70 -19.5 -131 -58.5 -183 s-96.167 -92.167 -171.5 -120.5s-166.666 -42.5 -273.999 -42.5c-128 0 -225.5 19.667 -292.5 59s-100.5 95.333 -100.5 168c0 35.333 12 70.166 36 104.499s68 74.5 132 120.5c-38 12.667 -70 34.334 -96 65.001s-39 63.667 -39 99l158 178 c-105.333 49.333 -158 146.333 -158 291c0 102.667 32.5 182 97.5 238s159.5 84 283.5 84c24.668 0 56.335 -2.5 95.001 -7.5c38.668 -5 68.335 -10.833 89 -17.5l221 111l35 -43l-139 -144c44.667 -50 67 -123.667 67 -221zM828.998 -127c0 38 -11.665 67.667 -34.998 89 c-23.335 21.333 -58.668 32 -106 32h-364c-28 -24 -50.833 -54.5 -68.5 -91.5s-26.5 -71.5 -26.5 -103.5c0 -57.333 20.667 -98.5 62 -123.5s104.666 -37.5 189.999 -37.5c111.333 0 197.166 20.667 257.499 62s90.5 99 90.5 173zM496 391 c72.667 0 124.167 20.832 154.5 62.499s45.5 104.834 45.5 189.501c0 88.667 -15.667 151.834 -47 189.5c-31.335 37.667 -81.668 56.5 -151 56.5c-70 0 -121.333 -19 -154 -57s-49 -101 -49 -189s16 -152 48 -192s83 -60 153 -60zM387 1255 c0 58.667 16.667 105.83 50 141.497c33.334 35.667 91.334 65.834 174 90.501v-63c-80 -24 -120 -53.667 -120 -89c0 -15.333 5.66699 -26.666 17 -33.999s24 -14.5 38 -21.5s26.667 -16 38 -27s17 -27.833 17 -50.5c0 -25.333 -9.16699 -45.333 -27.5 -60 s-41.833 -22 -70.5 -22c-34 0 -61.833 12.833 -83.5 38.5s-32.5 57.834 -32.5 96.501z"/>
   <glyph glyph-name="Hcircumflex" horiz-adv-x="1479" unicode="Ĥ" d="M59 0v53l172 27v1182l-172 26v53h537v-53l-172 -26v-527h631v527l-172 26v53h536v-53l-172 -26v-1182l172 -27v-53h-536v53l172 27v565h-631v-565l172 -27v-53h-537zM415 1453v33l218 273h213l217 -273v-33h-56l-268 183l-268 -183h-56z"/>
   <glyph glyph-name="hcircumflex" horiz-adv-x="1024" unicode="ĥ" d="M326 1014c0 -69.333 -2.33203 -119.333 -6.99902 -150c48 27.333 102.5 51 163.5 71s112.5 30 154.5 30c81.333 0 142.666 -23.667 183.999 -71s62 -116 62 -206v-618l114 -25v-45h-405v45l125 25v606c0 114.667 -55.333 172 -166 172 c-62.667 0 -137.667 -9.66699 -225 -29v-749l127 -25v-45h-412v45l119 25v1282l-140 24v45h306v-407zM185.001 1493v33l218 273h213l217 -273v-33h-56l-268 183l-268 -183h-56z"/>
   <glyph glyph-name="Hbar" horiz-adv-x="1479" unicode="Ħ" d="M59 0v53l172 27v877h-171v82h171v223l-172 26v53h537v-53l-172 -26v-223h631v223l-172 26v53h536v-53l-172 -26v-223h173v-82h-173v-877l172 -27v-53h-536v53l172 27v565h-631v-565l172 -27v-53h-537zM1055 735v222h-631v-222h631z"/>
   <glyph glyph-name="hbar" horiz-adv-x="1024" unicode="ħ" d="M326 1196h275.001v-84h-275v-98c0 -69.333 -2.33301 -119.333 -7 -150c48 27.333 102.5 51 163.5 71s112.5 30 154.5 30c81.333 0 142.666 -23.667 183.999 -71s62 -116 62 -206v-618l114 -25v-45h-405v45l125 25v606c0 114.667 -55.333 172 -166 172 c-62.667 0 -137.667 -9.66699 -225 -29v-749l127 -25v-45h-412v45l119 25v1042h-137v84h137v156l-140 24v45h306v-225z"/>
   <glyph glyph-name="Itilde" horiz-adv-x="682" unicode="Ĩ" d="M438 80l172 -27v-53h-536v53l172 27v1182l-172 26v53h536v-53l-172 -26v-1182zM471 1452c-32 0 -61.5 7.16699 -88.5 21.5s-52.5 30.333 -76.5 48s-47.167 33.667 -69.5 48s-44.5 21.5 -66.5 21.5c-21.333 0 -38.5 -4 -51.5 -12s-23.167 -19.5 -30.5 -34.5 s-13.333 -39.167 -18 -72.5h-52c10 161.333 75 242 195 242c32 0 61.5 -7.16699 88.5 -21.5s52.667 -30.333 77 -48c24.334 -17.667 47.667 -33.667 70 -48c22.334 -14.333 44.167 -21.5 65.5 -21.5c28.667 0 51 8.33301 67 25s27 47.667 33 93h52 c-10 -160.667 -75 -241 -195 -241z"/>
   <glyph glyph-name="itilde" horiz-adv-x="569" unicode="ĩ" d="M369 70l161 -25v-45h-487v45l160 25v800l-133 25v45h299v-870zM415 1118c-32 0 -61.499 7.16699 -88.499 21.5s-52.5 30.333 -76.5 48s-47.167 33.667 -69.5 48s-44.5 21.5 -66.5 21.5c-21.333 0 -38.5 -4 -51.5 -12s-23.167 -19.5 -30.5 -34.5 s-13.333 -39.167 -18 -72.5h-52c10 161.333 75 242 195 242c32 0 61.5 -7.16699 88.5 -21.5s52.667 -30.333 77 -48c24.334 -17.667 47.667 -33.667 70 -48c22.334 -14.333 44.167 -21.5 65.499 -21.5c28.667 0 51 8.33301 67 25s27 47.667 33 93h52 c-10 -160.667 -75 -241 -195 -241z"/>
   <glyph glyph-name="Imacron" horiz-adv-x="682" unicode="Ī" d="M438 80l172 -27v-53h-536v53l172 27v1182l-172 26v53h536v-53l-172 -26v-1182zM27 1475v109h628v-109h-628z"/>
   <glyph glyph-name="imacron" horiz-adv-x="569" unicode="ī" d="M369 70l161 -25v-45h-487v45l160 25v800l-133 25v45h299v-870zM-28 1141v109h628v-109h-628z"/>
   <glyph glyph-name="Ibreve" horiz-adv-x="682" unicode="Ĭ" d="M438 80l172 -27v-53h-536v53l172 27v1182l-172 26v53h536v-53l-172 -26v-1182zM341 1453c-89.333 0 -159 25.5 -209 76.5s-76 118.833 -78 203.5h74c10.667 -44.667 34.834 -79 72.501 -103s84.5 -36 140.5 -36s102.667 12 140 36s61.666 58.333 72.999 103h74 c-3.33301 -87.333 -30 -155.833 -80 -205.5s-119 -74.5 -207 -74.5z"/>
   <glyph glyph-name="ibreve" horiz-adv-x="569" unicode="ĭ" d="M369 70l161 -25v-45h-487v45l160 25v800l-133 25v45h299v-870zM286 1119c-89.333 0 -159 25.5 -209 76.5s-76 118.833 -78 203.5h74c10.667 -44.667 34.834 -79 72.501 -103s84.5 -36 140.5 -36s102.667 12 140 36c37.334 24 61.667 58.333 72.999 103h74 c-3.33301 -87.333 -30 -155.833 -80 -205.5s-119 -74.5 -207 -74.5z"/>
   <glyph glyph-name="Iogonek" horiz-adv-x="682" unicode="Į" d="M438 80l172 -27v-53h-536v53l172 27v1182l-172 26v53h536v-53l-172 -26v-1182zM432 -403c-74 0 -131.003 19.166 -171.003 57.499s-60 91.5 -60 159.5c0 35.333 7.83301 70.5 23.5 105.5s37.834 67.167 66.501 96.5h109c-15.333 -22 -28.166 -50.333 -38.499 -85 s-15.5 -65.667 -15.5 -93c0 -49.333 11.833 -87.166 35.5 -113.499s57.834 -39.5 102.501 -39.5c40 0 78.667 7.33301 116 22v-64c-45.333 -30.667 -101.333 -46 -168 -46z"/>
   <glyph glyph-name="iogonek" horiz-adv-x="569" unicode="į" d="M379 1247c0 -29.333 -10.667 -54.667 -32 -76s-47 -32 -77 -32c-29.333 0 -54.666 10.667 -75.999 32c-21.333 21.3428 -32 46.6758 -32 76c0 30 10.667 55.667 32 77s46.666 32 75.999 32c30 0 55.667 -10.667 77 -32s32 -47 32 -77zM369 69.999l161 -25v-45h-487v45 l160 25v800l-133 25v45h299v-870zM364 -403.001c-74 0 -131.002 19.166 -171.002 57.499s-60 91.5 -60 159.5c0 35.333 7.83301 70.5 23.5 105.5s37.834 67.167 66.5 96.5h109c-15.333 -22 -28.166 -50.333 -38.499 -85s-15.5 -65.667 -15.5 -93 c0 -49.333 11.833 -87.166 35.5 -113.499s57.834 -39.5 102.501 -39.5c40 0 78.667 7.33301 116 22v-64c-45.333 -30.667 -101.333 -46 -168 -46z"/>
   <glyph glyph-name="Idotaccent" horiz-adv-x="682" unicode="İ" d="M438 80l172 -27v-53h-536v53l172 27v1182l-172 26v53h536v-53l-172 -26v-1182zM451 1581c0 -29.333 -10.668 -54.666 -32.001 -75.999s-47 -32 -77 -32c-29.333 0 -54.666 10.667 -75.999 32s-32 46.666 -32 75.999c0 30 10.667 55.667 32 77 c21.334 21.333 46.667 32 76 32c30 0 55.667 -10.667 77 -32s32 -47 32 -77z"/>
   <glyph glyph-name="dotlessi" horiz-adv-x="569" unicode="ı" d="M369 70l161 -25v-45h-487v45l160 25v800l-133 25v45h299v-870z"/>
   <glyph glyph-name="IJ" horiz-adv-x="1451" unicode="Ĳ" d="M438 80l172 -27v-53h-536v53l172 27v1182l-172 26v53h536v-53l-172 -26v-1182zM1064 1262l-171.999 26v53h516v-53l-152 -26v-830c0 -89.333 -13.667 -167.5 -41 -234.5s-68.833 -120 -124.5 -159s-117.834 -58.5 -186.501 -58.5c-85.333 0 -154.333 10 -207 30v244h66 l30 -139c12.667 -15.333 30.667 -27.333 54 -36s49 -13 77 -13c93.333 0 140 63.333 140 190v1006z"/>
   <glyph glyph-name="ij" horiz-adv-x="1131" unicode="ĳ" d="M379 1247c0 -29.333 -10.667 -54.667 -32 -76s-47 -32 -77 -32c-29.333 0 -54.666 10.667 -75.999 32c-21.333 21.3428 -32 46.6758 -32 76c0 30 10.667 55.667 32 77s46.666 32 75.999 32c30 0 55.667 -10.667 77 -32s32 -47 32 -77zM369 69.999l161 -25v-45h-487v45 l160 25v800l-133 25v45h299v-870zM955 1247c0 -29.333 -10.666 -54.667 -31.999 -76c-21.3369 -21.333 -46.6699 -32 -76 -32c-30 0 -55.667 10.667 -77 32c-21.333 21.3428 -32 46.6758 -32 76c0 30 10.667 55.667 32 77s47 32 77 32c29.333 0 54.666 -10.667 75.999 -32 s32 -47 32 -77zM945.001 -39.002c0 -130 -25.167 -228.667 -75.5 -296c-50.334 -67.333 -124.167 -101 -221.5 -101c-41.334 0 -89.667 6 -145 18v199h47l27 -109c22 -18.667 49.667 -28 83 -28c39.333 0 69 21 89 63s30 109.667 30 203v960l-141 25v45h307v-979z"/>
   <glyph glyph-name="Jcircumflex" horiz-adv-x="797" unicode="Ĵ" d="M410 1262l-172 26v53h516v-53l-152 -26v-830c0 -89.333 -13.667 -167.5 -41 -234.5c-27.334 -67 -68.834 -120 -124.5 -159c-55.667 -39 -117.834 -58.5 -186.5 -58.5c-85.333 0 -154.333 10 -207 30v244h66l30 -139c12.667 -15.333 30.667 -27.333 54 -36s49 -13 77 -13 c93.333 0 140 63.333 140 190v1006zM180 1453v33l218 273h213l217 -273v-33h-56l-268 183l-268 -183h-56z"/>
   <glyph glyph-name="jcircumflex" horiz-adv-x="569" unicode="ĵ" d="M383 -39c0 -130 -25.1689 -228.667 -75.502 -296s-124.166 -101 -221.499 -101c-41.333 0 -89.666 6 -144.999 18v199h47l27 -109c22 -18.667 49.667 -28 83 -28c39.333 0 69 21 89 63s30 109.667 30 203v960l-141 25v45h307v-979zM-39.002 1119v33l218 273h213l217 -273 v-33h-56l-268 183l-268 -183h-56z"/>
   <glyph glyph-name="Kcommaaccent" horiz-adv-x="1479" unicode="Ķ" d="M1353 1341v-53l-155 -26l-458 -448l573 -734l145 -27v-53h-328l-525 678l-181 -145v-453l192 -27v-53h-557v53l172 27v1182l-172 26v53h537v-53l-172 -26v-632l642 632l-133 26v53h420zM879 -204c0 -58.667 -16.667 -105.832 -50 -141.499 c-33.333 -35.666 -91.333 -65.833 -174 -90.5v63c80 24 120 53.667 120 89c0 15.333 -5.66699 26.666 -17 34c-11.333 7.33301 -24 14.5 -38 21.5s-26.667 16 -38 27s-17 27.833 -17 50.5c0 25.333 9.16699 45.333 27.5 60s41.833 22 70.5 22 c34 0 61.833 -12.833 83.5 -38.5s32.5 -57.834 32.5 -96.501z"/>
   <glyph glyph-name="kcommaaccent" horiz-adv-x="1024" unicode="ķ" d="M344 453l385 415l-98 27v45h332v-45l-117 -23l-268 -274l344 -530l102 -23v-45h-385v45l86 25l-258 405l-123 -135v-270l100 -25v-45h-385v45l119 25v1282l-139 24v45h305v-968zM625 -204c0 -58.667 -16.667 -105.832 -50 -141.499 c-33.334 -35.666 -91.334 -65.833 -174 -90.5v63c80 24 120 53.667 120 89c0 15.333 -5.66699 26.666 -17 34c-11.333 7.33301 -24 14.5 -38 21.5s-26.667 16 -38 27s-17 27.833 -17 50.5c0 25.333 9.16699 45.333 27.5 60s41.833 22 70.5 22 c34 0 61.833 -12.833 83.5 -38.5s32.5 -57.834 32.5 -96.501z"/>
   <glyph glyph-name="kgreenlandic" horiz-adv-x="1024" unicode="ĸ" d="M344 453l385 415l-98 27v45h332v-45l-117 -23l-268 -274l344 -530l102 -23v-45h-385v45l86 25l-258 405l-123 -135v-270l100 -25v-45h-385v45l119 25v801l-139 24v45h305v-487z"/>
   <glyph glyph-name="Lacute" horiz-adv-x="1251" unicode="Ĺ" d="M631 1288l-207 -26v-1176h264c142 0 246.333 6.66699 313 20l62 279h65l-18 -385h-1051v53l172 27v1182l-172 26v53h572v-53zM293 1453v33l196 272h213v-37l-354 -268h-55z"/>
   <glyph glyph-name="lacute" horiz-adv-x="569" unicode="ĺ" d="M367 70l161 -25v-45h-487v45l160 25v1282l-160 24v45h326v-1351zM151 1493v33l196 272h213v-37l-354 -268h-55z"/>
   <glyph glyph-name="Lcommaaccent" horiz-adv-x="1251" unicode="Ļ" d="M631 1288l-207 -26v-1176h264c142 0 246.333 6.66699 313 20l62 279h65l-18 -385h-1051v53l172 27v1182l-172 26v53h572v-53zM735 -204c0 -58.667 -16.667 -105.832 -50 -141.499c-33.333 -35.666 -91.333 -65.833 -174 -90.5v63c80 24 120 53.667 120 89 c0 15.333 -5.66699 26.666 -17 34c-11.333 7.33301 -24 14.5 -38 21.5s-26.667 16 -38 27s-17 27.833 -17 50.5c0 25.333 9.16699 45.333 27.5 60s41.833 22 70.5 22c34 0 61.833 -12.833 83.5 -38.5s32.5 -57.834 32.5 -96.501z"/>
   <glyph glyph-name="lcommaaccent" horiz-adv-x="569" unicode="ļ" d="M367 70l161 -25v-45h-487v45l160 25v1282l-160 24v45h326v-1351zM391 -204c0 -58.667 -16.667 -105.832 -50 -141.499c-33.333 -35.666 -91.333 -65.833 -174 -90.5v63c80 24 120 53.667 120 89c0 15.333 -5.66699 26.666 -17 34c-11.333 7.33301 -24 14.5 -38 21.5 s-26.667 16 -38 27s-17 27.833 -17 50.5c0 25.333 9.16699 45.333 27.5 60s41.833 22 70.5 22c34 0 61.833 -12.833 83.5 -38.5s32.5 -57.834 32.5 -96.501z"/>
   <glyph glyph-name="Lcaron" horiz-adv-x="1251" unicode="Ľ" d="M631 1288l-207 -26v-1176h264c142 0 246.333 6.66699 313 20l62 279h65l-18 -385h-1051v53l172 27v1182l-172 26v53h572v-53zM1086 1198c0 -72.6689 -23.8301 -131.834 -71.4971 -177.499c-47.667 -45.667 -125.834 -80.834 -234.501 -105.501v63 c44.668 10 80.335 22 107 36c26.6699 14 46.3369 29 59 45c12.667 16 19 37 19 63c0 11.3506 -4.83301 21.1836 -14.5 29.5c-9.66699 8.35156 -20.334 17.1846 -32.001 26.5c-11.667 9.33301 -22.334 20.5 -32.001 33.5s-14.5 29.833 -14.5 50.5 c0 25.333 9.16699 44.833 27.5 58.5s41.833 20.5 70.5 20.5c33.333 0 61 -13 83 -39s33 -60.667 33 -104z"/>
   <glyph glyph-name="lcaron" horiz-adv-x="832" unicode="ľ" d="M397 70l161 -25v-45h-487v45l160 25v1282l-160 24v45h326v-1351zM796 1279c0 -72.6689 -23.8311 -131.834 -71.498 -177.498c-47.667 -45.667 -125.834 -80.834 -234.501 -105.501v63c44.668 10 80.335 22 107.001 36c26.6689 14 46.3359 29 59 45c12.667 16 19 37 19 63 c0 11.3516 -4.83301 21.1846 -14.5 29.499c-9.66699 8.35254 -20.334 17.1855 -32.001 26.5c-11.667 9.33301 -22.334 20.5 -32.001 33.5s-14.5 29.833 -14.5 50.5c0 25.333 9.16699 44.833 27.5 58.5s41.833 20.5 70.5 20.5c33.333 0 61 -13 83 -39s33 -60.667 33 -104z "/>
   <glyph glyph-name="Ldot" horiz-adv-x="1251" unicode="Ŀ" d="M631 1288l-207 -26v-1176h264c142 0 246.333 6.66699 313 20l62 279h65l-18 -385h-1051v53l172 27v1182l-172 26v53h572v-53zM919 733c0 -29.335 -10.667 -54.667 -32 -75.999c-21.333 -21.333 -47 -32 -77 -32c-29.333 0 -54.666 10.667 -75.999 32 s-32 46.666 -32 75.999c0 30 10.667 55.667 32 77s46.666 32 75.999 32c30 0 55.667 -10.667 77 -32s32 -47 32 -77z"/>
   <glyph glyph-name="ldot" horiz-adv-x="704" unicode="ŀ" d="M367 70l161 -25v-45h-487v45l160 25v1282l-160 24v45h326v-1351zM695 733c0 -29.335 -10.666 -54.667 -31.999 -75.999c-21.333 -21.333 -47 -32 -77 -32c-29.334 0 -54.667 10.667 -76 32s-32 46.666 -32 75.999c0 30 10.667 55.667 32 77s46.666 32 75.999 32 c30 0 55.667 -10.667 77 -32s32 -47 32 -77z"/>
   <glyph glyph-name="Lslash" horiz-adv-x="1251" unicode="Ł" d="M43 518l188 109v635l-172 26v53h572v-53l-207 -26v-525l307 178v-94l-307 -178v-557h264c142 0 246.333 6.66699 313 20l62 279h65l-18 -385h-1051v53l172 27v452l-188 -110v96z"/>
   <glyph glyph-name="lslash" horiz-adv-x="569" unicode="ł" d="M20 518l181 103v731l-160 24v45h326v-704l192 112v-94l-192 -112v-553l161 -25v-45h-487v45l160 25v456l-181 -104v96z"/>
   <glyph glyph-name="Nacute" horiz-adv-x="1479" unicode="Ń" d="M1155 1262l-180 26v53h457v-53l-172 -26v-1262h-97l-827 1206v-1126l180 -27v-53h-457v53l172 27v1182l-172 26v53h406l690 -993v914zM659 1453v33l196 272h213v-37l-354 -268h-55z"/>
   <glyph glyph-name="nacute" horiz-adv-x="1024" unicode="ń" d="M324 864c51.333 29.333 106.001 53.5 164.001 72.5s106.333 28.5 145 28.5c81.333 0 142.666 -23.667 183.999 -71s62 -116 62 -206v-618l114 -25v-45h-405v45l125 25v600c0 55.333 -13.5 98.833 -40.5 130.5s-68.833 47.5 -125.5 47.5c-60 0 -133.667 -9.66699 -221 -29 v-749l127 -25v-45h-406v45l113 25v800l-113 25v45h268zM413.001 1119v33l196 272h213v-37l-354 -268h-55z"/>
   <glyph glyph-name="Ncommaaccent" horiz-adv-x="1479" unicode="Ņ" d="M1155 1262l-180 26v53h457v-53l-172 -26v-1262h-97l-827 1206v-1126l180 -27v-53h-457v53l172 27v1182l-172 26v53h406l690 -993v914zM832 -204c0 -58.667 -16.667 -105.832 -50 -141.499c-33.333 -35.666 -91.333 -65.833 -174 -90.5v63c80 24 120 53.667 120 89 c0 15.333 -5.66699 26.666 -17 34c-11.333 7.33301 -24 14.5 -38 21.5s-26.667 16 -38 27s-17 27.833 -17 50.5c0 25.333 9.16699 45.333 27.5 60s41.833 22 70.5 22c34 0 61.833 -12.833 83.5 -38.5s32.5 -57.834 32.5 -96.501z"/>
   <glyph glyph-name="ncommaaccent" horiz-adv-x="1024" unicode="ņ" d="M324 864c51.333 29.333 106.001 53.5 164.001 72.5s106.333 28.5 145 28.5c81.333 0 142.666 -23.667 183.999 -71s62 -116 62 -206v-618l114 -25v-45h-405v45l125 25v600c0 55.333 -13.5 98.833 -40.5 130.5s-68.833 47.5 -125.5 47.5c-60 0 -133.667 -9.66699 -221 -29 v-749l127 -25v-45h-406v45l113 25v800l-113 25v45h268zM614.001 -204c0 -58.667 -16.667 -105.832 -50 -141.499c-33.334 -35.666 -91.334 -65.833 -174 -90.5v63c80 24 120 53.667 120 89c0 15.333 -5.66699 26.666 -17 34c-11.333 7.33301 -24 14.5 -38 21.5 s-26.667 16 -38 27s-17 27.833 -17 50.5c0 25.333 9.16699 45.333 27.5 60s41.833 22 70.5 22c34 0 61.833 -12.833 83.5 -38.5s32.5 -57.834 32.5 -96.501z"/>
   <glyph glyph-name="Ncaron" horiz-adv-x="1479" unicode="Ň" d="M1155 1262l-180 26v53h457v-53l-172 -26v-1262h-97l-827 1206v-1126l180 -27v-53h-457v53l172 27v1182l-172 26v53h406l690 -993v914zM471 1759l268 -183l268 183h56v-33l-217 -273h-213l-218 273v33h56z"/>
   <glyph glyph-name="ncaron" horiz-adv-x="1024" unicode="ň" d="M324 864c51.333 29.333 106.001 53.5 164.001 72.5s106.333 28.5 145 28.5c81.333 0 142.666 -23.667 183.999 -71s62 -116 62 -206v-618l114 -25v-45h-405v45l125 25v600c0 55.333 -13.5 98.833 -40.5 130.5s-68.833 47.5 -125.5 47.5c-60 0 -133.667 -9.66699 -221 -29 v-749l127 -25v-45h-406v45l113 25v800l-113 25v45h268zM246.001 1425l268 -183l268 183h56v-33l-217 -273h-213l-218 273v33h56z"/>
   <glyph glyph-name="napostrophe" horiz-adv-x="1237" unicode="ŉ" d="M533 864c51.333 29.333 106.001 53.5 164.001 72.5s106.333 28.5 145 28.5c81.333 0 142.666 -23.667 183.999 -71s62 -116 62 -206v-618l114 -25v-45h-405v45l125 25v600c0 55.333 -13.5 98.833 -40.5 130.5s-68.833 47.5 -125.5 47.5c-60 0 -133.667 -9.66699 -221 -29 v-749l127 -25v-45h-406v45l113 25v800l-113 25v45h268zM307.001 1259c0 -91.333 -26.5 -167.834 -79.5 -229.501s-128.167 -106.5 -225.5 -134.5v77c117.333 37.333 176 93.333 176 168c0 13.333 -5 25.333 -15 36s-27.333 22.334 -52 35.001 c-45.333 23.333 -68 56.333 -68 99c0 36 11.333 63.5 34 82.5s51.667 28.5 87 28.5c40.667 0 74.667 -14.5 102 -43.5s41 -68.5 41 -118.5z"/>
   <glyph glyph-name="Eng" horiz-adv-x="1437" unicode="Ŋ" d="M1090 950c0 92.667 -19.667 162.667 -59 210s-104 71 -194 71c-57.334 0 -121.667 -10 -193 -30s-144.666 -49 -219.999 -87v-1034l172 -27v-53h-537v53l172 27v1182l-172 26v53h363l2 -140c78 44 161.833 80 251.5 108s168.834 42 237.5 42 c128.667 0 222.167 -30.667 280.5 -92s87.5 -161.333 87.5 -300v-527c0 -89.333 -13.667 -167.5 -41 -234.5s-68.833 -120 -124.5 -159s-117.834 -58.5 -186.501 -58.5c-85.333 0 -154.333 10 -207 30v244h66l30 -139c12.667 -15.333 30.667 -27.333 54 -36s49 -13 77 -13 c94 0 141 63.333 141 190v694z"/>
   <glyph glyph-name="eng" horiz-adv-x="1013" unicode="ŋ" d="M833 -39c0 -130 -25.1689 -228.667 -75.502 -296c-50.334 -67.333 -124.167 -101 -221.5 -101c-41.333 0 -89.666 6 -144.999 18v199h47l27 -109c22 -18.667 49.667 -28 83 -28c39.333 0 69 21 89 63s30 109.667 30 203v760c0 118.667 -48.333 178 -145 178 c-53.333 0 -118.666 -9.66699 -195.999 -29v-749l127 -25v-45h-406v45l113 25v800l-113 25v45h268l9 -76c43.334 28 92.167 51.833 146.5 71.5s100.5 29.5 138.5 29.5c73.333 0 129 -23.5 167 -70.5s57 -115.833 57 -206.5v-727z"/>
   <glyph glyph-name="Omacron" horiz-adv-x="1479" unicode="Ō" d="M293 672c0 -215.333 36 -371.333 108 -468s184.667 -145 338 -145c152.667 0 265.334 48.333 338 145c72.667 96.667 109 252.667 109 468c0 214 -36.167 368.167 -108.5 462.5c-72.334 94.333 -185.167 141.5 -338.5 141.5c-154 0 -266.833 -47.167 -338.5 -141.5 s-107.5 -248.5 -107.5 -462.5zM84 672c0 456 218.333 684.001 655 684.001c216 0 379.333 -57.833 490 -173.5s166 -285.834 166 -510.501c0 -228 -56 -400.333 -168 -517s-274.667 -175 -488 -175c-212.667 0 -375 58.167 -487 174.5s-168 288.833 -168 517.5zM425 1475 v109h628v-109h-628z"/>
   <glyph glyph-name="omacron" horiz-adv-x="1024" unicode="ō" d="M946 475c0 -330 -146.667 -495.001 -440 -495.001c-141.333 0 -248 42.333 -320 127s-108 207.334 -108 368.001c0 158.667 36 280 108 364s181.333 126 328 126c142.667 0 250.334 -41.167 323 -123.5c72.667 -82.333 109 -204.5 109 -366.5zM766 474.999 c0 144 -21 248.333 -63 313s-107.667 97 -197 97c-87.333 0 -150.5 -31 -189.5 -93s-58.5 -167.667 -58.5 -317c0 -151.333 19.833 -258.5 59.5 -321.5s102.5 -94.5 188.5 -94.5c88 0 153.333 32.667 196 98s64 171.333 64 318zM198 1141v109h628v-109h-628z"/>
   <glyph glyph-name="Obreve" horiz-adv-x="1479" unicode="Ŏ" d="M293 672c0 -215.333 36 -371.333 108 -468s184.667 -145 338 -145c152.667 0 265.334 48.333 338 145c72.667 96.667 109 252.667 109 468c0 214 -36.167 368.167 -108.5 462.5c-72.334 94.333 -185.167 141.5 -338.5 141.5c-154 0 -266.833 -47.167 -338.5 -141.5 s-107.5 -248.5 -107.5 -462.5zM84 672c0 456 218.333 684.001 655 684.001c216 0 379.333 -57.833 490 -173.5s166 -285.834 166 -510.501c0 -228 -56 -400.333 -168 -517s-274.667 -175 -488 -175c-212.667 0 -375 58.167 -487 174.5s-168 288.833 -168 517.5zM739 1453 c-89.333 0 -159 25.5 -209 76.5s-76 118.833 -78 203.5h74c10.6689 -44.667 34.8359 -79 72.501 -103c37.667 -24 84.5 -36 140.5 -36s102.667 12 140 36s61.666 58.333 72.999 103h74c-3.33301 -87.333 -30 -155.833 -80 -205.5s-119 -74.5 -207 -74.5z"/>
   <glyph glyph-name="obreve" horiz-adv-x="1024" unicode="ŏ" d="M946 475c0 -330 -146.667 -495.001 -440 -495.001c-141.333 0 -248 42.333 -320 127s-108 207.334 -108 368.001c0 158.667 36 280 108 364s181.333 126 328 126c142.667 0 250.334 -41.167 323 -123.5c72.667 -82.333 109 -204.5 109 -366.5zM766 474.999 c0 144 -21 248.333 -63 313s-107.667 97 -197 97c-87.333 0 -150.5 -31 -189.5 -93s-58.5 -167.667 -58.5 -317c0 -151.333 19.833 -258.5 59.5 -321.5s102.5 -94.5 188.5 -94.5c88 0 153.333 32.667 196 98s64 171.333 64 318zM512 1119c-89.333 0 -159 25.5 -209 76.5 s-76 118.833 -78 203.5h74c10.667 -44.667 34.834 -79 72.501 -103s84.5 -36 140.5 -36s102.667 12 140 36s61.666 58.333 72.999 103h74c-3.33301 -87.333 -30 -155.833 -80 -205.5s-119 -74.5 -207 -74.5z"/>
   <glyph glyph-name="Ohungarumlaut" horiz-adv-x="1479" unicode="Ő" d="M293 672c0 -215.333 36 -371.333 108 -468s184.667 -145 338 -145c152.667 0 265.334 48.333 338 145c72.667 96.667 109 252.667 109 468c0 214 -36.167 368.167 -108.5 462.5c-72.334 94.333 -185.167 141.5 -338.5 141.5c-154 0 -266.833 -47.167 -338.5 -141.5 s-107.5 -248.5 -107.5 -462.5zM84 672c0 456 218.333 684.001 655 684.001c216 0 379.333 -57.833 490 -173.5s166 -285.834 166 -510.501c0 -228 -56 -400.333 -168 -517s-274.667 -175 -488 -175c-212.667 0 -375 58.167 -487 174.5s-168 288.833 -168 517.5zM465 1453v33 l156 272h192v-37l-293 -268h-55zM815 1453v33l156 272h192v-37l-292 -268h-56z"/>
   <glyph glyph-name="ohungarumlaut" horiz-adv-x="1024" unicode="ő" d="M946 475c0 -330 -146.667 -495.001 -440 -495.001c-141.333 0 -248 42.333 -320 127s-108 207.334 -108 368.001c0 158.667 36 280 108 364s181.333 126 328 126c142.667 0 250.334 -41.167 323 -123.5c72.667 -82.333 109 -204.5 109 -366.5zM766 474.999 c0 144 -21 248.333 -63 313s-107.667 97 -197 97c-87.333 0 -150.5 -31 -189.5 -93s-58.5 -167.667 -58.5 -317c0 -151.333 19.833 -258.5 59.5 -321.5s102.5 -94.5 188.5 -94.5c88 0 153.333 32.667 196 98s64 171.333 64 318zM236 1119v33l156 272h192v-37l-293 -268h-55z M586 1119v33l156 272h192v-37l-292 -268h-56z"/>
   <glyph glyph-name="OE" horiz-adv-x="1821" unicode="Œ" d="M1016 0l-277 -6.00098c-216.667 0 -380 56.833 -490 170.5s-165 282.834 -165 507.501c0 226 54 395.167 162 507.5s272.333 168.5 493 168.5l273 -7h622v-321h-65l-33 217c-74.667 9.33301 -182.667 14 -324 14h-137v-524h281l30 160h64v-412h-64l-30 162h-281v-547h182 c172 0 284.667 5.33301 338 16l58 248h65l-18 -354h-684zM739 73.999c52 0 99.333 3.33301 142 10v1173c-33.335 7.33301 -80.668 11 -142 11c-154 0 -266.833 -46.167 -338.5 -138.5s-107.5 -244.833 -107.5 -457.5c0 -213.333 35.833 -366.333 107.5 -459 s184.5 -139 338.5 -139z"/>
   <glyph glyph-name="oe" horiz-adv-x="1479" unicode="œ" d="M864 473l0.000976562 -17.999c0 -133.333 22.667 -228.5 68 -285.5s113.666 -85.5 204.999 -85.5c34 0 74.167 3 120.5 9s83.833 12.667 112.5 20v-56c-31.333 -21.333 -73.666 -39.5 -126.999 -54.5s-106 -22.5 -158 -22.5c-145.333 0 -250.333 43.667 -315 131 c-66 -87.333 -167.667 -131 -305 -131c-128.667 0 -225.334 42.167 -290.001 126.5s-97 207.166 -97 368.499c0 158.667 32.5 280 97.5 364s164.167 126 297.5 126s233 -45.333 299 -136c63.333 90.667 160.333 136 291 136c229.333 0 344 -136.667 344 -410v-82h-543z M465.001 885.001c-73.333 0 -126.167 -31.167 -158.5 -93.5s-48.5 -167.833 -48.5 -316.5c0 -149.333 16.333 -256 49 -320s85.334 -96 158.001 -96c75.333 0 130.666 33.333 165.999 100s53 172 53 316v27c-3.33398 138 -22.667 236.333 -58 295s-89 88 -161 88z M1063 885.001c-64 0 -112.833 -28 -146.5 -84s-50.5 -138.667 -50.5 -248h367c0 117.333 -13.833 202 -41.5 254s-70.5 78 -128.5 78z"/>
   <glyph glyph-name="Racute" horiz-adv-x="1366" unicode="Ŕ" d="M424 588v-508l203 -27v-53h-555v53l159 27v1182l-172 26v53h579c168 0 292 -28.333 372 -85s120 -147.667 120 -273c0 -89.333 -24.333 -166.5 -73 -231.5s-116 -110.167 -202 -135.5l363 -536l145 -27v-53h-321l-377 588h-241zM931 969 c0 102 -24.8311 174.501 -74.498 217.501s-136.834 64.5 -261.501 64.5h-171v-573h177c119.333 0 204.166 22.167 254.499 66.5s75.5 119.166 75.5 224.499zM536.002 1453v33l196 272h213v-37l-354 -268h-55z"/>
   <glyph glyph-name="racute" horiz-adv-x="682" unicode="ŕ" d="M664 965v-254h-43l-58 110c-33.334 0 -72.834 -4.5 -118.5 -13.5c-45.667 -9 -85.167 -20.833 -118.5 -35.5v-702l161 -25v-45h-446v45l119 25v800l-119 25v45h274l9 -117c40 33.333 94.167 65.333 162.5 96s122.5 46 162.5 46h15zM269 1119v33l196 272h213v-37 l-354 -268h-55z"/>
   <glyph glyph-name="Rcommaaccent" horiz-adv-x="1366" unicode="Ŗ" d="M424 588v-508l203 -27v-53h-555v53l159 27v1182l-172 26v53h579c168 0 292 -28.333 372 -85s120 -147.667 120 -273c0 -89.333 -24.333 -166.5 -73 -231.5s-116 -110.167 -202 -135.5l363 -536l145 -27v-53h-321l-377 588h-241zM931 969 c0 102 -24.8311 174.501 -74.498 217.501s-136.834 64.5 -261.501 64.5h-171v-573h177c119.333 0 204.166 22.167 254.499 66.5s75.5 119.166 75.5 224.499zM824.002 -203.999c0 -58.667 -16.667 -105.832 -50 -141.499c-33.333 -35.666 -91.333 -65.833 -174 -90.5v63 c80 24 120 53.667 120 89c0 15.333 -5.66699 26.666 -17 34c-11.333 7.33301 -24 14.5 -38 21.5s-26.667 16 -38 27s-17 27.833 -17 50.5c0 25.333 9.16699 45.333 27.5 60s41.833 22 70.5 22c34 0 61.833 -12.833 83.5 -38.5s32.5 -57.834 32.5 -96.501z"/>
   <glyph glyph-name="rcommaaccent" horiz-adv-x="682" unicode="ŗ" d="M664 965v-254h-43l-58 110c-33.334 0 -72.834 -4.5 -118.5 -13.5c-45.667 -9 -85.167 -20.833 -118.5 -35.5v-702l161 -25v-45h-446v45l119 25v800l-119 25v45h274l9 -117c40 33.333 94.167 65.333 162.5 96s122.5 46 162.5 46h15zM351 -204 c0 -58.667 -16.667 -105.832 -50 -141.499c-33.333 -35.666 -91.333 -65.833 -174 -90.5v63c80 24 120 53.667 120 89c0 15.333 -5.66699 26.666 -17 34c-11.333 7.33301 -24 14.5 -38 21.5s-26.667 16 -38 27s-17 27.833 -17 50.5c0 25.333 9.16699 45.333 27.5 60 s41.833 22 70.5 22c34 0 61.833 -12.833 83.5 -38.5s32.5 -57.834 32.5 -96.501z"/>
   <glyph glyph-name="Rcaron" horiz-adv-x="1366" unicode="Ř" d="M424 588v-508l203 -27v-53h-555v53l159 27v1182l-172 26v53h579c168 0 292 -28.333 372 -85s120 -147.667 120 -273c0 -89.333 -24.333 -166.5 -73 -231.5s-116 -110.167 -202 -135.5l363 -536l145 -27v-53h-321l-377 588h-241zM931 969 c0 102 -24.8311 174.501 -74.498 217.501s-136.834 64.5 -261.501 64.5h-171v-573h177c119.333 0 204.166 22.167 254.499 66.5s75.5 119.166 75.5 224.499zM365.002 1759l268 -183l268 183h56v-33l-217 -273h-213l-218 273v33h56z"/>
   <glyph glyph-name="rcaron" horiz-adv-x="682" unicode="ř" d="M664 965v-254h-43l-58 110c-33.334 0 -72.834 -4.5 -118.5 -13.5c-45.667 -9 -85.167 -20.833 -118.5 -35.5v-702l161 -25v-45h-446v45l119 25v800l-119 25v45h274l9 -117c40 33.333 94.167 65.333 162.5 96s122.5 46 162.5 46h15zM74 1425l268 -183l268 183h56v-33 l-217 -273h-213l-218 273v33h56z"/>
   <glyph glyph-name="Sacute" horiz-adv-x="1139" unicode="Ś" d="M139 361l65.0029 0.000976562l35 -181c24.667 -31.333 67.167 -59 127.5 -83s119.833 -36 178.5 -36c93.333 0 166.166 23.833 218.499 71.5s78.5 113.5 78.5 197.5c0 48 -10.167 87.667 -30.5 119s-47 57.833 -80 79.5s-70.5 40 -112.5 55s-85.167 30.167 -129.5 45.5 s-87.5 32.333 -129.5 51c-42 18.6689 -79.5 42.3359 -112.5 71c-33 28.667 -59.667 64.167 -80 106.5s-30.5 94.5 -30.5 156.5c0 106.667 40 190.334 120 251.001s191 91 333 91c108 0 225.333 -14.333 352 -43v-279h-65l-35 164c-68 49.333 -152 74 -252 74 c-89.333 0 -159.166 -18.167 -209.499 -54.5s-75.5 -86.5 -75.5 -150.5c0 -43.333 10.167 -79.333 30.5 -108s47 -53.167 80 -73.5s70.667 -37.833 113 -52.5s85.666 -29.834 129.999 -45.501s87.666 -33.334 129.999 -53.001s80 -44.667 113 -75s59.667 -67.333 80 -111 s30.5 -97.5 30.5 -161.5c0 -129.333 -39.667 -229.5 -119 -300.5c-79.334 -71 -193.667 -106.5 -343 -106.5c-72 0 -144.333 6.33301 -217 19s-137.334 30 -194.001 52v310zM486.003 1453v33l196 272h213v-37l-354 -268h-55z"/>
   <glyph glyph-name="sacute" horiz-adv-x="797" unicode="ś" d="M723 264c0 -93.333 -29.498 -164.002 -88.498 -212.002s-146.167 -72 -261.5 -72c-46.667 0 -98.167 4.83301 -154.5 14.5s-100.5 20.5 -132.5 32.5v231h45l49 -131c50 -45.333 115 -68 195 -68c129.333 0 194 55.333 194 166c0 81.333 -51 139.333 -153 174l-89 29 c-67.333 22 -116.333 44.333 -147 67s-54.334 50.5 -71.001 83.5s-25 72.833 -25 119.5c0 82.667 28.167 147.834 84.5 195.5c56.333 47.667 132.5 71.5 228.5 71.5c68.667 0 154.667 -10.333 258 -31v-205h-47l-42 109c-35.334 31.333 -91.001 47 -167.001 47 c-54 0 -95.167 -13.333 -123.5 -40s-42.5 -62.667 -42.5 -108c0 -38 12.833 -70 38.5 -96s64.5 -47.667 116.5 -65c98 -33.334 162 -57.667 192 -72.999c30 -15.333 55.5 -34.166 76.5 -56.499s37.333 -47.833 49 -76.5s17.5 -64 17.5 -106zM301.002 1119v33l196 272h213 v-37l-354 -268h-55z"/>
   <glyph glyph-name="Scircumflex" horiz-adv-x="1139" unicode="Ŝ" d="M139 361l65.0029 0.000976562l35 -181c24.667 -31.333 67.167 -59 127.5 -83s119.833 -36 178.5 -36c93.333 0 166.166 23.833 218.499 71.5s78.5 113.5 78.5 197.5c0 48 -10.167 87.667 -30.5 119s-47 57.833 -80 79.5s-70.5 40 -112.5 55s-85.167 30.167 -129.5 45.5 s-87.5 32.333 -129.5 51c-42 18.6689 -79.5 42.3359 -112.5 71c-33 28.667 -59.667 64.167 -80 106.5s-30.5 94.5 -30.5 156.5c0 106.667 40 190.334 120 251.001s191 91 333 91c108 0 225.333 -14.333 352 -43v-279h-65l-35 164c-68 49.333 -152 74 -252 74 c-89.333 0 -159.166 -18.167 -209.499 -54.5s-75.5 -86.5 -75.5 -150.5c0 -43.333 10.167 -79.333 30.5 -108s47 -53.167 80 -73.5s70.667 -37.833 113 -52.5s85.666 -29.834 129.999 -45.501s87.666 -33.334 129.999 -53.001s80 -44.667 113 -75s59.667 -67.333 80 -111 s30.5 -97.5 30.5 -161.5c0 -129.333 -39.667 -229.5 -119 -300.5c-79.334 -71 -193.667 -106.5 -343 -106.5c-72 0 -144.333 6.33301 -217 19s-137.334 30 -194.001 52v310zM245.003 1453v33l218 273h213l217 -273v-33h-56l-268 183l-268 -183h-56z"/>
   <glyph glyph-name="scircumflex" horiz-adv-x="797" unicode="ŝ" d="M723 264c0 -93.333 -29.498 -164.002 -88.498 -212.002s-146.167 -72 -261.5 -72c-46.667 0 -98.167 4.83301 -154.5 14.5s-100.5 20.5 -132.5 32.5v231h45l49 -131c50 -45.333 115 -68 195 -68c129.333 0 194 55.333 194 166c0 81.333 -51 139.333 -153 174l-89 29 c-67.333 22 -116.333 44.333 -147 67s-54.334 50.5 -71.001 83.5s-25 72.833 -25 119.5c0 82.667 28.167 147.834 84.5 195.5c56.333 47.667 132.5 71.5 228.5 71.5c68.667 0 154.667 -10.333 258 -31v-205h-47l-42 109c-35.334 31.333 -91.001 47 -167.001 47 c-54 0 -95.167 -13.333 -123.5 -40s-42.5 -62.667 -42.5 -108c0 -38 12.833 -70 38.5 -96s64.5 -47.667 116.5 -65c98 -33.334 162 -57.667 192 -72.999c30 -15.333 55.5 -34.166 76.5 -56.499s37.333 -47.833 49 -76.5s17.5 -64 17.5 -106zM74.002 1119v33l218 273h213 l217 -273v-33h-56l-268 183l-268 -183h-56z"/>
   <glyph glyph-name="Scedilla" horiz-adv-x="1139" unicode="Ş" d="M139 361l65.0029 0.000976562l35 -181c24.667 -31.333 67.167 -59 127.5 -83s119.833 -36 178.5 -36c93.333 0 166.166 23.833 218.499 71.5s78.5 113.5 78.5 197.5c0 48 -10.167 87.667 -30.5 119s-47 57.833 -80 79.5s-70.5 40 -112.5 55s-85.167 30.167 -129.5 45.5 s-87.5 32.333 -129.5 51c-42 18.6689 -79.5 42.3359 -112.5 71c-33 28.667 -59.667 64.167 -80 106.5s-30.5 94.5 -30.5 156.5c0 106.667 40 190.334 120 251.001s191 91 333 91c108 0 225.333 -14.333 352 -43v-279h-65l-35 164c-68 49.333 -152 74 -252 74 c-89.333 0 -159.166 -18.167 -209.499 -54.5s-75.5 -86.5 -75.5 -150.5c0 -43.333 10.167 -79.333 30.5 -108s47 -53.167 80 -73.5s70.667 -37.833 113 -52.5s85.666 -29.834 129.999 -45.501s87.666 -33.334 129.999 -53.001s80 -44.667 113 -75s59.667 -67.333 80 -111 s30.5 -97.5 30.5 -161.5c0 -129.333 -39.667 -229.5 -119 -300.5c-79.334 -71 -193.667 -106.5 -343 -106.5c-72 0 -144.333 6.33301 -217 19s-137.334 30 -194.001 52v310zM748.003 -233.999c0 -61.333 -23.167 -110.334 -69.5 -147.001s-105.5 -55 -177.5 -55 c-50.667 0 -96.667 7.33301 -138 22v74c14.667 -4.66699 34.667 -8.5 60 -11.5s45.333 -4.5 60 -4.5c40 0 69 9.83301 87 29.5s27 44.5 27 74.5c0 32.667 -13.333 59.334 -40 80.001s-64 33 -112 37l41 153h86l-18 -82c60.667 -6 108.167 -23.667 142.5 -53 s51.5 -68.333 51.5 -117z"/>
   <glyph glyph-name="scedilla" horiz-adv-x="797" unicode="ş" d="M723 264c0 -93.333 -29.498 -164.002 -88.498 -212.002s-146.167 -72 -261.5 -72c-46.667 0 -98.167 4.83301 -154.5 14.5s-100.5 20.5 -132.5 32.5v231h45l49 -131c50 -45.333 115 -68 195 -68c129.333 0 194 55.333 194 166c0 81.333 -51 139.333 -153 174l-89 29 c-67.333 22 -116.333 44.333 -147 67s-54.334 50.5 -71.001 83.5s-25 72.833 -25 119.5c0 82.667 28.167 147.834 84.5 195.5c56.333 47.667 132.5 71.5 228.5 71.5c68.667 0 154.667 -10.333 258 -31v-205h-47l-42 109c-35.334 31.333 -91.001 47 -167.001 47 c-54 0 -95.167 -13.333 -123.5 -40s-42.5 -62.667 -42.5 -108c0 -38 12.833 -70 38.5 -96s64.5 -47.667 116.5 -65c98 -33.334 162 -57.667 192 -72.999c30 -15.333 55.5 -34.166 76.5 -56.499s37.333 -47.833 49 -76.5s17.5 -64 17.5 -106zM558.002 -234.002 c0 -61.333 -23.167 -110.334 -69.5 -147.001s-105.5 -55 -177.5 -55c-50.667 0 -96.667 7.33301 -138 22v74c14.667 -4.66699 34.667 -8.5 60 -11.5s45.333 -4.5 60 -4.5c40 0 69 9.83301 87 29.5s27 44.5 27 74.5c0 32.667 -13.333 59.334 -40 80.001s-64 33 -112 37 l41 153h86l-18 -82c60.667 -6 108.167 -23.667 142.5 -53s51.5 -68.333 51.5 -117z"/>
   <glyph glyph-name="Scaron" horiz-adv-x="1139" unicode="Š" d="M139 361l65.0029 0.000976562l35 -181c24.667 -31.333 67.167 -59 127.5 -83s119.833 -36 178.5 -36c93.333 0 166.166 23.833 218.499 71.5s78.5 113.5 78.5 197.5c0 48 -10.167 87.667 -30.5 119s-47 57.833 -80 79.5s-70.5 40 -112.5 55s-85.167 30.167 -129.5 45.5 s-87.5 32.333 -129.5 51c-42 18.6689 -79.5 42.3359 -112.5 71c-33 28.667 -59.667 64.167 -80 106.5s-30.5 94.5 -30.5 156.5c0 106.667 40 190.334 120 251.001s191 91 333 91c108 0 225.333 -14.333 352 -43v-279h-65l-35 164c-68 49.333 -152 74 -252 74 c-89.333 0 -159.166 -18.167 -209.499 -54.5s-75.5 -86.5 -75.5 -150.5c0 -43.333 10.167 -79.333 30.5 -108s47 -53.167 80 -73.5s70.667 -37.833 113 -52.5s85.666 -29.834 129.999 -45.501s87.666 -33.334 129.999 -53.001s80 -44.667 113 -75s59.667 -67.333 80 -111 s30.5 -97.5 30.5 -161.5c0 -129.333 -39.667 -229.5 -119 -300.5c-79.334 -71 -193.667 -106.5 -343 -106.5c-72 0 -144.333 6.33301 -217 19s-137.334 30 -194.001 52v310zM331.003 1759l268 -183l268 183h56v-33l-217 -273h-213l-218 273v33h56z"/>
   <glyph glyph-name="scaron" horiz-adv-x="797" unicode="š" d="M723 264c0 -93.333 -29.498 -164.002 -88.498 -212.002s-146.167 -72 -261.5 -72c-46.667 0 -98.167 4.83301 -154.5 14.5s-100.5 20.5 -132.5 32.5v231h45l49 -131c50 -45.333 115 -68 195 -68c129.333 0 194 55.333 194 166c0 81.333 -51 139.333 -153 174l-89 29 c-67.333 22 -116.333 44.333 -147 67s-54.334 50.5 -71.001 83.5s-25 72.833 -25 119.5c0 82.667 28.167 147.834 84.5 195.5c56.333 47.667 132.5 71.5 228.5 71.5c68.667 0 154.667 -10.333 258 -31v-205h-47l-42 109c-35.334 31.333 -91.001 47 -167.001 47 c-54 0 -95.167 -13.333 -123.5 -40s-42.5 -62.667 -42.5 -108c0 -38 12.833 -70 38.5 -96s64.5 -47.667 116.5 -65c98 -33.334 162 -57.667 192 -72.999c30 -15.333 55.5 -34.166 76.5 -56.499s37.333 -47.833 49 -76.5s17.5 -64 17.5 -106zM148.002 1425l268 -183l268 183 h56v-33l-217 -273h-213l-218 273v33h56z"/>
   <glyph glyph-name="Tcommaaccent" horiz-adv-x="1251" unicode="Ţ" d="M315 0v52.999l213 27v1175h-51c-168.667 0 -284 -6.66699 -346 -20l-27 -209h-67v315h1180v-315h-68l-27 209c-20 4.66699 -63.667 8.83398 -131 12.501s-141 5.5 -221 5.5h-49v-1173l213 -27v-53h-619zM796 -234.001c0 -61.333 -23.167 -110.334 -69.5 -147.001 s-105.5 -55 -177.5 -55c-50.667 0 -96.667 7.33301 -138 22v74c14.667 -4.66699 34.667 -8.5 60 -11.5c25.334 -3 45.334 -4.5 60 -4.5c40 0 69 9.83301 87 29.5s27 44.5 27 74.5c0 32.667 -13.333 59.334 -40 80.001s-64 33 -112 37l41 153h86l-18 -82 c60.667 -6 108.167 -23.667 142.5 -53s51.5 -68.333 51.5 -117z"/>
   <glyph glyph-name="tcommaaccent" horiz-adv-x="569" unicode="ţ" d="M334 -20c-64 0 -111.833 19 -143.5 57s-47.5 91.333 -47.5 160v659h-123v45l125 39l101 213h63v-213h215v-84h-215v-641c0 -43.333 9.83301 -76 29.5 -98s45.5 -33 77.5 -33c38.667 0 85.667 5.33301 141 16v-65c-23.333 -16 -57 -29.167 -101 -39.5 s-84.667 -15.5 -122 -15.5zM532 -234c0 -61.333 -23.167 -110.334 -69.5 -147.001s-105.5 -55 -177.5 -55c-50.667 0 -96.667 7.33301 -138 22v74c14.667 -4.66699 34.667 -8.5 60 -11.5s45.333 -4.5 60 -4.5c40 0 69 9.83301 87 29.5s27 44.5 27 74.5 c0 32.667 -13.333 59.334 -40 80.001s-64 33 -112 37l41 153h86l-18 -82c60.667 -6 108.167 -23.667 142.5 -53s51.5 -68.333 51.5 -117z"/>
   <glyph glyph-name="Tcaron" horiz-adv-x="1251" unicode="Ť" d="M315 0v52.999l213 27v1175h-51c-168.667 0 -284 -6.66699 -346 -20l-27 -209h-67v315h1180v-315h-68l-27 209c-20 4.66699 -63.667 8.83398 -131 12.501s-141 5.5 -221 5.5h-49v-1173l213 -27v-53h-619zM357 1759l268 -183l268 183h56v-33l-217 -273h-213l-218 273v33h56 z"/>
   <glyph glyph-name="tcaron" horiz-adv-x="875" unicode="ť" d="M334 -20c-64 0 -111.833 19 -143.5 57s-47.5 91.333 -47.5 160v659h-123v45l125 39l101 213h63v-213h215v-84h-215v-641c0 -43.333 9.83301 -76 29.5 -98s45.5 -33 77.5 -33c38.667 0 85.667 5.33301 141 16v-65c-23.333 -16 -57 -29.167 -101 -39.5 s-84.667 -15.5 -122 -15.5zM839 1304c0 -72.6709 -23.8311 -131.838 -71.498 -177.5c-47.667 -45.6709 -125.834 -80.8379 -234.501 -105.5v63c44.668 10 80.335 22 107.001 36c26.6689 14 46.3359 29 59 45c12.667 16 19 37 19 63c0 11.3525 -4.83301 21.1855 -14.5 29.5 c-9.66699 8.35254 -20.334 17.1855 -32.001 26.5c-11.667 9.33301 -22.334 20.5 -32.001 33.5s-14.5 29.833 -14.5 50.5c0 25.333 9.16699 44.833 27.5 58.5s41.833 20.5 70.5 20.5c33.333 0 61 -13 83 -39s33 -60.667 33 -104z"/>
   <glyph glyph-name="Tbar" horiz-adv-x="1251" unicode="Ŧ" d="M315 0v52.999l213 27v549h-321v82h321v544h-51c-168.667 0 -284 -6.66699 -346 -20l-27 -209h-67v315h1180v-315h-68l-27 209c-20 4.66699 -63.667 8.83398 -131 12.501s-141 5.5 -221 5.5h-49v-542h324v-82h-324v-549l213 -27v-53h-619z"/>
   <glyph glyph-name="tbar" horiz-adv-x="569" unicode="ŧ" d="M334 -20c-64 0 -111.833 19 -143.5 57s-47.5 91.333 -47.5 160v300h-120v84h120v275h-123v45l125 39l101 213h63v-213h215v-84h-215v-275h206v-84h-206v-282c0 -43.333 9.83301 -76 29.5 -98s45.5 -33 77.5 -33c38.667 0 85.667 5.33301 141 16v-65 c-23.333 -16 -57 -29.167 -101 -39.5s-84.667 -15.5 -122 -15.5z"/>
   <glyph glyph-name="Utilde" horiz-adv-x="1479" unicode="Ũ" d="M1159 1262l-180 26.001v53h457v-53l-172 -26v-801c0 -160.667 -44.167 -281 -132.5 -361s-216.5 -120 -384.5 -120c-178 0 -311.167 40.167 -399.5 120.5s-132.5 194.166 -132.5 341.499v820l-172 26v53h536v-53l-172 -26v-805c0 -243.333 118.333 -365 355 -365 c128 0 226.167 30.333 294.5 91s102.5 150.667 102.5 270v809zM905 1452c-32 0 -61.498 7.16699 -88.498 21.5s-52.5 30.333 -76.5 48s-47.167 33.667 -69.5 48s-44.5 21.5 -66.5 21.5c-21.333 0 -38.5 -4 -51.5 -12s-23.167 -19.5 -30.5 -34.5 c-7.33691 -15 -13.3369 -39.167 -18 -72.5h-52c10 161.333 75 242 195 242c32 0 61.5 -7.16699 88.5 -21.5s52.667 -30.333 77 -48s47.666 -33.667 69.999 -48s44.166 -21.5 65.499 -21.5c28.667 0 51 8.33301 67 25s27 47.667 33 93h52c-10 -160.667 -75 -241 -195 -241z "/>
   <glyph glyph-name="utilde" horiz-adv-x="1024" unicode="ũ" d="M313 268c0 -114.667 53.333 -172 160 -172c82.667 0 160 10.333 232 31v743l-142 25v45h307v-870l119 -25v-45h-274l-8 76c-47.333 -26 -102 -48.5 -164 -67.5s-114 -28.5 -156 -28.5c-160 0 -240 92 -240 276v614l-120 25v45h286v-672zM641 1118 c-32 0 -61.498 7.16699 -88.498 21.5s-52.5 30.333 -76.5 48s-47.167 33.667 -69.5 48s-44.5 21.5 -66.5 21.5c-21.333 0 -38.5 -4 -51.5 -12s-23.167 -19.5 -30.5 -34.5s-13.333 -39.167 -18 -72.5h-52c10 161.333 75 242 195 242c32 0 61.5 -7.16699 88.5 -21.5 s52.667 -30.333 77 -48s47.666 -33.667 69.999 -48s44.166 -21.5 65.499 -21.5c28.667 0 51 8.33301 67 25s27 47.667 33 93h52c-10 -160.667 -75 -241 -195 -241z"/>
   <glyph glyph-name="Umacron" horiz-adv-x="1479" unicode="Ū" d="M1159 1262l-180 26.001v53h457v-53l-172 -26v-801c0 -160.667 -44.167 -281 -132.5 -361s-216.5 -120 -384.5 -120c-178 0 -311.167 40.167 -399.5 120.5s-132.5 194.166 -132.5 341.499v820l-172 26v53h536v-53l-172 -26v-805c0 -243.333 118.333 -365 355 -365 c128 0 226.167 30.333 294.5 91s102.5 150.667 102.5 270v809zM455 1475v109h628v-109h-628z"/>
   <glyph glyph-name="umacron" horiz-adv-x="1024" unicode="ū" d="M313 268c0 -114.667 53.333 -172 160 -172c82.667 0 160 10.333 232 31v743l-142 25v45h307v-870l119 -25v-45h-274l-8 76c-47.333 -26 -102 -48.5 -164 -67.5s-114 -28.5 -156 -28.5c-160 0 -240 92 -240 276v614l-120 25v45h286v-672zM198 1141v109h628v-109h-628z"/>
   <glyph glyph-name="Ubreve" horiz-adv-x="1479" unicode="Ŭ" d="M1159 1262l-180 26.001v53h457v-53l-172 -26v-801c0 -160.667 -44.167 -281 -132.5 -361s-216.5 -120 -384.5 -120c-178 0 -311.167 40.167 -399.5 120.5s-132.5 194.166 -132.5 341.499v820l-172 26v53h536v-53l-172 -26v-805c0 -243.333 118.333 -365 355 -365 c128 0 226.167 30.333 294.5 91s102.5 150.667 102.5 270v809zM782 1453c-89.333 0 -158.999 25.5 -208.999 76.5s-76 118.833 -78 203.5h74c10.668 -44.667 34.835 -79 72.5 -103c37.667 -24 84.5 -36 140.5 -36s102.667 12 140 36s61.666 58.333 72.999 103h74 c-3.33301 -87.333 -30 -155.833 -80 -205.5s-119 -74.5 -207 -74.5z"/>
   <glyph glyph-name="ubreve" horiz-adv-x="1024" unicode="ŭ" d="M313 268c0 -114.667 53.333 -172 160 -172c82.667 0 160 10.333 232 31v743l-142 25v45h307v-870l119 -25v-45h-274l-8 76c-47.333 -26 -102 -48.5 -164 -67.5s-114 -28.5 -156 -28.5c-160 0 -240 92 -240 276v614l-120 25v45h286v-672zM512 1119 c-89.333 0 -159 25.5 -209 76.5s-76 118.833 -78 203.5h74c10.667 -44.667 34.834 -79 72.501 -103s84.5 -36 140.5 -36s102.667 12 140 36s61.666 58.333 72.999 103h74c-3.33301 -87.333 -30 -155.833 -80 -205.5s-119 -74.5 -207 -74.5z"/>
   <glyph glyph-name="Uring" horiz-adv-x="1479" unicode="Ů" d="M1159 1262l-180 26.001v53h457v-53l-172 -26v-801c0 -160.667 -44.167 -281 -132.5 -361s-216.5 -120 -384.5 -120c-178 0 -311.167 40.167 -399.5 120.5s-132.5 194.166 -132.5 341.499v820l-172 26v53h536v-53l-172 -26v-805c0 -243.333 118.333 -365 355 -365 c128 0 226.167 30.333 294.5 91s102.5 150.667 102.5 270v809zM989 1614c0 -56 -19.833 -103.833 -59.5 -143.5s-87.5 -59.5 -143.5 -59.5s-103.833 19.833 -143.5 59.5s-59.5 87.5 -59.5 143.5s19.833 103.833 59.5 143.5s87.5 59.5 143.5 59.5 s103.833 -19.833 143.5 -59.5s59.5 -87.5 59.5 -143.5zM909 1614c0 34 -12 63.002 -36 87.002s-53 36 -87 36s-63 -12 -87 -36s-36 -53 -36 -87c0 -34.6729 12.333 -63.8398 37 -87.501c24.668 -23.667 53.335 -35.5 86 -35.5c32 0 60.5 11.667 85.5 35 c25 23.3389 37.5 52.6719 37.5 87.999z"/>
   <glyph glyph-name="uring" horiz-adv-x="1024" unicode="ů" d="M313 268c0 -114.667 53.333 -172 160 -172c82.667 0 160 10.333 232 31v743l-142 25v45h307v-870l119 -25v-45h-274l-8 76c-47.333 -26 -102 -48.5 -164 -67.5s-114 -28.5 -156 -28.5c-160 0 -240 92 -240 276v614l-120 25v45h286v-672zM715 1280 c0 -56 -19.833 -103.833 -59.5 -143.5s-87.5 -59.5 -143.5 -59.5s-103.833 19.833 -143.5 59.5s-59.5 87.5 -59.5 143.5s19.833 103.833 59.5 143.5s87.5 59.5 143.5 59.5s103.833 -19.833 143.5 -59.5s59.5 -87.5 59.5 -143.5zM635 1280 c0 34 -12.001 63.002 -36.001 87.002s-53 36 -87 36s-63 -12 -87 -36s-36 -53 -36 -87c0 -34.6719 12.333 -63.8389 37 -87.501c24.667 -23.667 53.334 -35.5 86.001 -35.5c32 0 60.5 11.667 85.5 35c25 23.3379 37.5 52.6709 37.5 87.999z"/>
   <glyph glyph-name="Uhungarumlaut" horiz-adv-x="1479" unicode="Ű" d="M1159 1262l-180 26.001v53h457v-53l-172 -26v-801c0 -160.667 -44.167 -281 -132.5 -361s-216.5 -120 -384.5 -120c-178 0 -311.167 40.167 -399.5 120.5s-132.5 194.166 -132.5 341.499v820l-172 26v53h536v-53l-172 -26v-805c0 -243.333 118.333 -365 355 -365 c128 0 226.167 30.333 294.5 91s102.5 150.667 102.5 270v809zM508 1453v33l156 272h192v-37l-293 -268h-55zM858 1453v33l156 272h192v-37l-292 -268h-56z"/>
   <glyph glyph-name="uhungarumlaut" horiz-adv-x="1024" unicode="ű" d="M313 268c0 -114.667 53.333 -172 160 -172c82.667 0 160 10.333 232 31v743l-142 25v45h307v-870l119 -25v-45h-274l-8 76c-47.333 -26 -102 -48.5 -164 -67.5s-114 -28.5 -156 -28.5c-160 0 -240 92 -240 276v614l-120 25v45h286v-672zM227 1119v33l156 272h192v-37 l-293 -268h-55zM577 1119v33l156 272h192v-37l-292 -268h-56z"/>
   <glyph glyph-name="Uogonek" horiz-adv-x="1479" unicode="Ų" d="M1159 1262l-180 26.001v53h457v-53l-172 -26v-801c0 -160.667 -44.167 -281 -132.5 -361s-216.5 -120 -384.5 -120c-178 0 -311.167 40.167 -399.5 120.5s-132.5 194.166 -132.5 341.499v820l-172 26v53h536v-53l-172 -26v-805c0 -243.333 118.333 -365 355 -365 c128 0 226.167 30.333 294.5 91s102.5 150.667 102.5 270v809zM914 -407.999c-74 0 -131 19.166 -171 57.499s-60 91.5 -60 159.5c0 35.333 7.83301 70.5 23.5 105.5s37.834 67.167 66.5 96.5h109c-15.3398 -22 -28.1729 -50.333 -38.5 -85 c-10.333 -34.667 -15.5 -65.667 -15.5 -93c0 -49.333 11.833 -87.166 35.5 -113.499c23.668 -26.333 57.835 -39.5 102.5 -39.5c40.002 0 78.6689 7.33301 116 22v-64c-45.333 -30.667 -101.333 -46 -168 -46z"/>
   <glyph glyph-name="uogonek" horiz-adv-x="1024" unicode="ų" d="M313 268c0 -114.667 53.333 -172 160 -172c82.667 0 160 10.333 232 31v743l-142 25v45h307v-870l119 -25v-45h-274l-8 76c-47.333 -26 -102 -48.5 -164 -67.5s-114 -28.5 -156 -28.5c-160 0 -240 92 -240 276v614l-120 25v45h286v-672zM857 -403 c-74 0 -131 19.166 -171 57.499s-60 91.5 -60 159.5c0 35.333 7.83301 70.5 23.5 105.5c15.6689 35 37.8359 67.167 66.5 96.5h109c-15.3398 -22 -28.1729 -50.333 -38.5 -85c-10.333 -34.667 -15.5 -65.667 -15.5 -93c0 -49.333 11.833 -87.166 35.5 -113.499 c23.668 -26.333 57.835 -39.5 102.5 -39.5c40 0 78.667 7.33301 116 22v-64c-45.333 -30.667 -101.333 -46 -168 -46z"/>
   <glyph glyph-name="Wcircumflex" horiz-adv-x="1933" unicode="Ŵ" d="M1374 -31h-53l-348 924l-357 -924h-53l-444 1293l-117 26v53h512v-53l-197 -26l319 -945l361 930h45l348 -930l304 945l-209 26v53h444v-53l-117 -26zM678 1453v33l218 273h213l217 -273v-33h-56l-268 183l-268 -183h-56z"/>
   <glyph glyph-name="wcircumflex" horiz-adv-x="1479" unicode="ŵ" d="M1051 -20h-78l-232 620l-229 -620h-74l-325 890l-111 25v45h447v-45l-156 -27l223 -635l227 613h84l226 -617l213 641l-154 25v45h358v-45l-104 -21zM446 1119v33l218 273h213l217 -273v-33h-56l-268 183l-268 -183h-56z"/>
   <glyph glyph-name="Ycircumflex" horiz-adv-x="1479" unicode="Ŷ" d="M838 528v-448l213 -27v-53h-619v53l213 27v442l-471 740l-151 26v53h567v-53l-180 -26l385 -619l366 619l-170 26v53h436v-53l-147 -26zM415 1453v33l218 273h213l217 -273v-33h-56l-268 183l-268 -183h-56z"/>
   <glyph glyph-name="ycircumflex" horiz-adv-x="1024" unicode="ŷ" d="M199 -442c-52 0 -103.334 6.00098 -154.001 18.001v203h47l33 -96c20.667 -15.333 49.334 -23 86.001 -23c34.667 0 66.667 10 96 30c29.334 20 56.167 49.667 80.5 89s54.833 109.666 91.5 210.999l-358 880l-96 25v45h436v-45l-148 -27l254 -657l246 659l-147 25v45 h350v-45l-98 -21l-367 -933c-43.333 -110 -81 -189 -113 -237s-67.333 -84.333 -106 -109s-83 -37 -133 -37zM210.999 1119v33l218 273h213l217 -273v-33h-56l-268 183l-268 -183h-56z"/>
   <glyph glyph-name="Ydieresis" horiz-adv-x="1479" unicode="Ÿ" d="M838 528v-448l213 -27v-53h-619v53l213 27v442l-471 740l-151 26v53h567v-53l-180 -26l385 -619l366 619l-170 26v53h436v-53l-147 -26zM1028 1559c0 -28 -9.33301 -51.833 -28 -71.5s-42 -29.5 -70 -29.5s-51.667 10.333 -71 31s-29 44 -29 70 c0 28 9.66699 51.667 29 71s43 29 71 29s51.333 -9.66699 70 -29s28 -43 28 -71zM672 1559c0 -28 -9.33301 -51.833 -28 -71.5s-42 -29.5 -70 -29.5c-27.333 0 -51 10 -71 30s-30 43.667 -30 71c0 28 10.333 51.667 31 71s44 29 70 29c28 0 51.333 -9.66699 70 -29 s28 -43 28 -71z"/>
   <glyph glyph-name="Zacute" horiz-adv-x="1251" unicode="Ź" d="M98 94l751.999 1161h-250c-164.667 0 -278 -6.66699 -340 -20l-31 -211h-69v317h913v-86l-757 -1171h290c77.333 0 155.833 3.66699 235.5 11c79.668 7.33398 135.835 14.667 168.501 22l59 256h70l-27 -373h-1014v94zM513.999 1453v33l196 272h213v-37l-354 -268h-55z "/>
   <glyph glyph-name="zacute" horiz-adv-x="909" unicode="ź" d="M55 0v45l516 815h-221c-37.333 0 -73.333 -3.16699 -108 -9.5s-58.667 -14.833 -72 -25.5l-31 -135h-47v250h694v-49l-516 -811h275c38 0 78 4.5 120 13.5s71.667 20.167 89 33.5l51 197h47l-25 -324h-772zM336 1119v33l196 272h213v-37l-354 -268h-55z"/>
   <glyph glyph-name="Zdotaccent" horiz-adv-x="1251" unicode="Ż" d="M98 94l751.999 1161h-250c-164.667 0 -278 -6.66699 -340 -20l-31 -211h-69v317h913v-86l-757 -1171h290c77.333 0 155.833 3.66699 235.5 11c79.668 7.33398 135.835 14.667 168.501 22l59 256h70l-27 -373h-1014v94zM736.999 1581 c0 -29.333 -10.666 -54.666 -31.999 -75.999s-47 -32 -77 -32c-29.3359 0 -54.6689 10.667 -76 32c-21.333 21.333 -32 46.666 -32 75.999c0 30 10.667 55.667 32 77s46.666 32 75.999 32c30 0 55.667 -10.667 77 -32s32 -47 32 -77z"/>
   <glyph glyph-name="zdotaccent" horiz-adv-x="909" unicode="ż" d="M55 0v45l516 815h-221c-37.333 0 -73.333 -3.16699 -108 -9.5s-58.667 -14.833 -72 -25.5l-31 -135h-47v250h694v-49l-516 -811h275c38 0 78 4.5 120 13.5s71.667 20.167 89 33.5l51 197h47l-25 -324h-772zM573 1247c0 -29.333 -10.667 -54.667 -32 -76 c-21.334 -21.333 -47.001 -32 -77 -32c-29.333 0 -54.666 10.667 -75.999 32c-21.333 21.3428 -32 46.6758 -32 76c0 30 10.667 55.667 32 77c21.334 21.333 46.667 32 75.999 32c30 0 55.667 -10.667 77 -32s32 -47 32 -77z"/>
   <glyph glyph-name="Zcaron" horiz-adv-x="1251" unicode="Ž" d="M98 94l751.999 1161h-250c-164.667 0 -278 -6.66699 -340 -20l-31 -211h-69v317h913v-86l-757 -1171h290c77.333 0 155.833 3.66699 235.5 11c79.668 7.33398 135.835 14.667 168.501 22l59 256h70l-27 -373h-1014v94zM362.999 1759l268 -183l268 183h56v-33l-217 -273 h-213l-218 273v33h56z"/>
   <glyph glyph-name="zcaron" horiz-adv-x="909" unicode="ž" d="M55 0v45l516 815h-221c-37.333 0 -73.333 -3.16699 -108 -9.5s-58.667 -14.833 -72 -25.5l-31 -135h-47v250h694v-49l-516 -811h275c38 0 78 4.5 120 13.5s71.667 20.167 89 33.5l51 197h47l-25 -324h-772zM189 1425l268 -183l268 183h56v-33l-217 -273h-213l-218 273v33 h56z"/>
   <glyph glyph-name="longs" horiz-adv-x="569" unicode="ſ" d="M354 78l163 -33.001v-45h-468v45l139 33v932c0 138.667 27.5 245.334 82.5 320.001s132.167 112 231.5 112c50.667 0 98.334 -6.33301 143 -19v-205h-49l-45 123c-22.667 14 -50 21 -82 21c-42 0 -71.667 -18.667 -89 -56s-26 -107.333 -26 -210v-1018z"/>
   <glyph glyph-name="uni0180" horiz-adv-x="1024" unicode="ƀ" d="M144 1352l-137 24v45h303v-225h299v-84h-299v-27c0 -36 -2 -102 -6 -198c66.667 52 150.667 78 252 78c128 0 226.167 -38.833 294.5 -116.5s102.5 -195.167 102.5 -352.5c0 -168.667 -37.5 -296.834 -112.5 -384.501s-183.5 -131.5 -325.5 -131.5 c-57.333 0 -120.5 6.33301 -189.5 19s-129.5 29.334 -181.5 50.001v1063h-149v84h149v156zM773 496c0 122.667 -21.333 214 -64 274s-108.667 90 -198 90c-39.333 0 -78.333 -3.5 -117 -10.5s-66.667 -14.5 -84 -22.5v-745c56 -10.667 123 -16 201 -16 c92 0 158.667 36 200 108s62 179.333 62 322z"/>
   <glyph glyph-name="uni0181" horiz-adv-x="1556" unicode="Ɓ" d="M1136 1016c0 82 -25.667 141.667 -77 179c-51.334 37.333 -134.667 56 -250 56h-207v-507h219c108 0 187.5 21.333 238.5 64s76.5 112 76.5 208zM1237 382c0 94 -31.333 162.834 -94 206.5c-62.668 43.667 -163.001 65.5 -301 65.5h-240v-564c92 -4 190 -6 294 -6 c114 0 199.333 24.167 256 72.5s85 123.5 85 225.5zM1444 386.001c0 -128.667 -44.501 -226.166 -133.501 -292.499s-218.833 -99.5 -389.5 -99.5l-428 6h-256v53l172 27v1171h-54c-52.667 0 -95.334 -7.5 -128 -22.5c-32.667 -15 -57 -42.167 -73 -81.5l-50 -121h-67l7 266 c63.333 32.667 159 49 287 49h519c170 0 294.333 -25.167 373 -75.5s118 -130.166 118 -239.499c0 -78.667 -24.167 -145.667 -72.5 -201s-116.166 -92.333 -203.499 -111c120.667 -12.667 214 -47.834 280 -105.501s99 -131.834 99 -222.501z"/>
   <glyph glyph-name="uni0182" horiz-adv-x="1176" unicode="Ƃ" d="M575 745c158 0 277.833 -31.501 359.5 -94.501s122.5 -155.833 122.5 -278.5c0 -123.333 -41.667 -216.166 -125 -278.499c-83.334 -62.333 -205.667 -93.5 -367 -93.5h-506v53l172 26v1182l-159 27v53h901l13 -309h-65l-57 203c-27.333 5.33301 -68.333 10 -123 14 s-108 6 -160 6h-157v-510h151zM858 362.999c0 103.334 -26.832 177.834 -80.499 223.5c-53.667 45.667 -136.834 68.5 -249.501 68.5h-104v-565h98c120.667 0 206.834 21 258.5 63c51.667 42 77.5 112 77.5 210z"/>
   <glyph glyph-name="uni0183" horiz-adv-x="1024" unicode="ƃ" d="M766 496c0 122.667 -21.333 214 -64 274s-108.667 90 -198 90c-39.333 0 -78.333 -3.5 -117 -10.5s-66.667 -14.5 -84 -22.5v-745c56 -10.667 123 -16 201 -16c92 0 158.667 36 200 108s62 179.333 62 322zM946 496c0 -168.667 -37.5 -296.834 -112.5 -384.501 s-183.5 -131.5 -325.5 -131.5c-57.333 0 -120.5 6.33301 -189.5 19s-129.5 29.334 -181.5 50.001v1292h721l13 -259h-65l-57 153c-27.333 5.33301 -68.333 10 -123 14s-108 6 -160 6h-163v-170c0 -36 -2 -102 -6 -198c66.667 52 150.667 78 252 78 c128 0 226.167 -38.833 294.5 -116.5s102.5 -195.167 102.5 -352.5z"/>
   <glyph glyph-name="uni0184" horiz-adv-x="1176" unicode="Ƅ" d="M1108 367c0 -121.333 -41.833 -212.833 -125.5 -274.5s-206.167 -92.5 -367.5 -92.5h-556v53l172 26v852l-195 166v63l325 181h63v-596h202c156 0 275.333 -32 358 -96s124 -158 124 -282zM908 363c0 103.334 -26.832 177.834 -80.499 223.5 c-53.667 45.667 -136.834 68.5 -249.501 68.5h-154v-565h148c120.667 0 206.834 21 258.5 63c51.667 42 77.5 112 77.5 210z"/>
   <glyph glyph-name="uni0185" horiz-adv-x="1024" unicode="ƅ" d="M766 496c0 122.667 -21.333 214 -64 274s-108.667 90 -198 90c-39.333 0 -78.333 -3.5 -117 -10.5s-66.667 -14.5 -84 -22.5v-745c56 -10.667 123 -16 201 -16c92 0 158.667 36 200 108s62 179.333 62 322zM137 1002l-137 174v49l253 196h50v-336c0 -36 -2 -102 -6 -198 c66.667 52 150.667 78 252 78c128 0 226.167 -38.833 294.5 -116.5s102.5 -195.167 102.5 -352.5c0 -168.667 -37.5 -296.834 -112.5 -384.501s-183.5 -131.5 -325.5 -131.5c-57.333 0 -120.5 6.33301 -189.5 19s-129.5 29.334 -181.5 50.001v953z"/>
   <glyph glyph-name="uni0186" horiz-adv-x="1366" unicode="Ɔ" d="M592 1356c217.333 0 386.665 -59.167 507.998 -177.5s182 -284.166 182 -497.499c0 -230.667 -58.333 -405.167 -175 -523.5s-289.667 -177.5 -519 -177.5c-139.333 0 -289 17 -449 51l-6 293h66l30 -174c46.667 -28.667 100.834 -50.834 162.501 -66.501 s124.5 -23.5 188.5 -23.5c171.333 0 296.333 50.333 375 151s118 256.667 118 468c0 194.667 -41.167 343.334 -123.5 446c-82.334 102.667 -202.167 154 -359.5 154c-76 0 -147.667 -9.16699 -215 -27.5s-120.666 -42.833 -159.999 -73.5l-37 -200h-65l6 315 c147.333 42 305 63 473 63z"/>
   <glyph glyph-name="uni0187" horiz-adv-x="1366" unicode="Ƈ" d="M1229 1251l4.00293 -238.998h-66l-30 174c-46.6689 28.667 -100.836 50.834 -162.501 66.501c-61.667 15.667 -124.5 23.5 -188.5 23.5c-171.333 0 -296.333 -50.333 -375 -151s-118 -256.667 -118 -468c0 -194.667 41.167 -343.334 123.5 -446.001 s202.166 -154 359.499 -154c76 0 147.667 9.16699 215 27.5c67.334 18.333 120.667 42.833 159.999 73.5l37 200h65l-6 -315c-146.667 -42 -304.334 -63 -473.001 -63c-217.333 0 -386.666 59.167 -507.999 177.5s-182 284.166 -182 497.499 c0 230.667 58.333 405.167 175 523.5s289.667 177.5 519 177.5c118 0 235 -10.667 351 -32c3.33301 101.336 28 179.669 74 234.999c46 55.333 108 83 186 83c85.333 0 154.333 -10 207 -30v-244h-66l-30 139c-12.667 15.333 -30.667 27.333 -54 36s-49 13 -77 13 c-93.333 0 -140 -63.333 -140 -190v-115z"/>
   <glyph glyph-name="uni0188" horiz-adv-x="909" unicode="ƈ" d="M823 672h-55l-43 166c-55.334 31.333 -121.667 47 -199 47c-178.667 0 -268 -136 -268 -408c0 -141.333 27.167 -242.166 81.5 -302.499s138.5 -90.5 252.5 -90.5c97.333 0 182 11 254 33v-60c-32.667 -24 -77.667 -42.833 -135 -56.5s-116 -20.5 -176 -20.5 c-304.667 0 -457 165.667 -457 497c0 156.667 38.833 277.167 116.5 361.5s188.834 126.5 333.501 126.5c65.333 0 132.333 -5 201 -15c11.333 91.335 36.166 158.668 74.499 201.999c38.333 43.333 94.166 65 167.499 65c50.667 0 98.334 -6.33301 143.001 -19v-205h-49 l-45 123c-22.667 14 -50 21 -82 21c-42 0 -71.667 -18.667 -89 -56s-26 -107.333 -26 -210v-199z"/>
   <glyph glyph-name="uni0189" horiz-adv-x="1479" unicode="Ɖ" d="M631 1341c252.667 0 443.5 -56.5 572.5 -169.5s193.5 -277.5 193.5 -493.5c0 -230 -55 -401.167 -165 -513.5s-276.333 -168.5 -499 -168.5l-502 4h-172v53l172 27v549h-178v82h178v551l-172 26v53h572zM801 711v-82h-377v-535c80 -5.33301 175 -8 285 -8 c164.667 0 285.667 46.833 363 140.5s116 241.5 116 443.5c0 192.667 -49.5 337.667 -148.5 435s-250.167 146 -453.5 146h-162v-540h377z"/>
   <glyph glyph-name="uni018A" horiz-adv-x="1669" unicode="Ɗ" d="M1382 680c0 187.333 -50.5 329.332 -151.5 425.999s-245.167 145 -432.5 145h-180v-1157c80 -5.33301 175 -8 285 -8c164 0 284.833 48.333 362.5 145s116.5 246.334 116.5 449.001zM425 1251l-54 -0.000976562c-52.667 0 -95.334 -7.5 -128 -22.5 c-32.667 -15 -57 -42.167 -73 -81.5l-50 -121h-67l7 266c63.333 32.667 159 49 287 49h515c247.335 0 430.668 -55.167 550 -165.5c119.333 -110.333 179 -276.166 179 -497.499c0 -224 -57.5 -393.667 -172.5 -509s-286.833 -173 -515.5 -173l-478 4h-172v53l172 27v1171z "/>
   <glyph glyph-name="uni018B" horiz-adv-x="1176" unicode="Ƌ" d="M267 363c0 -98 25.833 -168 77.5 -210s137.834 -63 258.501 -63h148v565h-154c-112.667 0 -195.834 -22.833 -249.501 -68.5s-80.5 -120.167 -80.5 -223.5zM1116 0l-555.999 -0.000976562c-162 0 -284.667 30.833 -368 92.5s-125 153.167 -125 274.5 c0 124.667 41.667 218.834 125 282.501s202.666 95.5 357.999 95.5h201v510h-207c-53.333 0 -107.5 -2 -162.5 -6s-95.167 -8.66699 -120.5 -14l-57 -203h-65l13 309h951v-53l-159 -27v-1182l172 -26v-53z"/>
   <glyph glyph-name="uni018C" horiz-adv-x="1024" unicode="ƌ" d="M248 461c0 -126.667 21.333 -221.167 64 -283.5s108 -93.5 196 -93.5c75.333 0 143 13 203 39v743c-59.333 11.333 -127 17 -203 17c-173.333 0 -260 -140.667 -260 -422zM993 0h-264.001l-12 70c-75.333 -60 -163.333 -90 -264 -90c-256.667 0 -385 160.333 -385 481 c0 164.667 36.333 289.834 109 375.5c72.667 85.667 179.667 128.5 321 128.5c72 0 145 -7.66699 219 -23c-4 22 -6 77.333 -6 166v147h-121c-169.333 0 -284.666 -6.66699 -345.999 -20l-27 -153h-67v259h727v-1271l116 -25v-45z"/>
   <glyph glyph-name="uni018D" horiz-adv-x="965" unicode="ƍ" d="M738 -191l0.00195312 -13.001c0 -73.333 -31 -131.166 -93 -173.499s-146.333 -63.5 -253 -63.5c-64 0 -131 6.33301 -201 19l-11 205h47l48 -105c32 -26 76.667 -39 134 -39c59.334 0 104.334 12.167 135 36.5c30.667 24.333 46 58.5 46 102.5 c0 34 -11.5 66.167 -34.5 96.5s-59.167 62.833 -108.5 97.5l-105 73c-96.667 66 -167.334 136.667 -212.001 212s-67 165 -67 269c0 134 37.833 240.833 113.5 320.5s177.167 119.5 304.5 119.5c119.333 0 214.5 -38.333 285.5 -115s106.5 -182.667 106.5 -318 c0 -111.333 -28.333 -205.5 -85 -282.5s-139.334 -132.833 -248.001 -167.5c72 -54 122.5 -101.667 151.5 -143s44.5 -85 46.5 -131zM461.002 885.999c-74.667 0 -130.834 -27.167 -168.5 -81.5c-37.667 -54.334 -56.5 -131.167 -56.5 -230.5 c0 -100 15.5 -181.333 46.5 -244s82.5 -119.667 154.5 -171l39 -28c77.333 30 134 75.333 170 136s54 143 54 247c0 120.667 -20.5 212.834 -61.5 276.5c-41 63.667 -100.167 95.5 -177.5 95.5z"/>
   <glyph glyph-name="uni018E" horiz-adv-x="1251" unicode="Ǝ" d="M1192 0h-1071l-19 354h66l57 -248c53.333 -10.667 166 -16 338 -16h264v547h-362l-31 -162h-64v412h64l31 -160h362v524h-219c-143.334 0 -251.334 -4.66699 -324 -14l-32 -217h-66v321h1006v-53l-172 -26v-1182l172 -27v-53z"/>
   <glyph glyph-name="uni018F" horiz-adv-x="1479" unicode="Ə" d="M699 1276c-64 0 -126.833 -7.83301 -188.5 -23.5c-61.667 -15.6758 -115.834 -37.8428 -162.5 -66.5l-30 -174h-66l6 293c160 34 309.667 51 449 51c230.667 0 403.167 -56.833 517.5 -170.5s171.5 -290.5 171.5 -530.5c0 -219.333 -56.833 -386.666 -170.5 -501.999 s-278.5 -173 -494.5 -173c-214 0 -375.333 58.333 -484 175s-163 288.667 -163 516l3 74h1097c-10 189.333 -52.167 325.166 -126.5 407.499s-193.833 123.5 -358.5 123.5zM731 57c154.667 0 269.334 49 344 147c74.667 98 112 248.333 112 451h-894 c0 -200.667 36 -350.5 108 -449.5s182 -148.5 330 -148.5z"/>
   <glyph glyph-name="uni0190" horiz-adv-x="1026" unicode="Ɛ" d="M93 365c0 99.334 27.999 176.834 83.999 232.5c56 55.667 142 90.5 258 104.5c-94.667 14 -169.167 50 -223.5 108s-81.5 130.333 -81.5 217c0 107.336 36.667 189.169 110 245.5c73.333 56.333 180.333 84.5 321 84.5c98.667 0 203.667 -14.333 315 -43v-258h-66 l-33 164c-24.667 14.667 -57 27.167 -97 37.5s-78.333 15.5 -115 15.5c-83.333 0 -142.5 -21.333 -177.5 -64c-35 -42.6689 -52.5 -107.336 -52.5 -194.001c0 -83.333 21.5 -147.333 64.5 -192s103.167 -69 180.5 -73l143 -9v-82l-143 -8 c-98 -4.66699 -169.667 -30 -215 -76s-68 -112.667 -68 -200c0 -111.333 23.667 -191.166 71 -239.499s121 -72.5 221 -72.5c35.333 0 75.833 5 121.5 15s82.167 23 109.5 39l43 188h66l-11 -282c-111.333 -28.667 -227.333 -43 -348 -43 c-147.333 0 -263.666 34.5 -348.999 103.5s-128 162.833 -128 281.5z"/>
   <glyph glyph-name="uni0191" horiz-adv-x="1139" unicode="Ƒ" d="M1065 1020h-66l-32 217c-74.667 9.33301 -182.667 14 -324 14h-219v-559h395l31 160h61v-412h-61l-31 162h-395v-593c0 -90 -13.667 -168.5 -41 -235.5s-68.833 -119.833 -124.5 -158.5s-118.5 -58 -188.5 -58c-85.333 0 -154.333 10 -207 30v244h66l30 -139 c12.667 -15.333 30.667 -27.333 54 -36s49 -13 77 -13c93.333 0 140 63.333 140 190l1 1429l-172 26v53h1006v-321z"/>
   <glyph glyph-name="florin" horiz-adv-x="1024" unicode="ƒ" d="M219 -285l137.002 987h-161l8 50l166 34l32 232c14.667 107.333 52 191.5 112 252.5s135.333 91.5 226 91.5c60.667 0 112 -6.33301 154 -19v-182h-47l-33 96c-20.667 15.333 -49.334 23 -86.001 23c-30.667 0 -55.834 -8.66699 -75.501 -26s-35.667 -42.833 -48 -76.5 s-24.5 -92.5 -36.5 -176.5l-30 -215h249l-14 -84h-248l-143 -987h-162z"/>
   <glyph glyph-name="uni0193" horiz-adv-x="1479" unicode="Ɠ" d="M1284 70c-77.333 -25.333 -157.667 -46.666 -241 -63.999s-173 -26 -269 -26c-217.333 0 -386.666 58.667 -507.999 176s-182 283.666 -182 498.999c0 234.667 58.833 410.167 176.5 526.5s290.167 174.5 517.5 174.5c121.333 0 245 -12.333 371 -37 c2 102 26.167 181.333 72.5 238s108.833 85 187.5 85c85.333 0 154.333 -10 207 -30v-244h-66l-30 139c-12.667 15.333 -30.667 27.333 -54 36s-49 13 -77 13c-93.333 0 -140 -63.333 -140 -190v-358h-67l-27 166c-46 32.667 -101.167 57.834 -165.5 75.501 c-64.334 17.667 -132.167 26.5 -203.5 26.5c-170.667 0 -295.5 -50.833 -374.5 -152.5s-118.5 -257.167 -118.5 -466.5c0 -196.667 40.667 -345.834 122 -447.501s201.666 -152.5 360.999 -152.5c56 0 114.667 6.66699 176 20s108 29.333 140 48v381l-172 26v54h495v-54 l-131 -26v-436z"/>
   <glyph glyph-name="uni0194" horiz-adv-x="1479" unicode="Ɣ" d="M1456 1341l0.000976562 -53.001l-147 -26l-466 -1117c54 -134.667 93 -244.667 117 -330s40.333 -167.666 49 -246.999l-369 -11l-66 29c4.66699 65.333 15.167 129.333 31.5 192s45.166 147 86.499 253l-518 1231l-151 26v53h542v-53l-180 -26l406 -987l405 987l-176 26 v53h436zM814.001 -353.001c-8.66699 76 -32.333 161.665 -71 256.998c-16.667 -41.333 -32.167 -87.666 -46.5 -138.999s-21.5 -90.666 -21.5 -117.999l20 -7z"/>
   <glyph glyph-name="uni0195" horiz-adv-x="1577" unicode="ƕ" d="M1079 -20c-118.667 0 -208.666 24.167 -269.999 72.5s-92 116.5 -92 204.5v419c0 114.667 -55.333 172 -166 172c-62.667 0 -137.667 -9.66699 -225 -29v-749l127 -25v-45h-412v45l119 25v1282l-140 24v45h306v-407c0 -69.333 -2.33301 -119.333 -7 -150 c48 27.333 102.5 51 163.5 71s112.5 30 154.5 30c81.333 0 142.666 -23.667 183.999 -71s62 -116 62 -206v-419c0 -62.667 18.167 -113.334 54.5 -152.001s83.5 -58 141.5 -58s105.167 19.333 141.5 58s54.5 89.334 54.5 152.001v601l-142 25v45h307v-683 c0 -89.333 -30.833 -157.833 -92.5 -205.5s-151.167 -71.5 -268.5 -71.5z"/>
   <glyph glyph-name="uni0196" horiz-adv-x="519" unicode="Ɩ" d="M344 -20c-57.333 0 -102.668 19 -136.001 57s-50 91.333 -50 160v1155l-160 24v45h326v-1207c0 -40 8.16699 -71.667 24.5 -95c16.334 -23.333 40.167 -35 71.5 -35c23.333 0 56.333 5.33301 99 16v-65c-15.333 -12.667 -40.666 -25 -75.999 -37s-68.333 -18 -99 -18z "/>
   <glyph glyph-name="uni0197" horiz-adv-x="682" unicode="Ɨ" d="M648 675h-210v-595l172 -27v-53h-536v53l172 27v595h-211v82h211v505l-172 26v53h536v-53l-172 -26v-505h210v-82z"/>
   <glyph glyph-name="uni0198" horiz-adv-x="1479" unicode="Ƙ" d="M424 79l191.998 -26v-53h-557v53l172 26v830c0 88.667 13.5 166.667 40.5 234s67.833 120.5 122.5 159.5s114.667 58.5 180 58.5c71.333 0 137 -10 197 -30v-244h-66l-30 139c-11.3359 14.667 -27.6689 26.5 -49 35.5c-21.334 9 -43.667 13.5 -66.999 13.5 c-41.333 0 -74.166 -16 -98.499 -48s-36.5 -79.333 -36.5 -142v-469l656 646l-133 26v53h420v-53l-155 -26l-458 -448l573 -734l145 -27v-53h-328l-525 678l-195 -157v-442z"/>
   <glyph glyph-name="uni0199" horiz-adv-x="1024" unicode="ƙ" d="M639 0l-0.000976562 44.999l86 25l-258 405l-123 -135v-270l100 -25v-45h-385v45l119 25v940c0 138.667 27.5 245.334 82.5 320.001s132.167 112 231.5 112c50.668 0 98.335 -6.33301 143.001 -19v-205h-49l-45 123c-22.667 14 -50 21 -82 21 c-42 0 -71.667 -18.667 -89 -56s-26 -107.333 -26 -210v-643l385 415l-98 27v45h332v-45l-117 -23l-268 -274l344 -530l102 -23v-45h-385z"/>
   <glyph glyph-name="uni019A" horiz-adv-x="569" unicode="ƚ" d="M367 673v-603l161 -25v-45h-487v45l160 25v603h-168v84h168v595l-160 24v45h326v-664h169v-84h-169z"/>
   <glyph glyph-name="uni019B" horiz-adv-x="993" unicode="ƛ" d="M786 0l-237 764.002c-22.667 -62.667 -129.667 -317.334 -321 -764.001h-174v33l430 953l-26 78l-338 -327v114l310 300c-46.667 131.333 -101.667 197 -165 197c-18.667 0 -37.667 -4 -57 -12l-40 -83h-49v170c46 12.667 95.333 19 148 19c58 0 105.167 -17 141.5 -51 s68.833 -89.333 97.5 -166l187 181v-114l-157 -152l330 -993c10.667 -32 27 -55.333 49 -70s44.333 -25.334 67 -32.001v-45h-196z"/>
   <glyph glyph-name="uni019C" horiz-adv-x="1672" unicode="Ɯ" d="M1323 76c-58 -31.333 -116.003 -56 -174.003 -74s-107.667 -27 -149 -27c-48 0 -92.5 8.66699 -133.5 26s-71.833 45 -92.5 83c-56.667 -30 -121 -55.667 -193 -77s-130.667 -32 -176 -32c-166.667 0 -250 92.333 -250 277v1010l-130 26v53h462v-53l-140 -26v-992 c0 -55.333 12.5 -97.833 37.5 -127.5s66.167 -44.5 123.5 -44.5c24 0 62.833 3.83301 116.5 11.5s97.167 15.5 130.5 23.5c-11.333 36 -17 75.667 -17 119v1010l-141 26v53h472v-53l-139 -26v-992c0 -55.333 14.333 -97.833 43 -127.5s71.334 -44.5 128.001 -44.5 c28.667 0 66.334 3 113.001 9s82.334 12.667 107.001 20v1135l-141 26v53h462v-53l-129 -26v-1182l129 -27v-53h-311z"/>
   <glyph glyph-name="uni019D" horiz-adv-x="1479" unicode="Ɲ" d="M1155 1262l-180.001 26v53h457v-53l-172 -26v-1262h-97l-827 1206v-1252c0 -130 -25.167 -228.667 -75.5 -296s-124.166 -101 -221.499 -101c-30 0 -64.667 2 -104 6s-68.333 8 -87 12v234h70l62 -151c24 -14 56 -21 96 -21c51.333 0 90 21 116 63s39 109.667 39 203 v1359l-172 26v53h406l690 -993v914z"/>
   <glyph glyph-name="uni019E" horiz-adv-x="1024" unicode="ƞ" d="M324 864c51.333 29.333 106.001 53.5 164.001 72.5s106.333 28.5 145 28.5c81.333 0 142.666 -23.667 183.999 -71s62 -116 62 -206v-1061l114 -25v-45h-405v45l125 25v1043c0 55.333 -13.5 98.833 -40.5 130.5s-68.833 47.5 -125.5 47.5 c-60 0 -133.667 -9.66699 -221 -29v-749l127 -25v-45h-406v45l113 25v800l-113 25v45h268z"/>
   <glyph glyph-name="uni019F" horiz-adv-x="1479" unicode="Ɵ" d="M84 672c0 456 218.333 684.001 655 684.001c216 0 379.333 -57.833 490 -173.5s166 -285.834 166 -510.501c0 -228 -56 -400.333 -168 -517s-274.667 -175 -488 -175c-212.667 0 -375 58.167 -487 174.5s-168 288.833 -168 517.5zM739 59.001 c150 0 261.168 46.5 333.501 139.5c72.3379 93 110.171 242.833 113.5 449.5h-893c1.33398 -204 38.167 -353.167 110.5 -447.5s184.166 -141.5 335.499 -141.5zM739.001 1276c-145.333 0 -254.333 -42.833 -327 -128.5s-112 -224.167 -118 -415.5h891 c-6 189.333 -45.167 327.333 -117.5 414s-181.833 130 -328.5 130z"/>
   <glyph glyph-name="Ohorn" horiz-adv-x="1479" unicode="Ơ" d="M1545 1301c0 -132.669 -67.334 -234.336 -202.001 -305.001c34.667 -90.667 52 -198.667 52 -324c0 -228 -56 -400.333 -168 -517s-274.667 -175 -488 -175c-212.667 0 -375 58.167 -487 174.5s-168 288.833 -168 517.5c0 456 218.333 684 655 684 c282.667 0 474.334 -98 575.001 -294c68 36.667 102 76.667 102 120c0 13.333 -5 25.333 -15 36s-27.333 22.334 -52 35.001c-45.333 23.333 -68 56.333 -68 99c0 36 11.333 63.5 34 82.5s51.667 28.5 87 28.5c40.667 0 74.667 -14.5 102 -43.5s41 -68.5 41 -118.5z M292.999 672c0 -215.333 36 -371.333 108 -468s184.667 -145 338 -145c152.667 0 265.334 48.333 338 145c72.667 96.667 109 252.667 109 468c0 214 -36.167 368.167 -108.5 462.5c-72.334 94.333 -185.167 141.5 -338.5 141.5c-154 0 -266.833 -47.167 -338.5 -141.5 s-107.5 -248.5 -107.5 -462.5z"/>
   <glyph glyph-name="ohorn" horiz-adv-x="1083" unicode="ơ" d="M1105 1003c0 -130 -64 -230.334 -192 -301.001c22 -64 33 -139.667 33 -227c0 -330 -146.667 -495 -440 -495c-141.333 0 -248 42.333 -320 127s-108 207.334 -108 368.001c0 158.667 36 280 108 364s181.333 126 328 126c178 0 301.333 -65 370 -195 c61.333 34.667 92 72.667 92 114c0 13.333 -5 25.333 -15 36c-10 10.6699 -27.333 22.3369 -52 35c-45.333 23.333 -68 56.333 -68 99c0 36 11.333 63.5 34 82.5s51.667 28.5 87 28.5c40.6709 0 74.6709 -14.5 102 -43.5c27.333 -29 41 -68.5 41 -118.5zM766 474.999 c0 144 -21 248.333 -63 313s-107.667 97 -197 97c-87.333 0 -150.5 -31 -189.5 -93s-58.5 -167.667 -58.5 -317c0 -151.333 19.833 -258.5 59.5 -321.5s102.5 -94.5 188.5 -94.5c88 0 153.333 32.667 196 98s64 171.333 64 318z"/>
   <glyph glyph-name="uni01A2" horiz-adv-x="1894" unicode="Ƣ" d="M1680 -363l172.001 -27v-53h-536v53l172 27v1614h-244v-1181c-178.667 -60 -344.334 -90 -497.001 -90c-212.667 0 -378 59 -496 177s-177 284 -177 498c0 234.667 58.833 410.167 176.5 526.5s290.167 174.5 517.5 174.5l409 -15h503v-1704zM776.001 1276 c-170.667 0 -295.499 -50.832 -374.499 -152.499s-118.5 -257.167 -118.5 -466.5c0 -194.667 39 -343.334 117 -446.001s194 -154 348 -154c55.333 0 112.666 6.83301 171.999 20.5s103.333 29.5 132 47.5v1126c-125.333 16.667 -217.333 25 -276 25z"/>
   <glyph glyph-name="uni01A3" horiz-adv-x="1416" unicode="ƣ" d="M972 -436l0.00195312 46.999l129 24v1220h-155v-380c0 -330 -146.667 -495 -440 -495c-141.333 0 -248 42.333 -320 127s-108 207.334 -108 368.001c0 158.667 36 280 108 364s181.333 126 328 126c31.333 0 88.666 -4 171.999 -12 c83.333 -8.66699 142.666 -13 177.999 -13h403v-1305l104 -24v-47h-399zM506.002 58.999c88 0 153.333 32.667 196 98s64 171.333 64 318v380c-100 20 -186.667 30 -260 30c-87.333 0 -150.5 -31 -189.5 -93s-58.5 -167.667 -58.5 -317 c0 -151.333 19.833 -258.5 59.5 -321.5s102.5 -94.5 188.5 -94.5z"/>
   <glyph glyph-name="uni01A4" horiz-adv-x="1331" unicode="Ƥ" d="M1060 944c0 110 -25.667 188.667 -77 236c-51.334 47.333 -137.667 71 -259 71h-98v-635h104c112.667 0 195.834 25.667 249.5 77c53.667 51.333 80.5 135 80.5 251zM767 1341c328 0 492 -131.668 492 -395.001c0 -137.333 -41.5 -241.666 -124.5 -312.999 s-202.167 -107 -357.5 -107h-151v-446l213 -27v-53h-565v53l159 27v1171h-54c-52.667 0 -95.334 -7.5 -128 -22.5c-32.667 -15 -57 -42.167 -73 -81.5l-50 -121h-67l7 266c63.333 32.667 159 49 287 49h412z"/>
   <glyph glyph-name="uni01A5" horiz-adv-x="1024" unicode="ƥ" d="M764 481c0 128 -20.832 223.167 -62.499 285.5s-104.834 93.5 -189.501 93.5c-78 0 -143 -11 -195 -33v-751c59.333 -11.333 124.333 -17 195 -17c168 0 252 140.667 252 422zM609.001 1218l-48.999 -0.00195312l-45 123c-22.667 14 -50 21 -82 21 c-42 0 -71.667 -18.667 -89 -56s-26 -107.333 -26 -210c0 -84.667 -2.33301 -155 -7 -211c28 24 65.5 43.333 112.5 58s94.833 22 143.499 22c120 0 212.833 -41.667 278.5 -125s98.5 -203 98.5 -359c0 -159.333 -35.833 -282.666 -107.5 -369.999 s-175.167 -131 -310.5 -131c-75.333 0 -147 7.33301 -215 22c4 -48 6 -85.667 6 -113v-254l164 -24v-47h-448v47l119 24v1375c0 138.667 27.5 245.334 82.5 320.001s132.167 112 231.5 112c51.333 0 99 -6.33301 143 -19v-205z"/>
   <glyph glyph-name="uni01A6" horiz-adv-x="1139" unicode="Ʀ" d="M931 775c0 102 -24.8311 174.501 -74.498 217.501s-136.834 64.5 -261.501 64.5h-171v-573h177c119.333 0 204.166 22.167 254.499 66.5s75.5 119.166 75.5 224.499zM638.002 1147c168 0 292 -28.333 372 -85s120 -147.667 120 -273c0 -89.333 -24.333 -166.5 -73 -231.5 s-116 -110.167 -202 -135.5l384 -567l145 -27v-53h-321l-398 619h-241v-314l203 -27v-53h-555v53l159 27v1182l-172 26v53h568v-53l-203 -27v-114h214z"/>
   <glyph glyph-name="uni01A7" horiz-adv-x="1139" unicode="Ƨ" d="M997 51c-56 -22 -120.33 -39.332 -192.997 -51.999s-145.334 -19 -218.001 -19c-150 0 -264.5 35.667 -343.5 107s-118.5 171.333 -118.5 300c0 58 8.33301 107.667 25 149s40.667 78 72 110s69 59.167 113 81.5s135.333 57.5 273.999 105.5c74 26 129.667 58 167 96 s56 84 56 138c0 64 -25.167 114.167 -75.5 150.5c-50.334 36.333 -120.167 54.5 -209.5 54.5c-100 0 -184 -24.667 -252 -74l-35 -164h-65v279c126.667 28.667 244 43 352 43c141.333 0 252.166 -30.333 332.499 -91c80.333 -60.6689 120.5 -144.336 120.5 -251 c0 -62 -10.167 -114.167 -30.5 -156.5s-47 -77.833 -80 -106.5s-70.5 -52.334 -112.5 -71.001s-85.167 -35.667 -129.5 -51s-87.5 -30.5 -129.5 -45.5s-79.5 -33.333 -112.5 -55s-59.667 -48.167 -80 -79.5s-30.5 -71 -30.5 -119c0 -84 26.167 -149.833 78.5 -197.5 c52.334 -47.667 125.167 -71.5 218.5 -71.5c58 0 116.5 11.667 175.5 35s102.5 51.333 130.5 84l35 181h65v-310z"/>
   <glyph glyph-name="uni01A8" horiz-adv-x="797" unicode="ƨ" d="M65 264c0 41.333 5.83203 76.501 17.499 105.501s28.334 54.833 50.001 77.5s47.667 41.667 78 57s93.5 39.333 189.5 72c52.667 18 91.667 39.833 117 65.5s38 57.5 38 95.5c0 45.333 -14.167 81.333 -42.5 108s-69.5 40 -123.5 40c-76 0 -131.667 -15.667 -167 -47 l-42 -109h-47v205c103.333 20.667 189.333 31 258 31c96 0 172.167 -23.833 228.5 -71.5s84.5 -112.834 84.5 -195.501c0 -47.333 -8.33301 -87.5 -25 -120.5s-40.5 -60.667 -71.5 -83s-79.5 -44.5 -145.5 -66.5l-89 -29c-102.667 -34.667 -154 -92.667 -154 -174 c0 -110.667 64.667 -166 194 -166c80 0 145 22.667 195 68l49 131h45v-231c-30.667 -12 -74 -22.833 -130 -32.5s-108.333 -14.5 -157 -14.5c-233.333 0 -350 94.667 -350 284z"/>
   <glyph glyph-name="uni01A9" horiz-adv-x="1192" unicode="Ʃ" d="M678 748v-51l-403 -527h261c69.333 0 152.833 1.5 250.5 4.5s157.5 6.83301 179.5 11.5l57 188h66l-19 -374h-990v74l438 572l-430 616v79h921v-321h-66l-42 217c-74.667 9.33301 -176.667 14 -306 14h-266z"/>
   <glyph glyph-name="uni01AA" horiz-adv-x="704" unicode="ƪ" d="M773 -424c-44 -12.667 -91.667 -19 -143 -19c-100 0 -177.333 37.5 -232 112.5s-82 181.5 -82 319.5v1069c-32.667 -21.333 -69 -32 -109 -32c-56 0 -103.833 19.833 -143.5 59.5s-59.5 87.5 -59.5 143.5s19.833 103.833 59.5 143.5s87.5 59.5 143.5 59.5 c54.667 0 102.5 -15.5 143.5 -46.5s73.167 -76.333 96.5 -136s35 -132.834 35 -219.5v-1127c0 -101.333 8.5 -171 25.5 -209s46.833 -57 89.5 -57c32 0 59.333 7 82 21l45 123h49v-205zM207 1106c32 0 60.499 11.667 85.499 35c25 23.3379 37.5 52.6709 37.5 88 c0 34 -12 63 -36 87s-53 36 -87 36s-63 -12 -87 -36s-36 -53 -36 -87c0 -34.6709 12.333 -63.8379 37 -87.5c24.667 -23.667 53.334 -35.5 86.001 -35.5z"/>
   <glyph glyph-name="uni01AB" horiz-adv-x="569" unicode="ƫ" d="M572 -39c0 -130 -25.168 -228.667 -75.501 -296s-124.166 -101 -221.499 -101c-42.667 0 -91 6 -145 18v199h47l27 -109c22 -18.667 49.667 -28 83 -28c39.333 0 69 21 89 63s30 109.667 30 203v80c-18.667 -6.66699 -42.667 -10 -72 -10c-64 0 -111.833 19 -143.5 57 s-47.5 91.333 -47.5 160v659h-123v45l125 39l101 213h63v-213h215v-84h-215v-641c0 -43.333 9.83301 -76 29.5 -98s45.5 -33 77.5 -33c38.667 0 90.667 6.33301 156 19v-142z"/>
   <glyph glyph-name="uni01AC" horiz-adv-x="1251" unicode="Ƭ" d="M1217 1026l-67.999 -0.000976562l-27 209c-20 4.66699 -63.667 8.83398 -131 12.501s-141 5.5 -221 5.5h-49v-1173l213 -27v-53h-619v53l213 27v1173h-202c-52.667 0 -95.334 -7.83301 -128.001 -23.5s-57 -43.167 -73 -82.5l-50 -121h-67l7 266 c63.333 32.667 159 49 287 49h915v-315z"/>
   <glyph glyph-name="uni01AD" horiz-adv-x="569" unicode="ƭ" d="M615 1173l-92.001 168c-22.667 14 -50 21 -82 21c-49.333 0 -83.666 -18.833 -102.999 -56.5s-29 -107.5 -29 -209.5v-156h215v-84h-215v-641c0 -43.333 9.83301 -76 29.5 -98s45.5 -33 77.5 -33c38.667 0 85.667 5.33301 141 16v-65c-23.333 -16 -57 -29.167 -101 -39.5 s-84.667 -15.5 -122 -15.5c-64 0 -111.833 19 -143.5 57s-47.5 91.333 -47.5 160v659h-123v45l123 39v70c0 142 28.5 249.5 85.5 322.5s138.833 109.5 245.5 109.5c30 0 66.667 -4 110 -12s83.333 -18.333 120 -31v-226h-89z"/>
   <glyph glyph-name="uni01AE" horiz-adv-x="1251" unicode="Ʈ" d="M721 -167c0 -126.667 47.001 -190.001 141.001 -190.001c28 0 53.667 4.33301 77 13s41.333 20.667 54 36l30 139h66v-244c-52.668 -20 -121.668 -30 -207 -30c-69.333 0 -131.833 19.333 -187.5 58s-97.334 91.5 -125.001 158.5s-41.5 145.5 -41.5 235.5v1246h-51 c-168.667 0 -284 -6.66699 -346 -20l-27 -209h-67v315h1180v-315h-68l-27 209c-20 4.66699 -63.667 8.83398 -131 12.501s-141 5.5 -221 5.5h-49v-1420z"/>
   <glyph glyph-name="Uhorn" horiz-adv-x="1589" unicode="Ư" d="M1585 1301c0 -78.667 -26.333 -149 -79 -211s-133.334 -109.333 -242 -142v-487c0 -160.667 -44.167 -281 -132.5 -361s-216.5 -120 -384.5 -120c-178 0 -311.167 40.167 -399.5 120.5s-132.5 194.166 -132.5 341.499v820l-172 26v53h536v-53l-172 -26v-805 c0 -243.333 118.333 -365 355 -365c128 0 226.167 30.333 294.5 91s102.5 150.667 102.5 270v809l-180 26v53h285v-316c67.3389 22 116.172 47 146.5 75c30.333 28 45.5 55.333 45.5 82c0 13.333 -5 25.333 -15 36s-27.333 22.334 -52 35.001 c-45.333 23.333 -68 56.333 -68 99c0 36 11.333 63.5 34 82.5s51.667 28.5 87 28.5c40.667 0 74.667 -14.5 102 -43.5s41 -68.5 41 -118.5z"/>
   <glyph glyph-name="uhorn" horiz-adv-x="1110" unicode="ư" d="M1164 1003c0 -75.334 -24 -143.166 -72 -203.499s-122 -107.5 -222 -141.5v-588l119 -25v-45h-274l-8 76c-47.333 -26 -102 -48.5 -164 -67.5s-114 -28.5 -156 -28.5c-160 0 -240 92 -240 276v614l-120 25v45h286v-672c0 -114.667 53.333 -172 160 -172 c82.667 0 160 10.333 232 31v743l-142 25v45h307v-204c58 21.333 100 45.166 126 71.499s39 51.833 39 76.5c0 13.333 -5 25.333 -15 36c-10 10.6699 -27.333 22.3369 -52 35c-45.333 23.333 -68 56.333 -68 99c0 36 11.333 63.5 34 82.5s51.667 28.5 87 28.5 c40.667 0 74.667 -14.5 102 -43.5s41 -68.5 41 -118.5z"/>
   <glyph glyph-name="uni01B1" horiz-adv-x="1522" unicode="Ʊ" d="M761 65c150.667 0 262.668 37.833 336.001 113.5s110 196.167 110 361.5c0 132.667 -30.667 238.667 -92 318s-148.333 126 -261 140l-27 343h569l19 -330h-66l-57 144c-53.333 10.667 -148 16 -284 16h-72l10 -101c143.333 -22 257.5 -80.667 342.5 -176 s127.5 -213.333 127.5 -354c0 -181.333 -55.167 -319.166 -165.5 -413.499s-273.5 -141.5 -489.5 -141.5c-215.333 0 -378.333 47.167 -489 141.5s-166 232.166 -166 413.499c0 140.667 42.667 258.667 128 354s199.333 154 342 176l10 101h-72 c-136 0 -230.667 -5.33301 -284 -16l-57 -144h-66l19 330h569l-27 -343c-113.334 -14 -200.501 -60.667 -261.501 -140s-91.5 -185.333 -91.5 -318c0 -166 36.667 -286.667 110 -362s185.333 -113 336 -113z"/>
   <glyph glyph-name="uni01B2" horiz-adv-x="1479" unicode="Ʋ" d="M747 -20c-178 0 -311.167 40.168 -399.5 120.501s-132.5 194.166 -132.5 341.499v820l-172 26v53h536v-53l-172 -26v-805c0 -243.333 118.333 -365 355 -365c128 0 226.167 30.333 294.5 91s102.5 150.667 102.5 270v632c0 62.667 -11.333 110 -34 142s-54.667 48 -96 48 c-20.667 0 -40.667 -5 -60 -15c-19.3369 -10 -34.6699 -21.333 -46 -34l-35 -139h-76v244c60 20 125.667 30 197 30c64 0 113.167 -10.667 147.5 -32s60.833 -54.333 79.5 -99s28 -105 28 -181v-588c0 -160.667 -44.167 -281 -132.5 -361s-216.5 -120 -384.5 -120z"/>
   <glyph glyph-name="uni01B3" horiz-adv-x="1599" unicode="Ƴ" d="M1495 1082l-33 151.999c-20 13.333 -48 20 -84 20c-38.667 0 -73 -12.167 -103 -36.5s-59 -60.5 -87 -108.5l-350 -581v-448l213 -27v-53h-619v53l213 27v442l-471 740l-151 26v53h567v-53l-180 -26l385 -619l302 509c43.333 72.667 88.833 124.834 136.5 156.501 s101.5 47.5 161.5 47.5c56.667 0 112 -9 166 -27v-247h-66z"/>
   <glyph glyph-name="uni01B4" horiz-adv-x="1024" unicode="ƴ" d="M1382 1196h-47.002l-39 111c-21.333 13.333 -46.666 20 -75.999 20c-48 0 -86.5 -13.5 -115.5 -40.5s-54.833 -68.833 -77.5 -125.5l-476 -1220c-43.333 -110 -81 -189 -113 -237s-67.333 -84.333 -106 -109s-83 -37 -133 -37c-52 0 -103.333 6 -154 18v203h47l33 -96 c20.667 -15.333 49.334 -23 86.001 -23c50 0 94.667 20.833 134 62.5s75.333 107.167 108 196.5l26 71l-358 880l-96 25v45h436v-45l-148 -27l254 -657l363 963c30.667 82 70.5 143.667 119.5 185s109.5 62 181.5 62c58 0 108.333 -6.33301 151 -19v-206z"/>
   <glyph glyph-name="uni01B5" horiz-adv-x="1251" unicode="Ƶ" d="M98 94l369.999 571h-293v84h347l328 506h-250c-164.667 0 -278 -6.66699 -340 -20l-31 -211h-69v317h913v-86l-327 -506h292v-84h-347l-375 -581h290c77.333 0 155.833 3.66699 235.5 11c79.668 7.33398 135.835 14.667 168.501 22l59 256h70l-27 -373h-1014v94z"/>
   <glyph glyph-name="uni01B6" horiz-adv-x="909" unicode="ƶ" d="M500 442l-230 -362h275c38 0 78 4.5 120 13.5s71.667 20.167 89 33.5l51 197h47l-25 -324h-772v45l251 397h-208v84h261l212 334h-221c-37.333 0 -73.333 -3.16699 -108 -9.5s-58.667 -14.833 -72 -25.5l-31 -135h-47v250h694v-49l-232 -365h208v-84h-262z"/>
   <glyph glyph-name="uni01B7" horiz-adv-x="1104" unicode="Ʒ" d="M452 -443c-138.667 0 -273.667 21.334 -405 64.001l-4 315h67l25 -201c31.333 -30 74.5 -54.167 129.5 -72.5s113.5 -27.5 175.5 -27.5c127.333 0 224.5 40.667 291.5 122s100.5 200 100.5 356c0 163.333 -37.167 285.666 -111.5 366.999s-183.5 122 -327.5 122h-111v78 l426 575h-171c-151.333 0 -255 -7 -311 -21l-30 -210h-69v317h817v-82l-432 -581c168.667 -11.333 299 -66.333 391 -165s138 -233 138 -403c0 -172.667 -51.5 -308 -154.5 -406s-247.833 -147 -434.5 -147z"/>
   <glyph glyph-name="uni01B8" horiz-adv-x="1104" unicode="Ƹ" d="M652 -443c-186.667 0 -331.5 49.001 -434.5 147.001s-154.5 233.333 -154.5 406c0 170.667 46 305 138 403s222.333 153 391 165l-432 581v82h817v-317h-69l-30 210c-59.333 14 -163 21 -311 21h-171l426 -575v-78h-111c-144 0 -253.167 -40.833 -327.5 -122.5 s-111.5 -203.834 -111.5 -366.501c0 -156 33.667 -274.667 101 -356c67.334 -81.333 164.334 -122 291 -122c62.667 0 121.334 9.16699 176 27.5c54.667 18.333 97.667 42.5 129 72.5l25 201h67l-4 -315c-131.333 -42.667 -266.333 -64 -405 -64z"/>
   <glyph glyph-name="uni01B9" horiz-adv-x="909" unicode="ƹ" d="M565 -443c-304.667 0 -456.999 146.667 -456.999 440c0 112.667 26 204.667 78 276s127.333 118.333 226 141l-342 477v49h766v-250h-47l-31 135c-12.667 10 -35.834 18.333 -69.501 25s-70.5 10 -110.5 10h-284l332 -465v-45h-70c-178.667 0 -268 -117 -268 -351 c0 -121.333 27.167 -208 81.5 -260s138.5 -78 252.5 -78c97.333 0 182 11 254 33v-60c-32.667 -24 -77.667 -42.833 -135 -56.5s-116 -20.5 -176 -20.5z"/>
   <glyph glyph-name="uni01BA" horiz-adv-x="909" unicode="ƺ" d="M527 -443c-298 0 -447 111.334 -447 334.001c0 91.333 32 165.166 96 221.499s155 90.5 273 102.5c78 8 132.333 21.667 163 41s46 48.333 46 87c0 49.333 -23 84.5 -69 105.5s-112.333 31.5 -199 31.5h-70v45l332 335h-284c-37.333 0 -73.333 -3.16699 -108 -9.5 s-58.667 -14.833 -72 -25.5l-31 -135h-47v250h766v-49l-342 -347c202.667 -24 304 -91.667 304 -203c0 -42.667 -10.5 -77.334 -31.5 -104c-21 -26.667 -52.5 -47.5 -94.5 -62.5s-107.667 -26.167 -197 -33.5c-86.667 -7.33301 -150.834 -30.333 -192.5 -69 c-41.667 -38.667 -62.5 -97 -62.5 -175c0 -83.333 26.167 -143.5 78.5 -180.5c52.334 -37 134.167 -55.5 245.5 -55.5c97.333 0 182 11 254 33v-60c-32.667 -24 -77.667 -42.833 -135 -56.5s-116 -20.5 -176 -20.5z"/>
   <glyph glyph-name="uni01BB" horiz-adv-x="1024" unicode="ƻ" d="M768 670c-32.667 -43.333 -74.5029 -89.8311 -125.503 -139.498s-134.167 -124.5 -249.5 -224.5l-172 -152h690v-154h-821v147l176 159c102.667 90.667 179.334 162.667 230.001 216c50.668 53.333 89.335 102.666 116.001 147.999h-447v82h487 c29.333 72 44 156.667 44 254c0 86.667 -19.667 152.667 -59 198c-39.334 45.333 -103.667 68 -193 68c-35.333 0 -71.666 -4.83301 -108.999 -14.5s-70.333 -22.5 -99 -38.5l-35 -164h-66v258c121.333 28.667 224.333 43 309 43c146.667 0 256.834 -30.5 330.5 -91.5 c73.667 -61 110.5 -147.167 110.5 -258.5c0 -90.667 -21.333 -175.334 -64 -254.001h90v-82h-143z"/>
   <glyph glyph-name="uni01BC" horiz-adv-x="1024" unicode="Ƽ" d="M449 -20c-126.667 0 -239.667 14.333 -339 43l-11 282h66l45 -188c29.333 -16 64.5 -29 105.5 -39s80.167 -15 117.5 -15c105.333 0 182.833 25.167 232.5 75.5s74.5 133.833 74.5 250.5c0 112 -21 191.833 -63 239.5s-109 71.5 -201 71.5c-60.667 0 -116 -8 -166 -24 h-96v586l-172 26v53h845v-384h-66l-32 217c-74.667 9.33301 -182.667 14 -324 14h-161v-428c68 16 137 24 207 24c134.667 0 237.167 -30.667 307.5 -92s105.5 -159 105.5 -293c0 -134.667 -41 -238.167 -123 -310.5s-199.333 -108.5 -352 -108.5z"/>
   <glyph glyph-name="uni01BD" horiz-adv-x="908" unicode="ƽ" d="M426 -20c-115.333 0 -218.668 10 -310.001 30l-8 219h64l32 -131c17.333 -9.33301 45.333 -18 84 -26s76 -12 112 -12c92.667 0 160.667 16.833 204 50.5s65 90.167 65 169.5c0 76 -19.167 129.667 -57.5 161s-101.166 47 -188.499 47c-52 0 -102.667 -5.33301 -152 -16 h-69v370l-150 34v64h765v-331h-66l-32 174c-74.667 9.33301 -182.667 14 -324 14h-103v-243c56.667 11.333 114 17 172 17c117.333 0 208.833 -24.5 274.5 -73.5s98.5 -117.167 98.5 -204.5c0 -102 -35.167 -179.667 -105.5 -233c-70.334 -53.333 -172.167 -80 -305.5 -80z "/>
   <glyph glyph-name="uni01BE" horiz-adv-x="864" unicode="ƾ" d="M335 756c0 -30.667 6.66602 -56 19.999 -76c13.334 -20 31.167 -36.833 53.5 -50.5s73.5 -34.834 153.5 -63.501c86 -31.333 145.333 -69 178 -113s49 -99.333 49 -166c0 -93.333 -29.5 -164 -88.5 -212s-146.167 -72 -261.5 -72c-46.667 0 -98.167 4.83301 -154.5 14.5 s-100.5 20.5 -132.5 32.5v231h45l49 -131c50 -45.333 115 -68 195 -68c129.333 0 194 55.333 194 166c0 33.333 -6.83301 61 -20.5 83s-31.667 40.333 -54 55s-75.166 36.334 -158.499 65.001c-90.667 30.667 -152.167 67.167 -184.5 109.5s-48.5 95.833 -48.5 160.5v135 h-123v45l125 39l101 213h63v-213h215v-84h-215v-100z"/>
   <glyph glyph-name="uni01BF" horiz-adv-x="1024" unicode="ƿ" d="M317 -443h-324.002v45l158 25v1243l-153 25v45h319v-201c90.667 150.667 205.334 226 344.001 226c90.667 0 162.167 -32.5 214.5 -97.5s78.5 -154.833 78.5 -269.5c0 -306.667 -212.333 -530.667 -636.999 -672v-369zM316.998 -3c154 60 271.001 140.833 351.001 242.5 s120 220.5 120 356.5c0 79.333 -17.667 142.333 -53 189c-35.334 46.667 -81.667 70 -139 70c-28.667 0 -56.334 -5.83301 -83.001 -17.5s-53 -28.167 -79 -49.5s-65 -61.333 -117 -120v-671z"/>
   <glyph glyph-name="uni01C0" horiz-adv-x="410" unicode="ǀ" d="M254 0h-98v1421h98v-1421z"/>
   <glyph glyph-name="uni01C1" horiz-adv-x="575" unicode="ǁ" d="M439 0h-98v1421h98v-1421zM234 0h-98v1421h98v-1421z"/>
   <glyph glyph-name="uni01C2" horiz-adv-x="510" unicode="ǂ" d="M497 503h-193v-503h-98v503h-193v84h193v182h-193v84h193v568h98v-568h193v-84h-193v-182h193v-84z"/>
   <glyph glyph-name="uni01C3" horiz-adv-x="682" unicode="ǃ" d="M461 92c0 -32.667 -11.5 -61 -34.5 -85s-51.833 -36 -86.5 -36s-63.5 12 -86.5 36s-34.5 52.333 -34.5 85c0 34 11.667 62.667 35 86s52 35 86 35s62.667 -11.667 86 -35s35 -52 35 -86zM231 1341h218l-62 -952h-94z"/>
   </font>
</defs>
</svg>
